<svg width="83" height="25" viewBox="0 0 83 25" fill="none" xmlns="http://www.w3.org/2000/svg">
<path d="M4.45337 9.64331H32.4534" stroke="black" stroke-width="2" stroke-linecap="round"/>
<path d="M2 12.9999C20.9823 11.7563 69.5501 11.7002 80 11.4999M4 11.4998C10.5 9.5 66.9498 9.99987 77 9.99987C78.2579 9.99987 79.2292 9.99735 80 9.99986M80 9.99986C82.8205 10.0091 82.5083 11.4518 80 11.4999M80 9.99986V11.4999" stroke="black" stroke-width="2" stroke-linecap="round"/>
<path d="M13.4534 1.64325C12.0512 3.88673 10.5092 6.07153 8.89783 8.14325C7.78569 9.57314 5.40463 9.27487 4.67561 10.8655C3.12092 14.2575 -0.325506 12.2881 3.50894 15.6432C5.5589 17.437 7.73621 18.9261 9.6756 20.8655C13.1027 24.2926 11.1987 23.5771 8.6756 20.6432C6.30403 17.8856 2.95064 14.9655 1.17561 11.8099C0.0462143 9.80211 4.68738 7.45021 5.89783 6.64325C7.31922 5.69565 15.0115 -1.08639 12.0089 1.64325C9.30938 4.09739 4.62695 7.24878 3.23116 10.421C2.40234 12.3047 -0.0313735 12.3619 2.00894 14.5877C3.21876 15.9075 4.76321 16.2706 5.95338 17.6988C7.81688 19.935 10.4066 22.6432 13.4534 22.6432" stroke="black" stroke-width="2" stroke-linecap="round"/>
<path d="M2.45337 11.6433C5.75342 14.2215 11.6468 19.0301 13.4534 22.6433" stroke="black" stroke-width="2" stroke-linecap="round"/>
</svg>
