<svg width="150" height="74" viewBox="0 0 150 74" fill="none" xmlns="http://www.w3.org/2000/svg">
<path d="M86.1448 10.4276C85.2252 9.92066 84.3669 9.60384 83.5699 9.47711C81.9146 9.1603 80.8724 9.03357 80.4432 9.03357C79.8914 9.03357 79.3397 9.22366 78.9105 9.54048C78.9105 9.66721 78.8492 9.79394 78.7266 9.98403C78.604 10.1741 78.604 10.2375 78.604 10.2375C78.9105 10.9345 79.5236 11.378 80.5658 11.5681L80.7497 11.7582C80.9337 14.7997 80.8724 18.2213 80.5658 21.8331L80.4432 22.0232C80.1367 22.2133 79.9528 22.4034 79.7688 22.5935C79.6462 22.7202 79.5849 22.8469 79.5849 23.037C79.5849 23.3538 79.7688 23.6706 80.198 23.9875L80.3206 24.2409C80.1367 25.7616 80.0141 27.7259 79.9528 30.1338L79.8301 36.0266C80.0754 36.5335 80.5658 36.787 81.1789 36.787C81.4854 36.787 81.7307 36.7236 81.9759 36.5969L85.2865 34.5692C86.6352 33.7455 87.6161 32.8584 88.2905 32.0347C89.1488 30.9575 89.5779 29.7536 89.5779 28.4229C89.5779 26.7755 88.6583 25.2547 86.8191 24.0508C86.5126 23.9241 86.0835 23.734 85.7156 23.5439C85.2252 23.3538 84.9799 23.037 84.8573 22.5935L84.9799 22.34C86.1448 21.5163 87.3096 20.6292 88.5357 19.8054C89.7006 18.7916 90.4362 17.6511 90.7428 16.4471C90.8654 15.8769 90.8041 15.1799 90.4976 14.2928C90.0071 12.9621 88.5357 11.6949 86.1448 10.4276ZM86.0835 25.7616L86.1448 25.825C86.6352 26.3953 86.8804 27.0923 86.8804 27.8527C86.8804 28.1061 86.8804 28.3596 86.8191 28.6764C86.6352 29.5635 86.3287 30.3239 85.8382 30.8308C85.593 31.1476 85.1638 31.4644 84.5508 31.8446C83.999 32.2248 83.5699 32.5416 83.3246 32.8584L82.9568 32.795C82.7729 32.1614 82.6503 31.4644 82.6503 30.6407C82.6503 30.1338 82.7116 29.31 82.8342 28.2962C82.9568 27.2824 83.0181 26.522 83.0181 26.0151C83.0181 25.7616 83.0181 25.5082 82.9568 25.2547L83.0794 25.0013C83.2633 24.9379 83.4473 24.8746 83.6925 24.8746C83.999 24.8746 84.4895 24.9379 86.0835 25.7616ZM87.1257 17.1441C86.5739 17.9679 85.8995 18.5382 85.2252 18.9183C85.2252 18.9183 85.1025 18.9817 84.7347 19.2985C84.3669 19.6153 84.0603 19.7421 83.8764 19.7421L83.6312 19.4886C83.6312 18.7283 83.6312 17.6511 83.5699 16.3204C83.5086 14.8631 83.4473 13.7859 83.4473 13.1522C83.4473 12.7087 83.4473 12.2651 83.5086 11.8216L83.6312 11.6315C84.0603 11.4414 84.3669 11.5048 84.8573 11.8849C85.2252 12.1384 85.5317 12.2651 85.6543 12.3285C87.0031 12.8354 87.7387 13.5958 87.8614 14.5462C87.9227 15.4967 87.6774 16.3204 87.1257 17.1441Z" fill="black"/>
<path d="M95.9537 13.9759C95.8924 13.9126 95.8924 13.8492 95.8311 13.7859C95.8311 13.7225 95.7698 13.5958 95.8311 13.2156C95.8311 13.2156 95.8311 13.2156 95.8311 13.1522L95.6472 13.1522C95.218 12.8988 94.8502 12.772 94.421 12.772C93.9919 12.772 93.6854 12.9621 93.5014 13.2789C93.5628 13.8492 93.5628 14.4195 93.5628 15.0531C93.5628 16.6372 93.3788 19.1084 93.011 22.2766C92.6431 25.4448 92.4592 27.916 92.4592 29.5001C92.4592 30.4506 92.5205 31.2743 92.5818 32.098C92.6431 32.5416 92.8271 33.1752 93.9919 33.2386L94.0532 33.2386C94.605 33.2386 94.9115 32.9851 95.0954 32.4782C95.0954 31.9079 95.0341 31.2743 95.0341 30.704C95.0341 29.0566 95.218 26.522 95.5246 23.2904C95.8311 20.0589 96.015 17.5877 96.015 16.0036C96.015 15.3066 96.015 14.6096 95.9537 13.9759Z" fill="black"/>
<path d="M109.993 30.514C109.993 30.3239 109.932 30.2605 109.87 30.1972C108.767 29.2467 107.418 28.2329 105.824 27.1557C104.353 26.2686 102.943 25.3815 101.533 24.4944L101.471 24.1776C102.085 23.1638 103.556 21.453 105.763 19.1085C107.602 17.1442 108.828 15.4334 109.503 13.976C109.441 13.6592 109.257 13.279 108.338 13.279C108.093 13.279 107.786 13.3424 107.602 13.4057C106.621 14.6097 105.579 15.8769 104.537 17.0175C103.311 18.4749 102.207 19.6788 101.288 20.5659L100.92 20.3758C100.981 18.4749 100.797 15.8769 100.491 12.7087C100.491 12.582 100.429 12.3919 100.123 12.2652C99.8162 12.1385 99.5096 12.0117 99.2644 11.9484C98.9579 12.0117 98.7127 12.0117 98.4674 12.0751C98.1609 12.1385 98.1609 12.2652 98.1609 12.3919C98.4674 14.2295 98.6513 16.5106 98.6513 18.9818C98.6513 19.8055 98.6513 21.0094 98.59 22.7202C98.5287 24.3677 98.5287 25.635 98.5287 26.4587C98.5287 28.7398 98.6513 30.7675 98.9579 32.4783C99.0192 32.9852 99.3257 33.3654 99.8162 33.5555L99.9388 33.6822C100 33.7456 100.123 33.8089 100.245 33.8089C100.429 33.8089 100.613 33.7456 100.736 33.6822C101.165 33.4921 101.349 33.1753 101.349 32.6684C101.349 32.5416 101.349 32.2248 101.288 31.908C101.226 31.5278 101.226 31.211 101.226 31.0209C101.165 29.3734 101.104 28.1062 101.042 27.2191L101.41 26.9656C104.659 28.9299 107.05 30.4506 108.583 31.4645C108.706 31.5278 108.767 31.5912 108.828 31.5912C108.89 31.5912 108.951 31.5912 109.196 31.4645C109.503 31.2744 109.687 31.211 109.932 31.2744C109.993 30.7041 109.993 30.514 109.993 30.514Z" fill="black"/>
<path d="M122.929 13.8493C122.99 13.7859 123.051 13.7226 123.051 13.5958C123.051 13.5325 123.051 13.4057 122.929 13.0889C122.868 12.8988 122.806 12.7087 122.806 12.6454C122.071 12.2018 121.396 11.9484 120.844 11.9484C120.722 11.9484 120.599 11.9484 120.477 11.9484C119.373 12.2018 118.208 12.5186 117.105 12.8355C115.817 13.2156 114.775 13.5958 113.917 14.0394L111.71 14.9898C111.035 15.37 110.667 15.8136 110.667 16.4472C110.667 17.0175 111.219 17.461 112.384 17.7145L112.568 17.9679C112.384 20.756 112.323 21.2629 112.261 21.3896C112.2 21.6431 111.955 21.8965 111.587 22.0866C111.342 22.2133 111.158 22.3401 111.158 22.4668C111.097 22.7836 111.342 23.1638 111.894 23.544L112.016 23.7974C111.832 25.4449 111.832 27.2824 112.016 29.3101C112.078 29.9437 112.384 30.5774 112.875 31.0843C113.365 31.5912 113.917 31.9714 114.53 32.0981C116.553 32.6684 119.005 32.8585 121.703 32.7951C122.009 32.7951 122.193 32.6684 122.377 32.4149C122.561 32.1615 122.622 31.8447 122.561 31.5278C122.377 30.514 122.071 30.0705 121.58 30.1972C121.519 30.1972 121.396 30.1972 121.151 30.3873C120.906 30.5774 120.66 30.7041 120.415 30.7041C120.047 30.7041 119.741 30.7041 119.373 30.7041C117.166 30.7041 115.572 30.3239 114.591 29.6269L114.53 29.5636C114.346 29.12 114.223 28.5497 114.223 27.7894C114.223 26.7755 114.469 25.3182 114.898 23.544L115.02 23.3539C115.695 23.1004 116.614 22.9103 117.718 22.9103C119.005 22.9103 119.864 22.847 120.354 22.7202L120.415 22.7202L120.477 22.7202C120.661 22.7202 120.783 22.6569 120.906 22.5301C121.335 22.0232 121.396 22.0232 121.457 21.9599C121.58 21.8965 121.58 21.8331 121.58 21.7698C121.58 21.7698 121.519 21.5797 121.151 21.0094C120.722 20.756 120.231 20.6292 119.68 20.6292C119.373 20.6292 118.821 20.6926 118.086 20.8193C117.35 20.9461 116.798 21.0094 116.43 21.0094C115.94 21.0094 115.449 20.9461 115.082 20.756L114.959 20.5025C115.082 18.2848 115.204 16.9541 115.449 16.2571L115.572 16.1304C116.43 15.7502 117.718 15.37 119.373 14.8631C120.844 14.6097 122.071 14.2295 122.929 13.8493Z" fill="black"/>
<path d="M88.7196 62.4423C88.8423 62.4423 89.0262 62.379 89.1488 62.0621C89.2101 61.872 89.2101 61.5552 89.2101 61.1117C89.1488 59.6543 89.1488 58.1969 89.1488 56.6762C89.1488 52.7476 89.394 47.7419 89.8232 41.7857L90.0071 41.5956C93.6855 40.9619 96.3217 40.455 97.7931 40.0749C98.2835 39.9481 98.5901 39.5046 98.774 38.7442C98.774 38.6808 98.774 38.364 98.0383 38.364L97.8544 38.1106C97.8544 38.0472 97.8544 37.9838 97.8544 37.9205C97.8544 37.9205 97.7931 37.8571 97.5478 37.8571C97.3639 37.8571 97.2413 37.8571 97.1187 37.8571C96.6895 37.8571 96.1378 37.9205 95.5247 38.1106C94.3599 38.4274 93.6855 38.6175 93.379 38.6175C92.4594 38.8709 91.4172 38.9977 90.3749 38.9977C89.3327 38.9977 88.4131 38.8709 87.6161 38.6175C86.5739 39.1878 85.1025 39.5679 83.1407 39.758C80.9337 39.9481 79.4623 40.2016 78.7266 40.455C78.6653 40.5818 78.604 40.6451 78.604 40.7719C78.604 40.8352 78.7266 41.0253 78.9718 41.659C79.6462 42.2292 80.5045 42.4827 81.5467 42.4827C82.0372 42.4827 82.8955 42.356 84.1216 42.2292C84.9799 42.1025 85.7156 42.0391 86.3287 42.0391C86.5126 42.0391 86.6352 42.0391 86.8191 42.0391L87.0031 42.2926C87.0031 44.0034 86.9417 46.538 86.6965 49.7695C86.5126 53.1278 86.39 55.6624 86.39 57.2465C86.39 58.1969 86.39 59.1474 86.4513 60.0345C86.5126 60.6681 86.6965 61.2384 87.1257 61.7453C87.5548 62.1889 88.0453 62.4423 88.7196 62.4423L88.7196 62.6958L88.7196 62.4423Z" fill="black"/>
<path d="M106.683 59.464C105.456 55.7889 104.23 51.0999 103.065 45.5239C102.943 44.5101 102.82 43.5596 102.698 42.5458C102.514 41.4686 102.146 40.6449 101.533 40.138C101.349 39.9479 101.104 39.8845 100.797 39.8845C100.368 39.8845 100.184 40.0746 100.123 40.2647C99.5097 41.7221 98.8353 43.9398 98.0996 46.7278C97.18 49.9594 96.5669 52.1771 96.1378 53.3811C96.0765 53.6345 95.8312 53.8246 95.3408 53.888C94.9116 54.0147 94.789 54.0781 94.7277 54.1414C94.6664 54.2048 94.6051 54.3315 94.6051 54.3949C94.6051 54.3949 94.6051 54.5216 94.9729 54.8384C95.3408 55.1552 95.5247 55.4721 95.5247 55.7889C95.4634 56.5492 95.0956 57.8165 94.3599 59.5907C93.8081 61.0481 93.5629 62.252 93.6242 63.1391C93.6855 63.4559 93.992 63.7727 94.6664 64.0262C95.0956 64.1529 95.4021 64.0896 95.586 63.7727C95.9538 62.8857 96.3217 61.555 96.6895 59.8442C97.1187 57.9433 97.4252 56.6126 97.6704 55.9156L97.7317 55.7889C98.2835 55.282 99.0192 55.0285 99.9388 54.9018L102.33 54.7117L102.575 54.8384C103.004 56.0423 103.433 57.6264 103.74 59.4006C104.046 60.9847 104.659 61.8085 105.702 62.0619C105.702 62.0619 105.824 62.0619 106.315 61.6184C106.683 61.3016 106.805 60.9847 106.805 60.5412C106.866 60.161 106.805 59.8442 106.683 59.464ZM101.839 52.8108C100.307 52.8108 99.3257 52.8741 98.9579 52.9375L98.7127 52.6207C99.2031 50.6564 99.8162 48.6288 100.491 46.6645L100.92 46.6645C101.104 47.6149 101.349 48.5654 101.594 49.5158C101.839 50.6564 101.962 51.6069 102.023 52.494L101.839 52.8108Z" fill="black"/>
<path d="M119.557 49.96C119.25 49.96 119.005 50.0234 118.944 50.0234C118.453 50.0234 118.086 50.2768 117.902 50.8471C117.473 52.1144 117.227 52.4312 117.043 52.6213C113.978 55.2826 111.648 56.93 110.116 57.5637C110.054 57.5637 109.993 57.6271 109.932 57.6271C109.809 57.6271 109.625 57.5637 109.441 57.2469C109.38 57.0568 109.319 56.9934 109.319 56.9934L109.196 56.8033C109.196 56.4865 109.135 56.1697 109.135 55.8529C109.135 54.0787 109.625 52.1144 110.668 49.8967C112.261 46.4116 114.101 43.4969 116.063 41.2792C116.124 41.2158 116.185 41.1524 117.411 40.4554C117.779 40.2653 117.963 39.8852 117.902 39.4416C117.84 39.0614 117.657 38.5545 116.553 38.5545C115.572 38.5545 114.469 39.4416 113.181 41.2158C110.545 44.8909 108.583 48.6927 107.357 52.4946C106.989 53.6985 106.805 54.7123 106.805 55.5994C106.805 56.5499 107.05 57.3736 107.541 58.0072C108.583 59.4646 109.809 60.0349 111.035 59.6547C112.997 58.8943 114.775 57.7538 116.369 56.2331L116.737 56.4231C116.614 57.8171 116.492 58.831 116.369 59.528C116.369 59.8448 116.308 60.2883 116.246 60.9853C116.185 61.619 116.124 62.1259 116.124 62.4427C116.124 63.5199 116.553 64.2169 117.473 64.5971C117.595 64.6605 117.779 64.6604 117.963 64.6604C118.699 64.6604 118.821 64.2803 118.883 63.9635C118.944 61.9358 119.067 59.9082 119.189 57.8805C119.373 55.536 119.802 53.5084 120.415 51.9243C120.477 51.7342 120.538 51.5441 120.538 51.354C120.538 50.9738 120.354 50.4669 119.925 49.8333C119.864 49.8967 119.741 49.8967 119.557 49.96Z" fill="black"/>
<path d="M135.047 64.2627C131.553 69.6426 123.567 70.3917 117.578 70.7322C111.303 71.0727 105.1 70.4598 98.8251 70.0512C88.4149 69.3021 77.9335 69.6426 67.5946 70.0512C56.614 70.4598 45.8473 70.1193 34.9381 69.3702C29.9469 69.0297 25.027 68.6892 20.0358 68.4849C16.3281 68.3487 12.6917 67.6677 9.41176 66.0333C1.35458 61.9473 1.7824 52.5495 1.8537 45.1266C1.925 37.0227 2.85193 28.9869 2.92324 20.8149C2.92324 15.6393 2.13891 5.96906 6.98748 2.42785C7.34399 2.15545 6.98748 1.20205 6.55967 1.54255C2.42412 4.53896 2.49542 11.6214 2.28152 16.0479C1.925 23.9475 1.49719 31.779 1.21198 39.6105C0.926766 46.8972 -0.142772 55.4097 3.85017 62.0154C6.77357 66.9186 12.6204 68.8254 18.182 69.3702C23.3157 69.915 28.5208 69.915 33.6546 70.2555C39.5727 70.6641 45.4195 71.0727 51.3376 71.277C62.6747 71.6856 74.0118 70.6641 85.3489 70.6641C93.8339 70.6641 102.319 71.5494 110.804 71.8218C117.364 72.0261 124.423 71.8218 130.483 69.234C132.622 68.3487 134.405 66.9186 135.617 65.0118C135.831 64.6713 135.332 63.8541 135.047 64.2627Z" fill="black"/>
<path d="M3.27995 5.49109C3.56516 5.49109 3.92167 5.49109 4.20688 5.49109C4.706 5.49109 4.91991 5.01439 4.91991 4.60579C4.91991 4.19719 4.56339 3.51619 4.06428 3.51619C3.77907 3.51619 3.42255 3.51619 3.13734 3.51619C2.63822 3.51619 2.42432 3.99289 2.42432 4.40149C2.42432 4.81009 2.70953 5.49109 3.27995 5.49109Z" fill="black"/>
<path d="M3.35118 7.46535C10.0536 2.15354 18.0395 2.83454 26.2393 2.49404C36.2216 2.08544 46.204 1.74494 56.2576 1.94924C66.3113 2.15354 76.365 2.56214 86.4186 2.56214C96.9001 2.56213 107.31 4.06034 117.72 4.19654C124.565 4.26464 134.191 1.47253 138.469 8.35064C141.036 12.4366 139.824 17.0675 140.822 21.4259C141.607 24.8309 143.603 27.623 145.386 30.6194C147.739 34.5011 150.163 39.0638 148.238 43.5584C146.812 46.8953 142.89 48.5297 140.109 50.5727C138.113 52.0028 137.329 54.1139 136.687 56.3612C136.045 58.7447 136.116 63.9203 132.623 64.1927C132.052 64.2608 132.48 66.2357 133.193 66.1676C135.546 66.0314 136.402 63.4436 136.901 61.5368C137.756 58.1999 137.899 54.7949 140.894 52.4795C143.532 50.3684 147.097 49.0745 148.737 46.01C150.234 43.3541 150.234 40.6301 149.593 37.7699C148.88 34.5692 147.026 31.5047 145.315 28.7126C143.532 25.6481 141.749 23.0603 141.535 19.3829C141.393 17.2037 141.535 14.9564 141.036 12.8452C139.61 7.26104 136.972 2.76643 130.555 1.94923C126.633 1.47253 122.498 2.22163 118.576 2.28973C112.301 2.35783 105.956 1.74493 99.6809 1.26823C88.7003 0.451029 77.6484 0.587237 66.5965 0.314838C55.1881 0.0424387 43.851 -0.22996 32.4426 0.31484C27.1662 0.58724 21.8898 0.791541 16.6134 0.995841C12.4779 1.13204 8.69887 1.74494 5.20504 3.85604C4.27811 4.40084 3.42248 5.08185 2.56685 5.76285C2.06773 6.03525 2.78076 7.94205 3.35118 7.46535Z" fill="black"/>
<path d="M138.256 33.0043C138.184 36.0007 137.4 39.4057 138.826 42.2659C139.396 43.4236 140.822 44.1046 142.106 43.696C143.461 43.2193 143.817 41.3125 144.031 40.1548C144.601 37.3627 144.601 33.6853 142.177 31.7104C138.826 29.0545 137.756 35.6602 137.543 37.2946C137.471 38.1118 138.612 39.4057 138.755 38.0437C138.969 36.4774 139.396 32.0509 142.106 33.5491C143.817 34.5025 143.033 38.1799 142.748 39.6781C142.534 40.7677 142.035 41.9254 140.68 41.7892C139.182 41.653 139.325 39.8143 139.325 38.7928C139.254 37.0903 139.539 35.3878 139.539 33.6853C139.539 32.9362 138.327 31.6423 138.256 33.0043Z" fill="black"/>
<path d="M23.102 71.2082C14.3318 71.4125 6.4172 67.8713 3.4938 59.495C1.92515 54.8642 1.99645 49.4843 1.49733 44.6492C0.926912 38.5202 0.499098 32.3912 0.641703 26.2621C0.784308 22.1761 1.28343 18.0901 1.42603 14.0041C1.63994 9.10092 2.28166 4.53821 7.77196 2.90381C11.551 1.8142 15.9004 2.56331 19.7508 2.56331C25.6689 2.56331 31.587 2.69951 37.5051 2.83571C48.7709 3.04001 60.0367 2.6314 71.3025 2.6995C82.3544 2.7676 93.4063 3.7891 104.458 3.721C114.227 3.6529 125.136 2.1547 134.405 5.90021C139.824 8.0794 142.605 13.5274 142.89 18.8392C143.104 22.7209 143.532 25.3768 145.956 28.6456C148.594 32.1868 149.664 36.4091 148.452 40.6313C147.311 44.5811 143.603 46.1474 140.609 48.4628C138.969 49.7567 138.327 51.4592 137.97 53.366C137.257 56.9753 136.972 59.9717 134.976 63.2405C128.915 73.1831 115.225 71.1401 105.242 70.4591C97.5418 69.9143 89.7698 70.2548 82.0692 70.5272C74.725 70.7315 67.4522 70.5953 60.1793 71.0039C52.336 71.4125 44.4927 72.8426 36.6495 73.0469C29.7331 73.2512 23.0307 71.3444 16.1856 72.3659C15.6865 72.3659 15.9717 73.3874 16.3996 73.3193C21.8899 72.5021 27.3801 73.4555 32.8704 73.8641C38.1468 74.2727 43.4232 73.3874 48.6996 72.9107C60.2506 71.753 71.8729 71.8211 83.4952 71.4125C88.9855 71.2082 94.4045 71.072 99.8948 71.1401C104.886 71.2082 109.877 71.8892 114.868 72.0935C121.286 72.2978 127.988 71.3444 132.837 67.0541C135.047 65.0792 136.473 62.4233 137.471 59.7674C138.113 58.0649 138.398 56.4305 138.541 54.6599C138.826 50.642 141.322 49.0076 144.388 47.0327C150.234 43.2872 151.375 34.9789 147.525 29.4628C145.814 27.0112 144.102 24.9682 143.746 21.9037C143.532 20.1331 143.817 18.3625 143.461 16.5919C142.819 13.1869 141.322 10.2586 138.826 7.7389C132.979 1.67799 121.642 2.359 113.799 2.4271C94.1906 2.6995 74.6537 1.4737 55.1168 1.81421C44.7067 1.95041 34.2965 1.60991 23.815 1.4737C17.683 1.4056 8.77019 -0.296898 3.63641 3.78911C-0.427833 7.05791 0.926914 14.8213 0.499099 19.2478C-0.499137 29.0542 0.213887 38.7245 1.21212 48.4628C1.85384 54.6599 1.99645 61.4018 6.63111 66.2369C10.9806 70.7315 16.97 72.2978 23.1733 72.1616C23.7437 72.1616 23.5298 71.1401 23.102 71.2082Z" fill="black"/>
<path d="M66.3666 31.6277C66.3666 17.3156 54.5231 5.70691 39.9216 5.70691C25.32 5.70691 13.4766 17.3156 13.4766 31.6277C13.4766 44.9857 23.7787 55.9583 37.0824 57.3895C38.867 60.4109 39.4348 63.9094 40.7327 67.1694C40.8139 67.4079 41.3006 67.2489 41.3006 67.0899C42.3551 63.9094 42.4363 60.4109 43.6531 57.31C56.5511 55.4812 66.3665 44.6676 66.3666 31.6277ZM41.0572 66.1358C40.0027 63.1938 39.4348 60.1724 37.8936 57.469C38.6236 57.5485 39.2726 57.5485 40.0027 57.5485C41.0572 57.5485 42.1118 57.469 43.1663 57.3895C42.0307 60.1724 41.7873 63.1938 41.0572 66.1358ZM39.9216 56.1968C26.0501 56.1968 14.8556 45.1447 14.8556 31.6277C14.8556 18.1107 26.1312 7.05861 39.9216 7.05861C53.793 7.05861 64.9875 18.1107 64.9875 31.6277C64.9875 45.1447 53.793 56.1968 39.9216 56.1968Z" fill="black"/>
<path d="M39.9217 7.69507C26.4558 7.69507 15.5046 18.4291 15.5046 31.6281C15.5046 44.827 26.4558 55.5611 39.9216 55.5611C53.3875 55.5611 64.3387 44.827 64.3387 31.6281C64.3387 18.4291 53.3875 7.69507 39.9217 7.69507ZM39.9216 54.766C26.8614 54.766 16.3158 44.4294 16.3158 31.6281C16.3158 18.8267 26.8614 8.49018 39.9217 8.49018C52.9819 8.49018 63.5275 18.8267 63.5275 31.6281C63.5275 44.4294 52.9819 54.766 39.9216 54.766Z" fill="black"/>
<path d="M39.9217 7.0592C26.0502 7.0592 14.8557 18.1113 14.8557 31.6283C14.8557 45.1453 26.1313 56.1974 39.9217 56.1974C53.7931 56.1974 64.9876 45.1453 64.9876 31.6283C64.9876 18.1113 53.7931 7.0592 39.9217 7.0592ZM39.9217 55.5613C26.4558 55.5613 15.5047 44.8272 15.5047 31.6283C15.5047 18.4294 26.4558 7.6953 39.9217 7.6953C53.3875 7.69529 64.3387 18.4294 64.3387 31.6283C64.3387 44.8272 53.3875 55.5613 39.9217 55.5613Z" fill="white"/>
<path d="M39.9215 28.447C38.1369 28.447 36.6768 29.8782 36.6768 31.6275C36.6768 33.3767 38.1369 34.808 39.9215 34.808C41.7062 34.808 43.1663 33.3767 43.1663 31.6275C43.1663 29.8782 41.7062 28.447 39.9215 28.447ZM39.9215 33.6948C38.7859 33.6948 37.8124 32.7406 37.8124 31.6275C37.8124 30.5143 38.7859 29.5602 39.9215 29.5602C41.0572 29.5602 42.0306 30.5143 42.0306 31.6275C42.0306 32.7406 41.1383 33.6948 39.9215 33.6948Z" fill="black"/>
<path d="M39.9216 29.5605C38.7859 29.5605 37.8125 30.5147 37.8125 31.6278C37.8125 32.741 38.7859 33.6952 39.9216 33.6952C41.0573 33.6952 42.0307 32.741 42.0307 31.6278C42.0307 30.5147 41.1384 29.5605 39.9216 29.5605ZM39.9216 32.423C39.516 32.423 39.1104 32.1049 39.1104 31.6278C39.1104 31.2303 39.4349 30.8327 39.9216 30.8327C40.3272 30.8327 40.7328 31.1508 40.7328 31.6278C40.7328 32.0254 40.4083 32.423 39.9216 32.423Z" fill="white"/>
<path d="M39.9216 30.8322C39.516 30.8322 39.1104 31.1502 39.1104 31.6273C39.1104 32.0248 39.4348 32.4224 39.9216 32.4224C40.3272 32.4224 40.7328 32.1043 40.7328 31.6273C40.7328 31.1502 40.4083 30.8322 39.9216 30.8322Z" fill="black"/>
<path d="M37.6501 56.754L43.4908 56.754L41.0572 66.1363L37.6501 56.754Z" fill="black"/>
<path d="M33.8377 9.12799C33.7566 15.3299 37.5692 22.1679 40.4895 27.4952C44.7888 35.2873 49.656 42.9204 53.2253 51.0306C53.3064 51.2691 53.9553 51.1101 53.7931 50.8716C50.7917 43.9541 46.8168 37.5931 43.1664 31.0732C41.1385 27.4157 38.9482 23.8376 37.4881 20.0211C36.1902 16.7611 34.4055 12.6265 34.4867 9.12799C34.4055 8.80994 33.8377 8.88945 33.8377 9.12799Z" fill="black"/>
<path d="M26.6993 11.6714C27.5105 14.9314 29.5385 17.7143 30.9175 20.8153C32.3777 24.2343 33.5134 27.7328 35.1358 30.9928C37.1637 35.0479 39.7596 38.7849 41.7876 42.84C43.5722 46.418 44.7079 50.1551 46.0869 53.8921C46.168 54.1307 46.7359 53.9716 46.6547 53.7331C44.2211 46.8951 41.382 40.6932 37.6505 34.3323C35.298 30.3567 33.5945 26.2221 31.9721 21.9284C30.6742 18.3504 28.2406 15.17 27.2672 11.4329C27.186 11.2739 26.6182 11.4329 26.6993 11.6714Z" fill="black"/>
<path d="M58.3358 17.8734C55.2533 19.7022 51.7651 20.7358 48.6014 22.4056C45.3567 24.0753 42.3552 26.3812 39.1916 28.2099C35.4601 30.2772 31.6474 32.106 27.6726 33.6962C24.0222 35.207 20.5341 37.3538 16.6403 38.3874C16.3158 38.4669 16.3158 38.7055 16.7214 38.626C20.2096 37.6718 23.2921 35.7635 26.618 34.4118C30.1873 32.9011 33.6754 31.4699 37.0825 29.7207C40.4084 27.9714 43.572 26.0631 46.7357 23.9163C50.4672 21.4514 54.8477 20.2588 58.7414 18.0324C59.0659 17.7939 58.498 17.7939 58.3358 17.8734Z" fill="black"/>
<path d="M62.4729 23.5975C55.1721 26.6985 47.9525 29.9584 40.7328 33.2979C33.7565 36.4784 26.8614 40.2949 19.8039 43.1574C19.3983 43.3164 19.8039 43.5549 20.0473 43.4754C26.6991 40.772 33.0264 37.2735 39.5971 34.3316C47.3035 30.8331 55.0099 27.3345 62.7974 23.9951C63.1218 23.7565 62.7974 23.518 62.4729 23.5975Z" fill="black"/>
<path d="M42.8421 8.57132C41.7064 16.0454 37.6504 22.4859 36.3525 29.8009C34.9735 37.3545 31.972 44.5901 29.7007 51.9052C29.7007 51.9847 30.2685 51.9052 30.2685 51.8256C32.621 44.5106 35.6224 37.275 36.9203 29.7214C38.1371 22.4063 42.3553 15.8864 43.491 8.4123C43.4099 8.33278 42.8421 8.41229 42.8421 8.57132Z" fill="black"/>
<path d="M47.8713 9.92257C47.7091 11.5128 46.979 12.7055 46.6545 14.2162C46.1678 16.6811 45.6811 19.1459 45.1132 21.5313C44.1398 25.9044 42.923 30.2776 41.8685 34.6507C40.895 39.0238 39.7593 43.3175 38.3803 47.6111C37.6502 49.8374 37.1635 52.5408 35.7034 54.3696C35.7034 54.3696 36.1901 54.3696 36.2712 54.2901C37.7314 52.3818 38.1369 49.6784 38.9481 47.5316C40.4894 43.3175 41.4629 38.9443 42.4363 34.5712C43.4909 30.198 44.5454 25.8249 45.6811 21.4518C46.6545 17.6352 48.0336 13.5801 48.4392 9.76355C48.5203 9.76355 47.9524 9.76355 47.8713 9.92257Z" fill="black"/>
<path d="M63.2841 34.4112C59.2282 34.8883 55.0911 32.662 51.2784 31.4693C47.5469 30.3561 43.6532 29.243 39.8406 28.2888C35.9468 27.2552 31.8908 27.0166 27.9971 26.2215C24.2656 25.5059 21.0208 23.5181 17.2893 22.882C17.0459 22.8025 16.7215 23.2001 17.0459 23.2796C21.2642 23.9952 24.9957 26.0625 29.1328 26.9371C33.5944 27.8118 37.9748 28.2093 42.3553 29.4815C46.5735 30.7537 50.7917 31.7873 54.9288 33.139C57.768 34.0932 60.2016 35.2063 63.2841 34.8088C63.5275 34.7293 63.6897 34.3317 63.2841 34.4112Z" fill="black"/>
<path d="M16.3158 27.8926C24.0222 30.437 31.4852 32.9018 39.5161 34.174C43.9776 34.8896 48.3581 35.0486 52.5763 36.7979C55.74 38.1496 58.6603 39.6603 62.0673 39.8193C62.3107 39.8193 62.7163 39.5013 62.3107 39.5013C58.1736 39.3423 54.6043 37.0364 50.8728 35.6052C47.8714 34.4921 44.3832 34.333 41.3007 33.9355C32.7831 32.9018 24.8334 30.1189 16.8026 27.4951C16.5592 27.5746 16.0725 27.8131 16.3158 27.8926Z" fill="black"/>
<path d="M22.3997 15.1703C28.1592 20.6566 34.6487 25.1888 41.0572 29.88C47.3034 34.4917 54.523 38.4672 60.1203 43.7945C60.2014 43.874 60.7692 43.715 60.6881 43.6355C55.0909 38.2287 47.8712 34.3326 41.625 29.721C35.2166 24.9503 28.8081 20.4181 22.9675 15.0113C22.8053 14.8523 22.3186 15.0908 22.3997 15.1703Z" fill="black"/>
<path d="M19.5608 19.1458C21.5888 21.6107 24.9958 23.5189 27.5105 25.5067C30.7553 28.1306 34.649 30.2774 38.056 32.5833C41.7064 35.0481 45.2757 37.513 48.6827 40.2959C51.6841 42.7607 53.9555 46.1797 57.2814 48.088C57.4436 48.1675 57.9303 47.929 57.8492 47.8495C54.5233 46.0207 52.0897 42.6017 49.2505 40.0573C46.0058 37.1949 42.2743 34.8096 38.6239 32.3447C35.0546 29.9594 31.5665 27.6535 28.0783 25.2682C26.6993 24.314 25.5636 23.0419 24.2657 22.0082C22.8867 20.895 21.3454 20.259 20.2097 18.9073C19.9664 18.8277 19.4797 18.9868 19.5608 19.1458Z" fill="black"/>
<path d="M50.6295 11.8312C50.3861 14.0575 47.0602 16.3634 45.6812 17.9536C42.842 21.1341 40.8951 25.1892 38.137 28.6082C35.1356 32.3452 32.2153 36.2413 29.0517 39.8988C26.6992 42.6022 23.4544 44.59 21.6698 47.691C21.5886 47.7705 22.1565 47.7705 22.2376 47.6114C24.4278 43.8744 28.6461 41.0915 31.4852 37.752C34.5678 34.0945 37.407 30.1984 40.4895 26.4613C42.9231 23.4399 44.5455 19.8619 47.1413 16.9995C48.3581 15.6478 50.9539 13.819 51.1973 11.8312C51.2784 11.5927 50.7106 11.6722 50.6295 11.8312Z" fill="black"/>
<path d="M56.1457 15.5671C53.7932 18.35 51.7652 21.451 49.575 24.3134C47.3036 27.3348 44.6267 30.0382 42.3553 32.9801C40.084 35.8426 37.3259 38.3074 34.8112 41.0108C31.8909 44.1913 29.8629 48.0078 27.0237 51.2678C26.8615 51.4268 27.4293 51.3473 27.5915 51.2678C30.1063 48.3259 32.0531 45.0659 34.4867 42.0445C36.7581 39.1821 39.5973 36.7967 42.0308 34.0933C47.3847 28.2094 51.603 21.5305 56.7135 15.5671C56.8757 15.4081 56.3079 15.4876 56.1457 15.5671Z" fill="black"/>
<path d="M63.1217 26.142C62.0671 25.5059 59.3902 26.301 58.2545 26.4601C54.6041 27.0166 51.0349 27.7322 47.3845 28.2888C41.3005 29.402 35.1354 30.5947 28.9703 31.0717C24.671 31.3898 20.3716 30.6742 16.3157 32.3439C15.9101 32.5029 16.3157 32.662 16.559 32.5029C21.264 30.5947 26.9423 31.6283 31.9718 31.0717C36.8389 30.5947 41.625 29.4815 46.411 28.7659C49.0069 28.3683 51.5216 27.8913 54.1174 27.4142C55.7398 27.0961 61.0937 25.4264 62.635 26.301C62.7161 26.4601 63.2028 26.2215 63.1217 26.142Z" fill="black"/>
<path d="M63.3651 32.0266C59.6336 33.1397 55.4154 32.5036 51.5217 32.9012C47.1412 33.2988 42.8419 33.6963 38.5425 33.9348C31.0795 34.4119 23.292 35.3661 16.1535 37.3538C16.0724 37.3538 15.9102 37.4334 15.9102 37.5129C15.9102 37.5924 15.9102 37.5924 15.9102 37.6719C15.9102 37.9104 16.478 37.8309 16.478 37.5924C16.5591 37.0358 26.7802 35.6046 26.8613 35.6046C31.1606 34.9685 35.46 34.4914 39.8404 34.2529C44.2209 34.0144 48.5202 33.5373 52.9007 33.1397C56.47 32.8217 60.0392 33.3783 63.4462 32.3446C63.7707 32.2651 63.6896 31.9471 63.3651 32.0266Z" fill="black"/>
</svg>
