<svg width="424" height="314" viewBox="0 0 424 314" fill="none" xmlns="http://www.w3.org/2000/svg">
<path d="M423 285.637C415.675 285.637 408.008 285.127 400.79 286.174C397.21 286.693 393.718 288.14 390.022 286.83C386.462 285.568 380.433 287.024 376.561 286.681C372.069 286.283 369.055 284.94 365.12 283.37C360.745 281.626 352.58 282.953 347.621 282.953C342.412 282.953 337.202 282.953 331.992 282.953C328.01 282.953 324.008 282.862 320.027 282.953C317.553 283.009 315.55 284.107 313.26 284.563C309.392 285.335 305.464 286.208 301.594 287.009C298.676 287.612 296.124 288.858 293.107 288.858" stroke="black" stroke-width="2" stroke-linecap="round"/>
<path d="M294.453 288.321C276.192 288.321 258.13 287.784 239.938 287.784C232.676 287.784 225.852 286.71 218.7 286.71C215.566 286.71 212.748 286.174 209.652 286.174C207.265 286.174 205.115 287.042 202.622 286.681C196.554 285.801 189.612 282.482 183.404 284.682C181.283 285.434 179.011 286.089 177.01 286.949C174.966 287.827 172.618 287.194 170.616 287.903C166.954 289.202 165.402 288.137 162.615 285.667C159.775 283.15 158.004 283.131 153.94 281.879C150.484 280.814 147.558 281.94 144.069 282.446C141.341 282.842 140.33 282.77 140.33 285.1" stroke="black" stroke-width="2" stroke-linecap="round"/>
<path d="M140.33 285.1C133.64 285.207 127.697 287.651 121.486 289.394C119.152 290.049 116.187 290.4 114.381 291.84C108.086 296.861 100.59 297.233 91.8725 298.102C85.1743 298.77 78.4361 299.057 71.6818 299.057C68.4541 299.057 68.8229 298.473 66.2977 297.178C62.5106 295.236 58.3334 295.836 53.8093 295.836C50.499 295.836 43.9312 295.183 41.9193 292.615C41.2058 291.705 37.7073 291.388 36.3855 291.124C32.1932 290.288 27.5157 290.796 23.5607 289.394C17.5051 287.248 11.022 285.1 4.37954 285.1" stroke="black" stroke-width="2" stroke-linecap="round"/>
<path d="M79.3892 300.608C84.9498 299.743 90.4458 298.701 96.1278 298.701" stroke="black" stroke-width="2" stroke-linecap="round"/>
<path d="M8.13383 274.607C8.13383 254.079 6.04679 205.948 2.87318 185.699C-1.3415 158.806 2.87321 129.925 2.87321 102.858C2.87321 86.3603 4.50577 76.3578 4.50577 60.0397C4.50577 48.484 2.87319 19.8011 2.87319 7.88087C2.87319 2.9857 9.40365 14.8016 9.40365 9.90646C9.40365 5.15017 12.6689 19.4777 12.6689 13.1619C12.6689 11.57 12.9672 9.70794 12.6606 8.03123C12.4178 7.98455 12.1786 7.93449 11.9433 7.88087C11.1975 7.71091 9.63387 2.81576 11.8512 5.99794C12.0719 5.99418 12.9093 5.98522 14.3116 5.97149C21.8141 5.87897 45.8474 5.56806 78.6465 5.14364C82.525 4.70396 86.4095 4.23589 90.3094 3.75735C116.556 0.536739 144.842 2.74456 171.396 2.74456H223.278C227.483 2.74456 230.134 0.791129 234.706 2.09348C235.977 2.4556 237.148 2.79594 238.297 3.08788C328.923 1.93157 412.256 0.896219 412.3 1.00834C413.781 4.09035 414.693 16.4781 415.218 33.9702C417.006 93.5689 414.295 212.424 414.295 224.36V260.573C414.295 266.424 412.662 271.632 412.662 277.501C412.662 281.232 414.594 287.708 410.123 286.689C405.683 285.677 400.903 289.575 397.062 290.45C390.823 291.872 389.727 286.616 384.091 286.616H368.581C362.418 286.616 356.61 290.257 350.623 290.523C346.089 290.724 338.453 292.666 334.296 294.14C331.243 295.222 322.238 291.825 317.97 291.825C313.48 291.825 310.699 289.221 305.725 289.221C300.651 289.221 295.316 287.918 291.032 287.918C278.87 287.918 268.939 291.825 256.747 291.825C250.052 291.825 232.059 288.728 226.543 293.127C221.19 297.397 218.795 294.121 211.849 294.429C209.129 294.55 204.881 301.868 202.416 303.834C199.495 306.163 192.18 306.032 188.176 307.451C182.891 309.324 177.139 308.988 171.941 311.357C168.259 313.035 161.709 313.394 157.156 312.587C155.398 312.276 145.676 308.864 144.912 308.102C142.209 305.407 130.863 307.107 126.953 305.859C120.678 303.857 110.219 305.234 106.091 299.638C99.3168 290.452 84.4677 294.487 73.8017 290.233C64.3998 286.484 53.8106 286.616 42.8725 286.616C38.7102 286.616 12.6689 285.57 12.6689 283.361C12.6689 279.196 8.13383 274.607 8.13383 274.607Z" fill="#C4C4C4"/>
<path d="M11.8526 5.99997C13.2804 8.04987 12.6689 10.8827 12.6689 13.1619C12.6689 19.4777 9.40365 5.15017 9.40365 9.90646C9.40365 14.8016 2.87319 2.9857 2.87319 7.88087C2.87319 19.8011 4.50577 48.484 4.50577 60.0398C4.50577 76.3578 2.87321 86.3603 2.87321 102.858C2.87321 129.925 -1.3415 158.806 2.87318 185.699C6.04679 205.948 8.13383 254.079 8.13383 274.607C8.13383 274.607 12.6689 279.196 12.6689 283.361C12.6689 285.57 38.7102 286.616 42.8725 286.616C53.8106 286.616 64.3998 286.484 73.8017 290.233C84.4677 294.487 99.3169 290.452 106.091 299.638C110.219 305.234 120.678 303.857 126.953 305.859C130.863 307.107 142.209 305.407 144.912 308.102C145.676 308.864 155.398 312.276 157.156 312.587C161.709 313.394 168.259 313.035 171.941 311.357C177.139 308.988 182.891 309.324 188.176 307.451C192.18 306.032 199.495 306.163 202.416 303.834C204.881 301.868 209.129 294.55 211.849 294.429C218.795 294.121 221.19 297.397 226.543 293.127C232.059 288.728 250.052 291.825 256.747 291.825C268.939 291.825 278.87 287.918 291.032 287.918C295.316 287.918 300.651 289.221 305.725 289.221C310.699 289.221 313.48 291.825 317.97 291.825C322.238 291.825 331.243 295.222 334.296 294.14C338.453 292.666 346.089 290.724 350.623 290.523C356.61 290.257 362.418 286.616 368.581 286.616C373.751 286.616 378.921 286.616 384.091 286.616C389.727 286.616 390.823 291.872 397.062 290.45C400.903 289.575 405.683 285.677 410.123 286.689C414.594 287.708 412.662 281.232 412.662 277.501C412.662 271.632 414.295 266.424 414.295 260.573C414.295 250.296 414.295 234.431 414.295 224.36C414.295 208.92 418.83 14.5913 412.3 1.00834M11.8526 5.99997C9.63321 2.81369 11.1973 7.71088 11.9433 7.88087C18.8707 9.45951 29.1745 7.95321 36.342 7.95321C54.6245 7.95321 72.3023 5.96693 90.3094 3.75735C116.556 0.536739 144.842 2.74456 171.396 2.74456C188.69 2.74456 205.984 2.74456 223.278 2.74456C227.483 2.74456 230.134 0.791129 234.706 2.09348C238.47 3.16562 241.351 4.04672 245.409 4.04672C269.566 4.04672 293.723 4.04672 317.879 4.04672C339.088 4.04672 360.3 2.74456 381.28 2.74456C386.843 2.74456 6.28957 5.99997 11.8526 5.99997ZM11.8526 5.99997C14.2176 5.99997 412.205 0.763279 412.3 1.00834M412.3 1.00834C417.665 14.9153 421.049 272.672 419.107 286.616" stroke="black" stroke-width="2" stroke-linecap="round"/>
</svg>
