<svg width="32" height="32" viewBox="0 0 32 32" fill="none" xmlns="http://www.w3.org/2000/svg">
<path d="M1.51945 10.7819C3.14398 5.59269 7.22208 2.25264 11.8902 1.32854C14.712 0.288578 22.5827 1.93645 24.4205 3.22662C29.3436 6.68288 30.9064 8.0294 30.9064 14.4022C30.9064 18.1383 29.2292 23.3021 25.7403 25.5321C24.4088 27.5012 22.6749 29.1901 20.0965 30.4572C16.3402 32.3031 9.00133 29.3013 6.96444 26.2073C6.26949 25.1517 5.03493 24.4832 4.24195 23.2167C3.67946 22.3183 3.7862 21.0028 3.16095 20.2654C2.9637 20.0328 2.83203 19.7158 2.74738 19.3467C1.09591 17.025 0.460158 14.1656 1.51945 10.7819Z" fill="black"/>
<path d="M16.4932 3.22662C14.1266 3.22662 8.69087 2.41798 7.12459 4.95805C5.4295 7.70701 3.64308 10.8933 2.8807 13.8906C1.09207 20.9225 7.28865 25.7315 13.6105 27.1517C19.6136 28.5004 24.3601 26.0905 25.8618 20.1867C27.3196 14.4552 29.8023 10.2476 24.981 5.50895C16.9651 -2.36952 4.65935 0.752154 1.51945 10.7819C-2.10667 22.3648 14.1298 27.804 22.9791 26.5615C28.3485 25.8076 30.9064 19.0162 30.9064 14.4022C30.9064 8.0294 29.3436 6.68288 24.4204 3.22662C22.427 1.82714 13.335 0.0067798 11.2884 1.6526C7.17676 4.95902 2.80062 8.64768 2.80062 14.5596C2.80062 15.9713 2.19592 19.1272 3.16095 20.2654C3.7862 21.0028 3.67946 22.3183 4.24195 23.2167C5.03493 24.4832 6.26949 25.1517 6.96444 26.2073C9.00133 29.3013 16.3402 32.3031 20.0965 30.4572C25.5481 27.7781 27.2243 23.2137 29.3049 18.1011C32.1346 11.1482 29.594 5.7374 22.2585 3.93493" stroke="black" stroke-width="1.5" stroke-linecap="round"/>
<path d="M11.4021 11.0076C12.4071 11.9006 20.751 18.4011 20.4984 18.5133" stroke="white" stroke-width="1.5" stroke-linecap="round"/>
<path d="M13.1537 16.4466C15.0821 15.1888 16.269 12.9592 18.4043 11.6187C16.7494 13.8515 13.0405 17.2392 12.2946 17.8922C10.208 19.7188 12.3237 16.9879 13.1537 16.4466Z" fill="black"/>
<path d="M18.4797 11.572C16.2967 12.9068 15.1047 15.1741 13.1537 16.4466C12.3237 16.9879 10.208 19.7188 12.2946 17.8922C13.334 16.9824 20.1263 10.7625 19.0982 9.75659" stroke="white" stroke-width="1.5" stroke-linecap="round"/>
<path d="M18.3135 16.044C17.1074 13.8568 15.0131 12.5648 12.8246 11.2634C13.6058 11.4969 14.3819 11.757 14.9193 12.2569C16.7235 13.9347 18.9413 15.9244 20.2478 17.9928C21.3204 19.6909 18.7033 16.7509 18.3135 16.044Z" fill="black"/>
<path d="M11.4157 10.4184C14.0769 12.0532 16.8495 13.3891 18.3135 16.044C18.7033 16.7509 21.3204 19.6909 20.2478 17.9928C18.9413 15.9244 16.7235 13.9347 14.9193 12.2569C13.5997 11.0296 10.8416 11.2473 10.1018 9.75659" stroke="white" stroke-width="1.5" stroke-linecap="round"/>
</svg>
