<?xml version="1.0" standalone="no"?>
<!DOCTYPE svg PUBLIC "-//W3C//DTD SVG 20010904//EN"
 "http://www.w3.org/TR/2001/REC-SVG-20010904/DTD/svg10.dtd">
<svg version="1.0" xmlns="http://www.w3.org/2000/svg"
 width="241.000000pt" height="267.000000pt" viewBox="0 0 241.000000 267.000000"
 preserveAspectRatio="xMidYMid meet">

<g transform="translate(0.000000,267.000000) scale(0.100000,-0.100000)"
fill="#000000" stroke="none">
<path d="M1104 2634 c-99 -64 -123 -154 -129 -489 -2 -132 0 -277 6 -322 5
-46 7 -94 3 -107 -6 -24 -7 -24 -87 34 -45 32 -149 101 -232 153 -317 200
-442 240 -563 178 -49 -25 -79 -61 -92 -112 -16 -59 -4 -95 68 -204 65 -96 75
-106 277 -268 116 -92 235 -182 265 -200 30 -18 55 -39 55 -47 0 -7 -91 -68
-202 -134 -111 -67 -215 -134 -232 -149 -16 -16 -41 -55 -55 -87 -38 -85 -47
-147 -35 -238 17 -126 53 -157 194 -168 96 -7 194 10 265 46 48 25 149 107
241 196 67 64 127 104 157 104 5 0 12 -60 16 -133 4 -72 17 -220 30 -329 27
-224 43 -271 109 -319 37 -27 47 -29 127 -29 131 0 224 32 249 86 18 41 29
196 24 339 -5 126 11 482 22 493 3 3 27 -10 53 -28 119 -85 441 -295 477 -311
50 -23 125 -23 190 -1 69 24 95 74 95 185 0 121 -12 150 -89 212 -36 28 -161
116 -277 194 -117 78 -216 147 -222 154 -7 9 27 42 131 127 77 63 172 136 211
161 105 67 119 88 141 207 15 84 16 108 6 141 -17 60 -54 97 -134 136 -79 38
-113 38 -176 -1 -17 -11 -59 -36 -95 -58 -35 -21 -121 -92 -190 -157 -140
-132 -196 -173 -268 -201 -45 -17 -48 -17 -50 0 -1 9 -3 181 -3 382 -1 381 -3
410 -47 495 -47 89 -155 121 -234 69z m140 -227 c20 -28 21 -42 26 -440 6
-474 4 -467 91 -467 37 0 60 12 119 60 43 35 523 372 564 397 30 18 86 16 108
-4 23 -20 23 -73 1 -120 -35 -74 -234 -258 -441 -407 -55 -40 -82 -65 -82 -79
0 -27 58 -79 138 -124 37 -21 152 -93 257 -160 165 -107 194 -130 222 -174 33
-53 33 -60 -1 -118 -17 -29 -23 -32 -52 -28 -21 4 -95 50 -196 123 -186 133
-321 217 -455 282 -89 43 -94 44 -118 28 -34 -23 -40 -57 -26 -157 12 -85 30
-493 31 -701 0 -135 -9 -148 -100 -148 -138 0 -156 42 -185 430 -8 113 -15
226 -15 251 0 58 -26 145 -51 170 -35 35 -58 24 -184 -93 -220 -204 -275 -249
-351 -285 -122 -58 -207 -44 -239 41 -28 72 -11 128 65 225 38 48 56 59 243
151 245 120 267 133 267 162 0 40 -124 147 -325 279 -160 106 -205 142 -284
224 -145 153 -180 223 -129 259 37 26 129 21 191 -10 75 -38 399 -250 503
-329 92 -71 193 -125 231 -125 30 0 31 6 37 245 14 470 31 643 68 667 22 14
50 4 72 -25z"/>
</g>
</svg>
