<?xml version="1.0" standalone="no"?>
<!DOCTYPE svg PUBLIC "-//W3C//DTD SVG 20010904//EN"
 "http://www.w3.org/TR/2001/REC-SVG-20010904/DTD/svg10.dtd">
<svg version="1.0" xmlns="http://www.w3.org/2000/svg"
 width="277.000000pt" height="276.000000pt" viewBox="0 0 277.000000 276.000000"
 preserveAspectRatio="xMidYMid meet">

<g transform="translate(0.000000,276.000000) scale(0.100000,-0.100000)"
fill="#000000" stroke="none">
<path d="M1165 2751 c-278 -31 -615 -230 -840 -496 -59 -70 -197 -308 -193
-333 3 -18 -10 -54 -51 -142 -13 -30 -28 -73 -32 -95 -5 -22 -15 -74 -23 -115
-18 -91 -20 -220 -5 -355 36 -332 37 -339 63 -360 29 -24 49 -62 41 -75 -10
-17 4 -47 24 -53 28 -7 78 -81 96 -143 11 -39 25 -61 51 -81 19 -16 49 -50 66
-77 29 -45 76 -85 232 -198 28 -21 60 -41 70 -45 10 -3 42 -18 70 -33 85 -46
249 -108 281 -108 17 1 53 -4 80 -11 28 -6 132 -15 232 -20 147 -7 193 -6 235
5 29 7 73 14 98 14 25 0 77 9 115 21 39 11 79 21 90 22 10 1 27 9 37 19 10 10
28 18 41 18 42 0 228 107 332 191 39 31 93 83 120 115 28 32 71 80 96 108 25
28 67 89 94 136 27 47 54 92 61 100 19 23 61 137 84 227 17 67 22 116 23 265
3 248 -4 300 -58 451 -25 70 -45 137 -45 149 0 40 -137 300 -192 365 -55 65
-244 220 -307 252 -20 11 -73 44 -119 75 -45 31 -92 56 -103 56 -11 0 -35 11
-53 25 -45 34 -104 59 -226 94 -90 26 -126 31 -260 35 -85 2 -186 1 -225 -3z
m-310 -181 c3 -6 -31 -28 -77 -50 -46 -22 -94 -48 -108 -58 l-24 -17 23 31
c24 34 84 72 141 90 19 7 36 12 37 13 1 1 5 -4 8 -9z m710 -25 c17 -7 77 -25
135 -40 131 -34 221 -67 263 -98 17 -13 48 -30 67 -37 19 -7 47 -22 62 -32 14
-10 41 -18 58 -18 28 0 32 -3 27 -22 -5 -17 8 -37 58 -90 128 -135 235 -320
271 -468 7 -30 24 -91 37 -135 33 -109 45 -310 23 -381 -119 -382 -118 -379
-232 -531 -36 -48 -78 -98 -92 -109 -15 -12 -66 -55 -113 -95 -110 -94 -385
-244 -476 -260 -32 -5 -87 -16 -123 -23 l-65 -12 38 -19 c43 -21 46 -30 15
-38 -24 -7 -44 6 -53 32 -5 16 -25 19 -163 24 -147 6 -239 18 -287 37 -35 14
-98 20 -111 9 -17 -14 -56 4 -85 38 -13 15 -50 42 -82 58 -32 17 -63 38 -68
47 -5 9 -24 21 -41 27 -22 8 -45 29 -67 61 -18 28 -37 50 -42 50 -5 0 -46 37
-92 83 -66 65 -91 98 -120 159 -20 42 -45 81 -55 87 -14 7 -21 26 -26 65 -3
31 -15 79 -26 108 -16 44 -20 88 -24 263 -6 208 4 318 32 385 6 14 13 42 17
63 3 20 22 67 42 105 145 275 190 329 410 499 85 66 139 95 250 137 40 15 75
32 79 37 3 5 15 9 27 9 12 0 51 11 87 24 62 24 72 24 240 19 109 -3 186 -10
205 -18z m-955 -125 c-13 -11 -25 -20 -28 -20 -3 0 3 9 13 20 10 11 23 20 28
20 6 0 0 -9 -13 -20z m945 -2320 c3 -5 2 -10 -4 -10 -5 0 -13 5 -16 10 -3 6
-2 10 4 10 5 0 13 -4 16 -10z"/>
<path d="M1468 2104 c-10 -3 -18 -9 -18 -14 0 -4 -19 -11 -42 -15 -23 -4 -52
-18 -65 -31 -13 -13 -27 -24 -32 -24 -12 0 -46 -43 -60 -77 -7 -18 -20 -33
-27 -33 -8 0 -14 -4 -14 -10 0 -5 7 -10 15 -10 8 0 15 -4 15 -9 0 -19 -13 -41
-24 -41 -8 0 -12 -39 -14 -137 -1 -75 -4 -138 -6 -140 -2 -2 -58 -5 -124 -6
l-119 -2 10 -23 c8 -17 8 -25 -1 -31 -14 -8 -14 -172 0 -194 5 -8 43 -12 118
-13 61 -1 114 -4 117 -8 4 -3 6 -152 6 -330 l-1 -323 29 3 c17 2 29 -1 29 -8
0 -14 190 -2 205 13 6 6 11 124 12 312 1 166 3 309 5 317 4 20 37 27 128 29
82 1 94 6 102 36 43 153 56 209 51 220 -4 11 -25 15 -87 15 -44 0 -94 1 -111
2 -16 2 -42 -1 -57 -5 -24 -6 -28 -4 -34 19 -4 16 -2 35 6 47 7 12 12 49 11
89 -1 61 2 74 26 104 l27 36 110 -4 111 -3 0 115 0 114 -35 8 c-47 9 -240 18
-262 12z m-164 -336 c-3 -4 -14 -8 -25 -8 -11 0 -18 4 -15 8 2 4 14 8 25 8 11
0 17 -4 15 -8z m116 -993 c7 -9 8 -15 2 -15 -5 0 -12 7 -16 15 -3 8 -4 15 -2
15 2 0 9 -7 16 -15z m20 -115 c0 -5 -4 -10 -10 -10 -5 0 -10 5 -10 10 0 6 5
10 10 10 6 0 10 -4 10 -10z"/>
</g>
</svg>
