<?xml version="1.0" encoding="UTF-8"?>
<svg xmlns="http://www.w3.org/2000/svg" xmlns:xlink="http://www.w3.org/1999/xlink" width="142px" height="80px" viewBox="0 0 142 80" version="1.1">
<g id="surface1">
<path style=" stroke:none;fill-rule:nonzero;fill:rgb(0%,0%,0%);fill-opacity:1;" d="M 19.558594 21.722656 C 18.804688 21.796875 18.222656 21.867188 17.75 21.953125 C 13.957031 22.582031 10.492188 24.382812 7.75 27.148438 C 4.535156 30.390625 2.644531 34.605469 2.324219 39.214844 C 2.15625 41.472656 2.4375 43.839844 3.121094 46.113281 C 3.464844 47.242188 4.117188 48.742188 4.75 49.855469 C 6.585938 53.101562 9.390625 55.753906 12.695312 57.371094 C 13.402344 57.722656 14.011719 57.980469 14.597656 58.1875 C 14.984375 58.324219 15.058594 58.339844 15.289062 58.324219 C 15.742188 58.292969 16.046875 58.070312 16.148438 57.691406 C 16.175781 57.597656 16.183594 56.929688 16.175781 55.730469 L 16.167969 53.917969 L 16.039062 53.941406 C 15.210938 54.09375 14.886719 54.125 14.195312 54.125 C 13.410156 54.125 13.078125 54.078125 12.476562 53.902344 C 11.824219 53.710938 11.183594 53.339844 10.714844 52.867188 C 10.347656 52.492188 10.167969 52.210938 9.886719 51.585938 C 9.285156 50.234375 8.777344 49.542969 7.976562 49 C 7.25 48.507812 7.019531 48.164062 7.265625 47.964844 C 7.484375 47.796875 8.007812 47.75 8.488281 47.867188 C 8.835938 47.949219 9.421875 48.238281 9.726562 48.476562 C 10.128906 48.78125 10.523438 49.238281 10.910156 49.832031 C 11.441406 50.65625 12.066406 51.25 12.628906 51.464844 C 12.828125 51.539062 12.832031 51.578125 12.660156 51.578125 C 12.308594 51.585938 12.300781 51.953125 12.652344 52.097656 C 13.039062 52.25 13.320312 51.964844 13.03125 51.699219 C 12.925781 51.585938 12.925781 51.585938 13.007812 51.609375 C 13.335938 51.714844 13.519531 51.746094 13.921875 51.769531 C 14.597656 51.796875 15.265625 51.683594 15.925781 51.417969 L 16.199219 51.3125 L 16.246094 51.089844 C 16.464844 50.097656 16.753906 49.464844 17.210938 48.972656 C 17.316406 48.863281 17.378906 48.78125 17.347656 48.78125 C 17.316406 48.78125 17.074219 48.742188 16.800781 48.703125 C 15.265625 48.484375 14.101562 48.140625 13.023438 47.582031 C 10.667969 46.363281 9.332031 44.152344 9.035156 40.960938 C 8.859375 39.039062 9.050781 37.589844 9.65625 36.296875 C 9.929688 35.714844 10.25 35.222656 10.765625 34.566406 L 10.859375 34.453125 L 10.773438 34.160156 C 10.457031 33.164062 10.417969 32.011719 10.652344 30.832031 C 10.75 30.335938 11.011719 29.527344 11.085938 29.472656 C 11.109375 29.457031 11.34375 29.453125 11.601562 29.457031 C 11.96875 29.472656 12.179688 29.496094 12.5 29.589844 C 13.472656 29.839844 14.824219 30.496094 15.933594 31.265625 L 16.148438 31.410156 L 16.335938 31.347656 C 17.074219 31.136719 18.457031 30.90625 19.46875 30.824219 C 20.144531 30.777344 21.90625 30.792969 22.53125 30.867188 C 23.488281 30.96875 24.589844 31.171875 25.210938 31.347656 L 25.402344 31.410156 L 25.902344 31.082031 C 27.476562 30.070312 28.835938 29.511719 29.898438 29.457031 C 30.515625 29.421875 30.476562 29.398438 30.652344 29.929688 C 31.117188 31.347656 31.167969 32.8125 30.820312 34.039062 C 30.765625 34.207031 30.71875 34.375 30.707031 34.40625 C 30.699219 34.445312 30.796875 34.597656 30.933594 34.757812 C 31.601562 35.5625 32.101562 36.578125 32.355469 37.582031 C 32.75 39.160156 32.621094 41.578125 32.050781 43.332031 C 31.183594 45.992188 29.367188 47.613281 26.414062 48.359375 C 25.828125 48.515625 24.945312 48.679688 24.496094 48.71875 C 24.132812 48.757812 24.132812 48.757812 24.308594 48.941406 C 24.886719 49.550781 25.273438 50.519531 25.355469 51.578125 C 25.371094 51.738281 25.386719 53.1875 25.386719 54.800781 L 25.394531 57.730469 L 25.5 57.910156 C 25.570312 58.027344 25.683594 58.132812 25.789062 58.203125 C 25.957031 58.308594 25.996094 58.316406 26.320312 58.308594 C 26.65625 58.308594 26.6875 58.300781 27.195312 58.101562 C 30.667969 56.746094 33.480469 54.609375 35.628906 51.675781 C 36.304688 50.761719 36.859375 49.839844 37.390625 48.734375 C 38.449219 46.554688 39.070312 44.191406 39.238281 41.707031 C 39.3125 40.511719 39.246094 38.878906 39.070312 37.667969 C 38.523438 33.949219 36.851562 30.441406 34.277344 27.644531 C 31.777344 24.917969 28.507812 23.011719 24.898438 22.164062 C 23.503906 21.84375 22.566406 21.730469 20.957031 21.722656 C 20.265625 21.714844 19.632812 21.714844 19.558594 21.722656 Z M 19.558594 21.722656 "/>
<path style=" stroke:none;fill-rule:nonzero;fill:rgb(0%,0%,0%);fill-opacity:1;" d="M 54.480469 27.058594 C 51.859375 27.300781 49.90625 28.140625 48.402344 29.648438 C 46.230469 31.835938 45.140625 35.351562 45.136719 40.257812 C 45.128906 42.652344 45.378906 44.527344 45.917969 46.21875 C 46.835938 49.132812 48.5625 51.097656 51.101562 52.125 C 52.613281 52.742188 54.207031 53.019531 56.359375 53.035156 C 57.695312 53.042969 58.46875 52.972656 59.601562 52.734375 C 60.660156 52.515625 61.851562 52.105469 62.742188 51.660156 C 63.121094 51.464844 63.628906 51.144531 63.667969 51.074219 C 63.691406 51.027344 63.707031 48.726562 63.707031 44.695312 C 63.707031 38.78125 63.699219 38.382812 63.636719 38.308594 C 63.605469 38.269531 63.539062 38.207031 63.5 38.1875 C 63.441406 38.15625 62.269531 38.148438 59.34375 38.148438 L 55.269531 38.148438 L 55.148438 38.277344 L 55.027344 38.398438 L 55.027344 40.488281 C 55.027344 42.476562 55.027344 42.582031 55.097656 42.691406 C 55.132812 42.75 55.210938 42.820312 55.269531 42.835938 C 55.324219 42.859375 56.070312 42.875 56.933594 42.875 L 58.492188 42.867188 L 58.484375 45.328125 L 58.46875 47.789062 L 58.363281 47.820312 C 57.679688 48.011719 55.589844 48.085938 54.785156 47.949219 C 53.21875 47.683594 52.109375 46.84375 51.386719 45.394531 C 50.789062 44.175781 50.492188 42.652344 50.445312 40.535156 C 50.355469 36.898438 51.105469 34.480469 52.71875 33.179688 C 53.476562 32.570312 54.488281 32.195312 55.710938 32.082031 C 56.085938 32.050781 57.785156 32.050781 58.289062 32.089844 C 59.183594 32.148438 60.171875 32.339844 61.015625 32.613281 C 61.488281 32.765625 61.59375 32.765625 61.714844 32.652344 C 61.796875 32.582031 61.851562 32.410156 62.195312 30.921875 C 62.40625 30.015625 62.609375 29.101562 62.664062 28.894531 C 62.792969 28.355469 62.777344 28.324219 62.238281 28.054688 C 61.273438 27.582031 59.785156 27.234375 58.105469 27.097656 C 57.945312 27.082031 57.769531 27.058594 57.703125 27.050781 C 57.390625 27.003906 54.96875 27.011719 54.480469 27.058594 Z M 54.480469 27.058594 "/>
<path style=" stroke:none;fill-rule:nonzero;fill:rgb(0%,0%,0%);fill-opacity:1;" d="M 87.140625 27.980469 C 87.070312 28.003906 87.011719 28.0625 86.964844 28.148438 C 86.902344 28.269531 86.902344 28.925781 86.902344 40.234375 C 86.902344 53.148438 86.886719 52.355469 87.085938 52.5 C 87.160156 52.546875 87.414062 52.554688 89.503906 52.554688 C 91.996094 52.554688 91.980469 52.554688 92.078125 52.371094 C 92.109375 52.324219 92.117188 50.609375 92.117188 47.132812 L 92.117188 41.964844 L 99.121094 41.964844 L 99.105469 47.082031 C 99.089844 51.28125 99.097656 52.226562 99.136719 52.316406 C 99.242188 52.570312 99.105469 52.554688 101.714844 52.554688 C 104.03125 52.554688 104.074219 52.554688 104.167969 52.484375 C 104.21875 52.4375 104.28125 52.339844 104.296875 52.265625 C 104.351562 52.074219 104.351562 28.40625 104.296875 28.207031 C 104.21875 27.933594 104.34375 27.941406 101.789062 27.941406 C 100.535156 27.941406 99.457031 27.949219 99.394531 27.972656 C 99.335938 27.988281 99.257812 28.035156 99.214844 28.070312 C 99.136719 28.148438 99.136719 28.1875 99.121094 32.636719 L 99.097656 37.125 L 92.140625 37.125 L 92.117188 32.636719 L 92.101562 28.140625 L 91.996094 28.046875 C 91.941406 28.003906 91.867188 27.957031 91.835938 27.957031 C 91.46875 27.933594 87.230469 27.949219 87.140625 27.980469 Z M 87.140625 27.980469 "/>
<path style=" stroke:none;fill-rule:nonzero;fill:rgb(0%,0%,0%);fill-opacity:1;" d="M 124.320312 27.957031 C 124.265625 27.964844 124.175781 28.011719 124.128906 28.0625 L 124.03125 28.15625 L 124.03125 52.339844 L 124.242188 52.554688 L 127.601562 52.554688 L 127.714844 52.460938 C 127.777344 52.410156 127.835938 52.300781 127.859375 52.234375 C 127.890625 52.109375 128.003906 51.355469 128.003906 51.28125 C 128.003906 51.265625 128.078125 51.3125 128.164062 51.378906 C 128.40625 51.585938 128.90625 51.90625 129.28125 52.097656 C 130.550781 52.742188 131.96875 53.046875 133.511719 53.019531 C 135.390625 52.980469 136.664062 52.515625 137.652344 51.5 C 138.695312 50.441406 139.316406 48.804688 139.582031 46.480469 C 139.925781 43.492188 139.726562 40.800781 139.027344 38.949219 C 138.863281 38.5 138.519531 37.828125 138.261719 37.460938 C 137.859375 36.882812 137.207031 36.304688 136.574219 35.953125 C 135.367188 35.273438 133.472656 35.078125 131.71875 35.449219 C 130.953125 35.609375 130.03125 35.9375 129.492188 36.257812 L 129.25 36.402344 L 129.25 32.332031 C 129.25 27.910156 129.257812 28.109375 129.050781 27.996094 C 128.992188 27.957031 128.4375 27.949219 126.695312 27.941406 C 125.433594 27.941406 124.371094 27.949219 124.320312 27.957031 Z M 132.652344 39.6875 C 133.726562 39.976562 134.324219 40.921875 134.515625 42.613281 C 134.554688 42.917969 134.570312 43.429688 134.570312 44.039062 C 134.570312 47.109375 134.128906 48.292969 132.851562 48.613281 C 132.523438 48.6875 131.652344 48.710938 131.1875 48.652344 C 130.519531 48.550781 129.707031 48.285156 129.296875 48.027344 L 129.136719 47.925781 L 129.136719 40.375 L 129.402344 40.234375 C 129.964844 39.953125 130.714844 39.710938 131.277344 39.632812 C 131.636719 39.589844 132.394531 39.609375 132.652344 39.6875 Z M 132.652344 39.6875 "/>
<path style=" stroke:none;fill-rule:nonzero;fill:rgb(0%,0%,0%);fill-opacity:1;" d="M 68.476562 28.519531 C 67.070312 28.757812 66.054688 29.96875 66.039062 31.410156 C 66.03125 31.980469 66.152344 32.453125 66.425781 32.941406 C 67.125 34.207031 68.699219 34.75 70.003906 34.191406 C 70.855469 33.828125 71.492188 33.0625 71.714844 32.125 C 71.804688 31.777344 71.796875 31.097656 71.714844 30.761719 C 71.628906 30.425781 71.402344 29.921875 71.21875 29.6875 C 70.566406 28.8125 69.480469 28.347656 68.476562 28.519531 Z M 68.476562 28.519531 "/>
<path style=" stroke:none;fill-rule:nonzero;fill:rgb(0%,0%,0%);fill-opacity:1;" d="M 76.046875 30.992188 C 75.839844 31.019531 75.847656 30.929688 75.839844 33.519531 L 75.832031 35.90625 L 74.585938 36.21875 C 73.902344 36.394531 73.300781 36.5625 73.265625 36.59375 C 73.21875 36.625 73.171875 36.707031 73.15625 36.777344 C 73.144531 36.84375 73.128906 37.582031 73.136719 38.414062 C 73.136719 39.785156 73.144531 39.921875 73.195312 40.015625 C 73.234375 40.070312 73.300781 40.128906 73.355469 40.144531 C 73.410156 40.167969 73.980469 40.183594 74.648438 40.183594 L 75.847656 40.183594 L 75.855469 44.007812 C 75.863281 46.113281 75.863281 47.859375 75.871094 47.890625 C 75.871094 47.917969 75.886719 48.078125 75.902344 48.238281 C 75.96875 48.972656 76.183594 49.785156 76.457031 50.359375 C 77.046875 51.59375 78.136719 52.421875 79.625 52.765625 C 80.300781 52.925781 80.777344 52.980469 81.722656 52.980469 C 82.535156 52.980469 82.671875 52.972656 83.179688 52.882812 C 83.894531 52.75 84.570312 52.578125 84.65625 52.492188 C 84.683594 52.453125 84.730469 52.371094 84.746094 52.316406 C 84.792969 52.125 84.796875 49.015625 84.753906 48.871094 C 84.667969 48.613281 84.554688 48.589844 83.710938 48.667969 C 82.414062 48.773438 81.515625 48.460938 81.183594 47.789062 C 80.984375 47.402344 80.992188 47.523438 80.992188 43.710938 L 80.992188 40.183594 L 84.464844 40.183594 L 84.714844 39.929688 L 84.714844 38.011719 C 84.714844 36.84375 84.699219 36.042969 84.675781 35.984375 C 84.660156 35.929688 84.585938 35.855469 84.523438 35.816406 C 84.402344 35.746094 84.335938 35.738281 82.703125 35.738281 L 80.992188 35.738281 L 80.992188 34.75 C 80.984375 31.457031 80.976562 31.113281 80.910156 31.050781 C 80.855469 30.992188 80.648438 30.984375 78.484375 30.984375 C 77.183594 30.984375 76.089844 30.984375 76.046875 30.992188 Z M 76.046875 30.992188 "/>
<path style=" stroke:none;fill-rule:nonzero;fill:rgb(0%,0%,0%);fill-opacity:1;" d="M 66.53125 35.777344 C 66.492188 35.792969 66.417969 35.855469 66.363281 35.90625 L 66.273438 36.007812 L 66.265625 44.070312 C 66.257812 51.683594 66.257812 52.132812 66.320312 52.257812 C 66.363281 52.347656 66.441406 52.417969 66.546875 52.476562 L 66.714844 52.554688 L 68.949219 52.546875 C 71.144531 52.539062 71.183594 52.539062 71.28125 52.460938 C 71.335938 52.417969 71.402344 52.324219 71.425781 52.257812 C 71.480469 52.097656 71.492188 36.136719 71.441406 35.984375 C 71.417969 35.929688 71.347656 35.855469 71.28125 35.816406 C 71.167969 35.746094 71.097656 35.738281 68.886719 35.746094 C 67.625 35.746094 66.570312 35.761719 66.53125 35.777344 Z M 66.53125 35.777344 "/>
<path style=" stroke:none;fill-rule:nonzero;fill:rgb(0%,0%,0%);fill-opacity:1;" d="M 106.789062 35.800781 C 106.742188 35.808594 106.667969 35.867188 106.613281 35.929688 L 106.523438 36.042969 L 106.53125 41.972656 C 106.53125 48.292969 106.53125 48.230469 106.710938 49.09375 C 107.101562 50.960938 108.09375 52.109375 109.773438 52.660156 C 111.074219 53.078125 113.003906 53.15625 114.484375 52.851562 C 115.488281 52.636719 116.820312 52.109375 117.683594 51.578125 C 118.003906 51.386719 117.980469 51.355469 118.066406 51.945312 C 118.117188 52.300781 118.140625 52.371094 118.230469 52.460938 L 118.339844 52.578125 L 119.539062 52.570312 C 121.6875 52.5625 121.46875 52.570312 121.589844 52.445312 L 121.695312 52.339844 L 121.695312 36.035156 L 121.589844 35.921875 L 121.484375 35.792969 L 119.183594 35.785156 C 116.613281 35.777344 116.675781 35.769531 116.574219 36.015625 C 116.523438 36.128906 116.515625 36.945312 116.515625 42.011719 L 116.515625 47.890625 L 116.257812 48.042969 C 115.753906 48.339844 115.054688 48.574219 114.410156 48.671875 C 114.226562 48.695312 113.910156 48.703125 113.628906 48.6875 C 112.578125 48.652344 112.121094 48.332031 111.863281 47.460938 C 111.804688 47.257812 111.796875 46.90625 111.773438 41.644531 C 111.757812 37.089844 111.75 36.042969 111.710938 35.96875 C 111.597656 35.777344 111.589844 35.777344 109.144531 35.785156 C 107.890625 35.785156 106.835938 35.792969 106.789062 35.800781 Z M 106.789062 35.800781 "/>
<path style=" stroke:none;fill-rule:nonzero;fill:rgb(0%,0%,0%);fill-opacity:1;" d="M 8.746094 48.203125 C 8.625 48.347656 8.914062 48.597656 9.117188 48.519531 C 9.316406 48.445312 9.195312 48.195312 8.9375 48.15625 C 8.828125 48.148438 8.785156 48.15625 8.746094 48.203125 Z M 8.746094 48.203125 "/>
<path style=" stroke:none;fill-rule:nonzero;fill:rgb(0%,0%,0%);fill-opacity:1;" d="M 9.648438 48.847656 C 9.535156 49.078125 9.929688 49.453125 10.105469 49.277344 C 10.265625 49.117188 10.066406 48.78125 9.808594 48.78125 C 9.726562 48.78125 9.679688 48.804688 9.648438 48.847656 Z M 9.648438 48.847656 "/>
<path style=" stroke:none;fill-rule:nonzero;fill:rgb(0%,0%,0%);fill-opacity:1;" d="M 10.289062 49.792969 C 10.121094 50.054688 10.539062 50.511719 10.746094 50.3125 C 10.875 50.199219 10.828125 49.960938 10.652344 49.792969 C 10.523438 49.671875 10.363281 49.671875 10.289062 49.792969 Z M 10.289062 49.792969 "/>
<path style=" stroke:none;fill-rule:nonzero;fill:rgb(0%,0%,0%);fill-opacity:1;" d="M 11.269531 50.984375 C 11.164062 51.058594 11.148438 51.160156 11.222656 51.320312 C 11.328125 51.5625 11.585938 51.683594 11.746094 51.578125 C 11.945312 51.449219 11.808594 51.097656 11.527344 50.976562 C 11.375 50.914062 11.367188 50.914062 11.269531 50.984375 Z M 11.269531 50.984375 "/>
<path style=" stroke:none;fill-rule:nonzero;fill:rgb(0%,0%,0%);fill-opacity:1;" d="M 14.300781 51.875 C 14.101562 51.914062 14.058594 51.9375 13.996094 51.996094 C 13.785156 52.210938 14.101562 52.5 14.4375 52.402344 C 14.574219 52.371094 14.726562 52.234375 14.726562 52.148438 C 14.71875 52.011719 14.46875 51.84375 14.300781 51.875 Z M 14.300781 51.875 "/>
<path style=" stroke:none;fill-rule:nonzero;fill:rgb(0%,0%,0%);fill-opacity:1;" d="M 15.820312 51.890625 C 15.457031 51.957031 15.332031 52.25 15.605469 52.394531 C 15.8125 52.5 16.175781 52.378906 16.230469 52.1875 C 16.277344 52.003906 16.054688 51.84375 15.820312 51.890625 Z M 15.820312 51.890625 "/>
</g>
</svg>
