<svg width="302" height="162" viewBox="0 0 302 162" fill="none" xmlns="http://www.w3.org/2000/svg">
<path d="M2.09406 65.6639C2.06946 65.3793 2.04471 65.0949 2.01982 64.8106C1.23333 55.8276 0.184515 29.1555 2.01982 21.2722C6.85508 0.503235 21.5294 10.6226 28.8472 10.6226C34.2318 10.6226 39.4334 12.5141 44.7118 13.4416C51.6738 14.6649 61.6416 15.1393 67.9741 6.23742C71.1314 1.799 77.6248 2.37105 81.0758 2.16549C84.1933 1.9798 87.3161 2.16549 90.4342 2.16549C97.3267 2.16549 104.899 -0.834619 111.736 2.79194C115.85 4.97443 119.901 3.95065 124.035 5.61097C126.558 6.62413 128.994 7.39975 131.522 7.80355C133.539 8.12578 134.999 13.0591 136.959 13.4416C136.961 13.442 136.963 13.4425 136.965 13.4429C137.379 13.442 137.793 13.4416 138.206 13.4416H167.529H177.244C180.328 13.4416 182.617 7.80355 185.444 7.80355C197.049 7.80355 208.483 6.03991 220.026 5.30257C225.245 3.09283 230.564 2.16549 235.623 2.16549C238.959 2.16549 242.158 4.98452 245.427 4.98452C247.133 4.98452 248.732 6.24403 250.299 7.79411C250.546 7.80033 250.794 7.80355 251.042 7.80355C255.618 7.80355 259.539 14.5621 264.322 13.4416C265.929 13.065 266.965 8.07897 268.689 7.80355C269.872 7.61452 271.066 7.70563 272.256 7.76551C273.663 6.23067 275.111 5.08145 276.71 4.98452C281.4 4.70036 286.188 2.16549 290.525 2.16549C291.624 2.16549 292.463 4.19875 293.1 7.36651C296.159 7.68187 298.19 10.9243 298.19 27.3801C298.19 53.9572 299.735 82.2042 298.621 108.703C299.169 113.039 300.051 117.411 300.507 121.818C302.641 142.434 297.391 148.325 293.466 154.236C288.977 160.998 282.32 157.212 277.423 157.212H267.708C264.586 157.212 262.054 154.062 259.328 151.574H250.863C245.951 151.574 241.38 148.856 236.783 146.501C233.656 146.919 230.568 147.765 227.601 149.068C223.538 150.853 218.757 154.727 214.767 158.622C209.836 163.435 204.478 158.612 199.526 157.369C181.052 152.731 162.61 157.212 144.044 157.212C140.841 157.212 137.372 158.499 134.24 155.646C131.484 153.135 129.099 147.555 126.219 146.249C126.141 146.214 126.063 146.18 125.985 146.148C123.466 147.021 120.968 148.755 118.42 148.755C110.572 148.755 103.795 152.103 96.1383 154.55C89.3768 156.71 82.5804 157.117 75.74 157.194C70.8311 157.669 65.8889 157.212 60.8884 157.212C52.7512 157.212 44.7952 160.031 36.7349 160.031C25.5569 160.031 14.1662 162.211 3.00022 160.031C1.57193 159.752 1.88984 98.1913 2.09406 65.6639Z" fill="white"/>
<path d="M6.2088 131.841C4.95505 108.709 3.91523 86.4593 2.01982 64.8106C1.23333 55.8276 0.184515 29.1555 2.01982 21.2722C6.85508 0.503235 21.5294 10.6226 28.8472 10.6226C34.2318 10.6226 39.4334 12.5141 44.7118 13.4416C51.6738 14.6649 61.6416 15.1393 67.9741 6.23742C71.1314 1.799 77.6248 2.37105 81.0758 2.16549C84.1933 1.9798 87.3161 2.16549 90.4342 2.16549C97.3267 2.16549 104.899 -0.834619 111.736 2.79194C115.85 4.97443 119.901 3.95065 124.035 5.61097C126.558 6.62413 128.994 7.39975 131.522 7.80355C133.539 8.12578 135 13.0591 136.959 13.4416C145.816 15.171 154.732 19.0797 163.608 19.0797C172.498 19.0797 181.53 16.2606 190.524 16.2606C196.515 16.2606 202.556 18.0505 208.35 12.8152C216.929 5.062 226.682 2.16549 235.623 2.16549C238.959 2.16549 242.158 4.98452 245.427 4.98452C249.653 4.98452 253.216 12.7091 257.281 13.4416C260.649 14.0487 263.619 17.2773 266.906 14.0681C270.259 10.795 273.096 5.20354 276.71 4.98452C281.4 4.70036 286.188 2.16549 290.525 2.16549C294.233 2.16549 294.981 25.3198 294.981 37.0901C294.981 54.1145 295.685 66.7573 297.299 82.3512C298.003 89.1601 297.788 97.6906 298.235 104.747C298.591 110.375 299.912 116.068 300.507 121.818C302.641 142.434 297.391 148.325 293.466 154.236C288.977 160.998 282.32 157.212 277.423 157.212C274.185 157.212 270.947 157.212 267.709 157.212C263.271 157.212 260.025 150.848 255.721 149.068C246.766 145.366 236.621 145.106 227.601 149.068C223.538 150.853 218.757 154.727 214.767 158.622C209.836 163.435 204.478 158.612 199.526 157.369C181.052 152.731 162.61 157.212 144.044 157.212C140.841 157.212 137.372 158.499 134.24 155.646C131.484 153.135 129.099 147.555 126.219 146.249C121.161 143.955 115.972 148.068 110.933 144.526C103.814 139.522 96.8676 146.798 89.9885 151.887C80.3879 158.99 70.7515 157.212 60.8884 157.212C52.7512 157.212 44.7953 160.031 36.7349 160.031C25.5569 160.031 14.1662 162.211 3.00022 160.031C1.17796 159.675 2.19807 59.568 2.19807 47.2699C2.19807 30.778 7.81588 21.8987 12.0021 21.8987C16.4051 21.8987 20.3022 16.2606 24.6582 16.2606C29.1442 16.2606 33.6303 16.2606 38.1164 16.2606C71.4779 16.2606 104.924 13.4416 138.206 13.4416C147.981 13.4416 157.755 13.4416 167.529 13.4416C170.768 13.4416 174.006 13.4416 177.244 13.4416C180.328 13.4416 182.617 7.80355 185.444 7.80355C200.117 7.80355 214.514 4.98452 229.205 4.98452C236.567 4.98452 243.709 7.80355 251.042 7.80355C255.618 7.80355 259.539 14.5621 264.322 13.4416C265.929 13.065 266.965 8.07897 268.689 7.80355C270.286 7.54844 271.902 7.80355 273.502 7.80355C278.255 7.80355 283.009 7.80355 287.762 7.80355C293.566 7.80355 298.19 2.55026 298.19 27.3801C298.19 60.3436 300.566 95.8758 297.299 127.456C296.033 139.684 293.815 151.574 289.812 151.574C284.167 151.574 278.523 151.574 272.878 151.574C265.54 151.574 258.202 151.574 250.863 151.574C242.199 151.574 234.596 143.117 226.041 143.117C219.179 143.117 212.316 143.117 205.453 143.117C201.016 143.117 196.737 140.298 192.307 140.298C187.251 140.298 182.177 143.117 177.066 143.117C172.156 143.117 167.406 148.755 162.494 148.755C157.154 148.755 152.185 154.393 147.03 154.393C141.466 154.393 136.315 149.046 130.943 146.249C126.69 144.035 122.622 148.755 118.42 148.755C110.572 148.755 103.795 152.103 96.1383 154.55C87.8335 157.203 79.476 157.212 71.049 157.212C54.0513 157.212 37.2098 154.393 20.2018 154.393C14.0849 154.393 8.94 146.413 3.04478 142.96C1.34863 141.967 2.19807 104.878 2.19807 98.0125" stroke="black" stroke-width="2" stroke-linecap="round"/>
</svg>
