<svg width="48" height="58" viewBox="0 0 48 58" fill="none" xmlns="http://www.w3.org/2000/svg">
<path d="M20.9305 44.8939C19.8785 39.9494 15.917 36.8462 13.7246 32.5528C12.6461 30.441 13.0604 28.6294 13.5233 26.3608C14.3291 22.4116 17.4437 20.4524 20.4273 18.5777C23.5551 16.6125 27.6855 17.0962 30.9947 17.8897C34.8609 18.8168 35.6724 22.5459 35.4028 26.1458C35.2738 27.8674 34.9131 29.7089 34.0542 31.1768C33.0851 32.8329 33.2278 34.9165 32.1621 36.6808C31.362 38.0055 31.0497 39.503 29.9882 40.6368C29.5277 41.1288 28.539 41.6859 28.539 42.3998C28.539 44.3168 24.1729 43.7076 22.9433 43.7329C21.9747 43.7528 20.2059 43.6981 20.2059 45.0659C20.2059 46.1161 21.8699 45.6679 22.581 45.6679C24.7701 45.6679 26.5525 46.4419 28.7403 46.4419C29.1139 46.4419 30.2371 46.2385 29.8272 45.5819C29.2228 44.6135 28.0303 44.8939 27.0898 44.8939C24.3578 44.8939 22.6735 45.046 20.3669 46.6139C17.7721 48.3776 22.4516 48.7639 23.829 48.7639C24.8908 48.7639 26.0378 48.9029 27.0898 48.7424C27.6016 48.6643 29.6754 47.7719 28.1566 47.6244C26.1207 47.4267 22.0519 46.9123 20.2864 47.9899C19.5536 48.4372 19.3368 48.743 19.5014 49.7099C19.6685 50.6915 21.3993 50.3119 22.0376 50.3119C23.1311 50.3119 27.8144 51.0472 27.8144 49.5379" stroke="black" stroke-width="1.5" stroke-linecap="round"/>
<path d="M20.7641 44.5723C19.7781 42.2376 18.6828 39.7611 17.9288 37.3564C17.3989 35.6664 15.9263 34.2422 15.1724 32.6525C13.751 29.6552 12.5558 26.9132 13.2428 23.4272C13.8006 20.5968 16.0368 19.2943 17.8501 17.3531C20.0647 14.9823 22.2022 14.9783 25.2138 14.9783C26.9333 14.9783 29.6665 18.7843 30.6677 20.139C31.0984 20.7217 30.939 21.5583 31.5537 21.9657C32.2174 22.4056 32.4171 22.727 32.4594 23.6099C32.5174 24.8207 32.8138 26.1524 32.8138 27.5146C32.8138 31.379 31.9184 33.3826 29.8014 36.3289C28.259 38.4755 28.2066 41.8686 28.2066 44.5723" stroke="black" stroke-width="1.5" stroke-linecap="round"/>
<path d="M28.1046 43.9582C28.1046 41.6655 28.0624 39.3893 28.7942 37.258C29.3915 35.5185 30.5724 34.3593 31.1241 32.4655C31.5548 30.9872 32.3525 29.6599 32.988 28.371C33.4775 27.3781 33.4726 25.1538 33.4726 23.9508C33.4726 17.5268 27.3821 14.4963 23.2398 15.0405C21.8324 15.2254 21.2305 15.8719 20.0525 16.6457C19.4039 17.0718 17.4252 18.4796 17.1076 19.3444C16.6591 20.5658 16.0182 20.96 15.6537 22.4386C15.1685 24.4068 15.02 25.7242 15.02 27.8359C15.02 29.0976 16.4325 30.5784 17.1076 31.4884C18.3319 33.1389 19.3132 35.0752 19.7916 37.165C20.4386 39.9914 21.059 43.2001 21.059 46.052" stroke="black" stroke-width="1.5" stroke-linecap="round"/>
<path d="M22.2693 7.41088C22.2693 5.69305 22.2693 3.97523 22.2693 2.2574C22.2693 0.731698 22.7625 5.61854 22.9283 6.19704C23.4857 8.14212 23.148 8.03505 23.148 5.87761C23.148 4.46777 22.871 2.91102 23.5873 1.66113" stroke="black" stroke-width="1.5" stroke-linecap="round"/>
<path d="M32.4219 9.05953C32.6181 7.78894 32.8292 6.56398 33.073 5.33716C33.1602 4.89849 33.6111 3.8693 33.4301 4.1349C32.8498 4.9866 32.7026 6.32826 32.4219 7.62607C31.9798 9.66977 32.1736 9.07477 32.3799 7.39486C32.5863 5.71351 32.8359 4.08616 32.989 2.40088" stroke="black" stroke-width="1.5" stroke-linecap="round"/>
<path d="M38.0859 14.6213C39.7513 13.5402 45.6678 12.019 43.5742 12.019C42.5261 12.019 40.6591 13.7134 39.6131 14.052C37.1274 14.8568 37.9727 15.4044 40.0426 14.5399C41.0702 14.1108 43.2166 12.8315 43.6696 12.0597" stroke="black" stroke-width="1.5" stroke-linecap="round"/>
<path d="M39.4041 25.3362C41.8773 25.3362 49.2873 25.3362 46.814 25.3362C44.9697 25.3362 41.447 25.3362 40.1706 25.3362" stroke="black" stroke-width="1.5" stroke-linecap="round"/>
<path d="M12.2977 11.1063C11.4795 10.0187 10.6981 7.99556 9.39925 7.60644C8.47694 7.33013 9.87819 9.29221 10.1446 9.51143C12.0261 11.06 12.4651 11.0253 13.043 13.4986" stroke="black" stroke-width="1.5" stroke-linecap="round"/>
<path d="M7.77087 21.3425C5.6813 21.3425 -0.445432 20.7452 1.58859 20.9338C4.03543 21.1606 5.6286 20.9398 7.39744 21.6368" stroke="black" stroke-width="1.5" stroke-linecap="round"/>
<path d="M4.77046 35.4313C6.61442 35.3732 7.4878 35.0059 8.97258 34.2598C9.61537 33.9368 7.4021 35.437 6.97351 35.5953C5.74554 36.0486 4.98353 36.26 3.89332 37.0948C3.60019 37.3192 4.22991 37.0713 4.40328 36.2747" stroke="black" stroke-width="1.5" stroke-linecap="round"/>
<path d="M36.7681 36.6152C37.9332 36.8521 38.8919 37.2143 39.9641 37.522C40.1688 37.5808 41.2087 38.0968 40.4472 37.8445C39.1793 37.4243 38.1817 36.6894 36.7681 36.4338" stroke="black" stroke-width="1.5" stroke-linecap="round"/>
<path d="M21.3516 54.0164C22.3019 55.8526 23.3894 57.1498 25.7561 57.1498C27.8336 57.1498 28.559 55.9926 28.559 54.2098C28.559 52.5969 25.866 52.9719 24.6439 52.9719C23.5168 52.9719 22.3897 52.9719 21.2626 52.9719C20.9508 52.9719 22.6212 53.64 23.0422 53.6682C24.4182 53.7602 27.3912 53.5392 28.4033 52.9525C29.4536 52.3437 29.9108 52.9773 29.1151 53.8229C28.8867 54.0657 27.9957 55.723 27.9361 55.7378C26.2159 56.1652 24.9629 56.5203 23.0422 56.4535C22.5416 56.4361 22.1848 55.3186 21.5295 54.9835C21.0742 54.7506 20.9512 53.7167 20.9512 53.32" stroke="black" stroke-width="1.5" stroke-linecap="round"/>
</svg>
