<svg width="1119" height="12" viewBox="0 0 1119 12" fill="none" xmlns="http://www.w3.org/2000/svg">
<path d="M747.46 2.52903H863.525C914.111 2.48602 956.134 2.47467 983.882 2.47751C1025.54 2.36138 1069.97 2.18691 1107.82 3.54839C1128.59 4.29588 1113.39 4.05807 1099.29 4.05807C1047.02 4.05807 994.739 4.11623 942.536 3.83154C898.566 3.59176 854.744 3.2949 810.984 2.98448C740.964 3.38622 670.983 3.9914 601.483 4.53943C535.503 5.05971 469.712 5.41752 403.892 5.70901C327.477 6.04742 251.022 6.29643 174.183 6.60646C166.461 6.63761 158.724 6.66657 150.979 6.69604C119.652 7.21365 88.2675 7.62581 57.7654 7.62581C52.2391 7.62581 26.9312 7.63065 29.235 7.5975C69.3593 7.02008 110.286 6.8509 150.979 6.69604C183.729 6.15493 216.417 5.49857 247.968 5.07742C262.545 4.88286 278.942 4.70255 296.829 4.53549C231.45 3.84815 165.979 3.21469 100.397 2.6423C90.0504 2.55199 73.0806 2.32747 56.0666 2.10508C52.3715 2.08806 48.6747 2.06896 44.9759 2.04767C33.4529 1.98134 17.5378 2.29471 6.60741 1.90609C-12.8041 1.21594 21.7213 1.65616 56.0666 2.10508C176.625 2.6603 295.274 1 416.527 1C527.611 1 637.469 1.74072 747.46 2.52903Z" fill="black"/>
<path d="M151.555 2.52903C424.944 2.52903 698.333 2.52903 971.722 2.52903C1213.17 2.52903 486.586 1.89237 247.968 5.07742C186.236 5.90142 120.155 7.62581 57.7654 7.62581C52.2391 7.62581 26.9312 7.63065 29.235 7.5975C76.9963 6.91018 125.894 6.80129 174.183 6.60646C317.209 6.02938 458.903 5.66372 601.483 4.53943C718.66 3.61545 837.202 2.52903 954.998 2.52903C1004.23 2.52903 1061.05 1.8659 1107.82 3.54839C1128.59 4.29588 1113.39 4.05807 1099.29 4.05807C1047.02 4.05807 994.739 4.11623 942.536 3.83154C766.655 2.87241 593.141 1 416.527 1C291.558 1 169.355 2.76363 44.9759 2.04767C33.4529 1.98134 17.5378 2.29471 6.60741 1.90609C-22.4202 0.874058 69.1641 2.3697 100.397 2.6423C317.175 4.53433 532.742 7.09345 747.742 10.0609C867.335 11.7116 984.078 10.6839 1101.91 10.6839" stroke="black" stroke-linecap="round"/>
</svg>
