<svg width="42" height="40" viewBox="0 0 42 40" fill="none" xmlns="http://www.w3.org/2000/svg">
<path d="M20.8619 30.2774C18.7904 30.2774 16.7653 29.6748 15.0429 28.5457C13.3205 27.4166 11.978 25.8118 11.1852 23.9342C10.3925 22.0566 10.1851 19.9906 10.5892 17.9974C10.9933 16.0041 11.9909 14.1732 13.4557 12.7361C14.9205 11.2991 16.7868 10.3205 18.8186 9.92398C20.8503 9.5275 22.9563 9.73098 24.8702 10.5087C26.784 11.2864 28.4198 12.6035 29.5707 14.2933C30.7216 15.983 31.3359 17.9697 31.3359 20.002C31.3327 22.7262 30.2282 25.338 28.2646 27.2643C26.301 29.1907 23.6388 30.2743 20.8619 30.2774ZM20.8619 13.1477C19.4801 13.1477 18.1293 13.5497 16.9803 14.3029C15.8314 15.056 14.9359 16.1265 14.407 17.379C13.8782 18.6314 13.7399 20.0096 14.0095 21.3392C14.279 22.6688 14.9445 23.8901 15.9216 24.8487C16.8987 25.8073 18.1436 26.4601 19.4989 26.7246C20.8542 26.9891 22.259 26.8533 23.5356 26.3345C24.8123 25.8157 25.9035 24.9372 26.6712 23.81C27.4389 22.6828 27.8487 21.3576 27.8487 20.002C27.8466 18.1847 27.1099 16.4425 25.8001 15.1575C24.4902 13.8725 22.7143 13.1497 20.8619 13.1477Z" fill="black"/>
<path d="M30.6035 40H11.1205C8.29998 39.9957 5.59616 38.8948 3.6013 36.9387C1.60644 34.9825 0.483177 32.3304 0.477539 29.5634V10.4411C0.481969 7.67327 1.6047 5.02006 3.59969 3.06292C5.59468 1.10578 8.29919 0.00434601 11.1205 0H30.6035C33.4248 0.00434601 36.1293 1.10578 38.1243 3.06292C40.1193 5.02006 41.242 7.67327 41.2465 10.4411V29.5634C41.2408 32.3304 40.1176 34.9825 38.1227 36.9387C36.1279 38.8948 33.424 39.9957 30.6035 40ZM11.1205 3.41961C9.22231 3.41961 7.40183 4.15937 6.05959 5.47615C4.71734 6.79294 3.96328 8.57887 3.96328 10.4411V29.5634C3.96328 31.4256 4.71734 33.2116 6.05959 34.5283C7.40183 35.8451 9.22231 36.5849 11.1205 36.5849H30.6035C32.5017 36.5849 34.3222 35.8451 35.6644 34.5283C37.0067 33.2116 37.7607 31.4256 37.7607 29.5634V10.4411C37.7607 8.57887 37.0067 6.79294 35.6644 5.47615C34.3222 4.15937 32.5017 3.41961 30.6035 3.41961H11.1205Z" fill="black"/>
<path d="M32.5589 11.4453C33.7853 10.9413 34.363 9.5574 33.8492 8.3543C33.3355 7.1512 31.9248 6.58447 30.6984 7.08848C29.472 7.59249 28.8943 8.97637 29.408 10.1795C29.9218 11.3826 31.3325 11.9493 32.5589 11.4453Z" fill="black"/>
</svg>
