<svg width="44" height="49" viewBox="0 0 44 49" fill="none" xmlns="http://www.w3.org/2000/svg">
<path d="M19.4108 37.6438C18.4302 33.4657 14.7379 30.8435 12.6945 27.2155C11.6893 25.431 12.0754 23.9002 12.5068 21.9832C13.2579 18.6461 16.1609 16.9906 18.9418 15.4065C21.857 13.7458 25.7068 14.1546 28.7911 14.8251C32.3947 15.6085 33.151 18.7596 32.8997 21.8015C32.7795 23.2563 32.4433 24.8124 31.6427 26.0528C30.7395 27.4522 30.8725 29.2129 29.8792 30.7037C29.1335 31.8231 28.8425 33.0885 27.8531 34.0466C27.4238 34.4623 26.5023 34.9331 26.5023 35.5363C26.5023 37.1562 22.4328 36.6414 21.2868 36.6627C20.3841 36.6796 18.7354 36.6333 18.7354 37.7891C18.7354 38.6766 20.2864 38.2978 20.9492 38.2978C22.9895 38.2978 24.6508 38.9519 26.6899 38.9519C27.0381 38.9519 28.085 38.7801 27.703 38.2252C27.1397 37.4069 26.0282 37.6438 25.1515 37.6438C22.6052 37.6438 21.0353 37.7724 18.8855 39.0972C16.467 40.5876 20.8285 40.914 22.1123 40.914C23.102 40.914 24.171 41.0315 25.1515 40.8958C25.6286 40.8298 27.5615 40.0757 26.1459 39.9511C24.2483 39.7841 20.456 39.3494 18.8104 40.26C18.1274 40.6379 17.9254 40.8964 18.0788 41.7134C18.2345 42.5429 19.8477 42.2221 20.4426 42.2221C21.4619 42.2221 25.8269 42.8435 25.8269 41.568" stroke="black" stroke-width="1.5" stroke-linecap="round"/>
<path d="M19.2557 37.372C18.3367 35.3992 17.3158 33.3065 16.6131 31.2745C16.1192 29.8465 14.7466 28.643 14.0439 27.2996C12.7191 24.7669 11.6051 22.4499 12.2454 19.5042C12.7654 17.1125 14.8496 16.0119 16.5397 14.3716C18.6038 12.3682 20.5961 12.3648 23.4031 12.3648C25.0057 12.3648 27.5532 15.5809 28.4864 16.7256C28.8878 17.218 28.7392 17.925 29.3122 18.2693C29.9308 18.641 30.1169 18.9125 30.1563 19.6586C30.2104 20.6817 30.4867 21.807 30.4867 22.9581C30.4867 26.2236 29.652 27.9166 27.6789 30.4062C26.2413 32.2201 26.1925 35.0873 26.1925 37.372" stroke="black" stroke-width="1.5" stroke-linecap="round"/>
<path d="M26.0976 36.853C26.0976 34.9157 26.0583 32.9923 26.7404 31.1914C27.2971 29.7215 28.3977 28.7419 28.912 27.1417C29.3134 25.8925 30.0569 24.7709 30.6492 23.6818C31.1055 22.8427 31.1009 20.9632 31.1009 19.9466C31.1009 14.5183 25.4243 11.9575 21.5634 12.4174C20.2516 12.5736 19.6907 13.1199 18.5927 13.7738C17.9882 14.1339 16.1439 15.3234 15.8479 16.0542C15.4298 17.0863 14.8325 17.4194 14.4928 18.6688C14.0406 20.332 13.9021 21.4452 13.9021 23.2296C13.9021 24.2957 15.2186 25.547 15.8479 26.316C16.989 27.7107 17.9036 29.3469 18.3495 31.1127C18.9525 33.5011 19.5308 36.2124 19.5308 38.6223" stroke="black" stroke-width="1.5" stroke-linecap="round"/>
<path d="M20.6588 5.97016C20.6588 4.51858 20.6588 3.067 20.6588 1.61543C20.6588 0.326192 21.1185 4.45561 21.273 4.94445C21.7925 6.58806 21.4778 6.49759 21.4778 4.67453C21.4778 3.4832 21.2196 2.16774 21.8873 1.11157" stroke="black" stroke-width="1.5" stroke-linecap="round"/>
<path d="M30.1216 7.36337C30.3045 6.28971 30.5013 5.25461 30.7285 4.21793C30.8098 3.84726 31.23 2.97759 31.0613 3.20202C30.5204 3.92171 30.3832 5.05542 30.1216 6.15208C29.7095 7.87903 29.8902 7.37625 30.0824 5.95671C30.2748 4.53595 30.5075 3.16083 30.6502 1.73676" stroke="black" stroke-width="1.5" stroke-linecap="round"/>
<path d="M35.4006 12.063C36.9528 11.1495 42.4673 9.86407 40.5159 9.86407C39.5391 9.86407 37.799 11.2958 36.824 11.582C34.5072 12.262 35.295 12.7248 37.2243 11.9943C38.1821 11.6316 40.1827 10.5506 40.6049 9.89843" stroke="black" stroke-width="1.5" stroke-linecap="round"/>
<path d="M36.629 21.1173C38.9343 21.1173 45.8407 21.1173 43.5355 21.1173C41.8166 21.1173 38.5331 21.1173 37.3435 21.1173" stroke="black" stroke-width="1.5" stroke-linecap="round"/>
<path d="M11.3647 9.09291C10.6022 8.17389 9.87385 6.4643 8.66322 6.13549C7.80358 5.902 9.10963 7.55997 9.35789 7.74522C11.1116 9.05377 11.5207 9.02449 12.0594 11.1144" stroke="black" stroke-width="1.5" stroke-linecap="round"/>
<path d="M7.14547 17.7427C5.19789 17.7427 -0.512556 17.238 1.38326 17.3973C3.66384 17.5891 5.14877 17.4024 6.79742 17.9914" stroke="black" stroke-width="1.5" stroke-linecap="round"/>
<path d="M4.34897 29.6478C6.06764 29.5987 6.88168 29.2883 8.26557 28.6579C8.86469 28.3849 6.8018 29.6527 6.40233 29.7864C5.2578 30.1695 4.54756 30.348 3.53143 31.0535C3.25821 31.2431 3.84514 31.0336 4.00674 30.3605" stroke="black" stroke-width="1.5" stroke-linecap="round"/>
<path d="M34.1721 30.6483C35.2581 30.8485 36.1517 31.1545 37.151 31.4145C37.3418 31.4642 38.3111 31.9002 37.6013 31.687C36.4195 31.332 35.4898 30.7109 34.1721 30.495" stroke="black" stroke-width="1.5" stroke-linecap="round"/>
<path d="M19.8036 45.3523C20.6893 46.9039 21.7029 48.0001 23.9088 48.0001C25.8451 48.0001 26.5213 47.0222 26.5213 45.5157C26.5213 44.1529 24.0112 44.4697 22.8721 44.4697C21.8216 44.4697 20.7711 44.4697 19.7206 44.4697C19.43 44.4697 20.9869 45.0343 21.3793 45.0581C22.6618 45.1358 25.4328 44.9491 26.3761 44.4533C27.355 43.9389 27.7812 44.4743 27.0396 45.1888C26.8266 45.394 25.9962 46.7944 25.9407 46.8069C24.3374 47.168 23.1695 47.4681 21.3793 47.4117C20.9128 47.3969 20.5801 46.4527 19.9694 46.1695C19.545 45.9727 19.4304 45.0991 19.4304 44.7639" stroke="black" stroke-width="1.5" stroke-linecap="round"/>
</svg>
