<?xml version="1.0" standalone="no"?>
<!DOCTYPE svg PUBLIC "-//W3C//DTD SVG 20010904//EN"
 "http://www.w3.org/TR/2001/REC-SVG-20010904/DTD/svg10.dtd">
<svg version="1.0" xmlns="http://www.w3.org/2000/svg"
 width="128.000000pt" height="128.000000pt" viewBox="0 0 128.000000 128.000000"
 preserveAspectRatio="xMidYMid meet">

<g transform="translate(0.000000,128.000000) scale(0.100000,-0.100000)"
fill="#000000" stroke="none">
<path d="M310 1124 c-41 -18 -96 -68 -116 -106 -27 -51 -18 -86 41 -165 31
-40 58 -80 61 -88 3 -7 -9 -35 -26 -60 -30 -44 -100 -185 -100 -201 0 -5 27
37 60 92 83 138 86 142 106 122 14 -14 13 -20 -14 -69 -76 -136 -98 -299 -53
-392 41 -85 119 -124 227 -114 256 24 554 323 611 614 32 162 -28 278 -161
314 -90 25 -256 -6 -364 -66 -24 -14 -46 -25 -47 -25 -2 0 -27 32 -55 70 -71
96 -96 106 -170 74z m92 -29 c-1 -5 -14 -13 -28 -17 -45 -12 -104 -60 -131
-106 -22 -36 -28 -41 -35 -28 -7 12 -3 30 12 61 28 58 100 107 150 103 19 -2
34 -7 32 -13z m577 -88 c152 -78 129 -347 -48 -570 -147 -185 -381 -288 -526
-233 -112 43 -152 166 -104 322 21 68 57 144 68 144 3 0 29 -32 56 -70 l50
-69 135 -56 c74 -30 141 -55 148 -55 9 0 11 10 7 33 -3 17 -14 87 -25 155
l-19 122 -61 80 -61 80 46 20 c97 42 209 43 263 3 52 -39 67 -70 67 -137 0
-85 -45 -174 -134 -269 -36 -38 -57 -65 -45 -59 41 22 138 138 168 202 26 55
31 77 31 142 0 83 -12 110 -69 152 -23 18 -42 21 -114 20 -71 0 -99 -5 -156
-28 -66 -27 -70 -28 -83 -10 -7 10 -13 21 -13 25 0 13 144 70 210 83 56 10
164 -3 209 -27z m-385 -153 c74 -99 106 -148 99 -155 -16 -16 -85 -22 -115
-10 -24 9 -203 231 -210 261 -4 16 60 50 92 50 21 0 44 -25 134 -146z m-146
-40 c80 -109 92 -131 92 -165 0 -39 -23 -99 -38 -99 -9 0 -222 283 -222 295 0
18 52 95 63 95 7 0 54 -57 105 -126z m257 -159 c3 -11 8 -42 13 -70 7 -47 6
-52 -21 -77 l-29 -28 -74 31 -74 31 17 31 c8 17 16 47 17 67 l1 35 73 0 c65 0
73 -2 77 -20z"/>
</g>
</svg>
