<svg width="32" height="32" viewBox="0 0 32 32" fill="none" xmlns="http://www.w3.org/2000/svg">
<path d="M13.3018 23.5915C12.8323 23.2211 12.3053 22.8508 11.7124 22.4754C9.15624 20.8572 6.83732 19.308 4.81846 17.4794C3.21706 16.0289 2.89945 14.493 1.80624 12.9451C0.318959 10.8392 1.00337 9.15209 2.92675 7.83502C3.19091 6.53932 4.97663 5.34396 7.04908 4.32419C9.36707 2.51056 12.6332 0.705645 15.4699 1.04035C15.8372 1.08369 16.1985 1.13133 16.5541 1.18324C20.9928 0.787451 25.1028 2.19684 28.6057 4.18966C32.074 6.16272 30.9206 8.30007 30.3448 10.6697C29.892 12.5326 29.0584 14.3277 27.9369 16.0801C27.5126 16.8483 26.9696 17.5864 26.3457 18.3092C25.7385 19.0826 25.0813 19.8495 24.3824 20.6122C22.7088 22.4389 20.5483 24.1942 19.1776 26.1044C18.9063 26.7536 18.5966 27.4017 18.1665 27.9381C18.1467 27.9913 18.1277 28.0446 18.1095 28.098C17.657 29.4304 17.1771 30.1264 16.9711 29.4957C16.9179 29.5824 16.866 29.6674 16.8169 29.748C16.4854 30.2922 16.2773 30.6374 16.5879 29.9447C16.6347 29.8403 16.6821 29.7366 16.7302 29.6334C15.913 28.5247 15.4624 27.083 15.1905 26.4492C14.7507 25.4244 14.0183 24.5121 13.3018 23.5915Z" fill="#C4C4C4"/>
<path d="M16.8674 28.9224C16.1973 26.3875 14.9173 24.5043 11.7124 22.4754C9.15624 20.8572 6.83732 19.308 4.81846 17.4794C3.21706 16.0289 2.89945 14.493 1.80624 12.9451C-2.91372 6.26205 14.2384 3.79614 23.4508 3.9918C25.3973 4.03314 26.4247 5.93252 26.6493 6.69592C27.5634 9.80197 27.0222 13.243 24.724 16.1274C22.7192 18.6434 21.6207 21.3951 20.097 24.0089C19.3749 25.2475 18.9987 27.2643 17.7369 28.3948C17.3061 28.7808 15.9918 31.274 16.5879 29.9447C17.8907 27.0394 19.6497 24.6418 22.4881 22.0797C25.3432 19.5026 28.0108 17.068 28.73 14.0828C29.2615 11.8763 31.9121 9.10407 29.5995 6.89378C26.3785 3.81534 21.7993 1.78716 15.4699 1.04035C11.0813 0.522531 5.66479 5.12583 4.3216 6.95973C0.93874 11.5785 6.29731 16.5623 11.4019 20.3814C14.9776 23.0567 16.8674 25.0932 16.8674 28.4608C16.8674 30.5066 17.5123 29.8565 18.1095 28.098C19.0362 25.3696 22.1445 23.0547 24.3824 20.6122C27.3019 17.4259 29.4947 14.1674 30.3448 10.6697C30.9206 8.30007 32.074 6.16272 28.6057 4.18966C23.8585 1.48902 17.9966 -0.140141 11.7124 2.34295C8.40072 3.65153 2.89312 5.74814 2.89312 8.1634C2.89312 11.0844 3.799 13.3125 6.6817 15.8635C7.87732 16.9216 8.37512 18.013 9.35233 19.1118C10.1782 20.0404 11.4061 20.6768 11.9609 21.6675C12.8891 23.3253 14.4522 24.7287 15.1905 26.4492C15.6192 27.4482 16.4918 30.4551 18.5443 31" stroke="black" stroke-width="2" stroke-linecap="round"/>
<path d="M9.94236 8.88883C11.7443 6.86897 16.7096 6.78753 19.3025 8.07091C22.8393 9.59725 23.0192 14.0325 17.5507 14.0823C15.4276 14.4624 12.8287 14.2054 10.8119 13.0275C9.36767 12.184 8.97605 11.2389 9.30329 10.3731C9.29311 9.89436 9.49146 9.39425 9.94236 8.88883Z" fill="white"/>
<path d="M15.7494 9.03723C13.3466 9.31729 10.7187 9.52449 10.7187 10.9499C10.7187 12.3509 12.4807 13.274 14.8799 13.5056C17.055 13.7156 18.2332 13.9279 19.9728 12.8955C21.2647 12.1289 21.1503 9.50701 20.2212 8.67448C18.131 6.80166 11.9914 6.59195 9.94236 8.88883C7.55936 11.56 12.2304 14.0827 17.4574 14.0827C23.8011 14.0827 22.7014 8.26253 17.6127 7.61922C11.8628 6.89232 6.37905 10.4384 10.8119 13.0275C15.3499 15.6779 22.8353 13.6658 21.2149 10.2244C19.468 6.51421 11.2777 8.42709 11.2777 11.4116" stroke="black" stroke-width="2" stroke-linecap="round"/>
</svg>
