<svg width="49" height="40" viewBox="0 0 49 40" fill="none" xmlns="http://www.w3.org/2000/svg">
<path d="M27.8275 11.7952C25.3987 11.7952 22.9055 11.6378 20.4804 11.8178C18.1423 11.9914 14.6553 12.9129 12.6295 14.1457C9.89156 15.8117 7.8776 17.0933 5.78613 19.7053C4.32318 21.5324 3.45773 26.0479 3.72893 28.3838C4.09149 31.5065 7.18851 34.391 9.79556 35.3673C14.8506 37.2603 20.941 37.2497 26.2321 38.0567C33.3318 39.1395 39.4445 37.3203 41.808 29.559C42.5133 27.2432 43.3398 25.4625 42.7317 22.9372C41.9945 19.8759 40.3763 18.5751 38.3654 16.4509C34.5499 12.4206 30.1207 11.0286 24.8467 11.8856C22.3897 12.2849 19.5543 12.816 17.2686 13.8293C15.4237 14.6472 12.5954 15.665 11.286 17.3097C10.0315 18.8854 8.53226 20.1463 7.59142 21.9879C6.6007 23.9273 6.63878 25.5637 6.20596 27.6606C5.41238 31.5053 9.36094 36.0788 12.7974 36.9267C17.7812 38.1563 22.7722 38.6443 27.8695 38.6443C36.3637 38.6443 49.3991 29.0984 43.2355 18.8013C41.2485 15.4819 34.9371 13.0157 31.5221 13.0157C26.9467 13.0157 23.2656 13.1414 19.0529 15.1401C17.437 15.9067 15.9207 16.8532 14.2248 17.3097C12.9247 17.6596 10.7413 18.5356 9.77457 19.6149C6.86425 22.8643 6.65468 27.9969 7.42349 32.1354" stroke="black" stroke-width="1.5" stroke-linecap="round"/>
<path d="M10.8242 13.0156C8.29006 12.4018 6.77126 11.0769 4.02282 11.3884C1.90938 11.6279 1 14.8239 1 16.6769C1 19.0118 2.17421 20.5627 3.64497 22.1461C4.52679 23.0955 5.8945 23.3176 4.77852 21.6489C4.18577 20.7626 2.70159 20.2393 1.98661 19.2985C-1.59266 14.5886 7.41546 10.6507 10.5933 11.411C11.416 11.6079 11.9282 12.9089 12.5245 13.4224C14.0206 14.711 11.8721 12.1672 11.265 11.8404C9.56564 10.9256 7.08863 11.3884 5.15638 11.3884" stroke="black" stroke-width="1.5" stroke-linecap="round"/>
<path d="M37.2738 14.236C40.1918 11.856 44.5913 11.1306 47.3918 14.1456C48.251 15.0707 47.9985 17.8678 47.8326 19.1177C47.6196 20.7229 46.2686 21.7607 45.1247 22.5981C43.9447 23.462 45.2117 22.7304 45.5865 22.3269C46.2513 21.6112 46.7201 20.1359 46.7201 19.1177C46.7201 17.8258 47.1851 15.2192 46.1323 14.5524C45.515 14.1615 44.8613 13.3651 44.285 12.8574C43.7104 12.3512 41.6469 12.0593 40.8844 11.8404C39.3606 11.4029 37.7588 13.1614 36.5181 13.8292" stroke="black" stroke-width="1.5" stroke-linecap="round"/>
<path d="M30.395 2.24497C29.7004 2.24497 26.8478 1.82714 26.2252 2.46238C25.3541 3.35129 25.417 5.51124 25.1295 6.71729C24.8644 7.82968 24.3864 8.90216 24.1556 10.0094C23.9895 10.8057 24.1489 11.6408 23.699 12.3698C22.7642 13.8848 23.5997 11.2189 23.7599 10.6306C24.4593 8.06119 24.979 5.34661 25.9513 2.86613C26.1988 2.23477 29.136 2.80401 29.7863 2.80401C30.1365 2.80401 32.2767 2.80401 31.2168 2.80401" stroke="black" stroke-width="1.5" stroke-linecap="round"/>
<path d="M26.3769 2.7513C26.3209 4.72332 25.2619 6.5792 24.7296 8.48706C24.6517 8.76643 24.7605 10.3557 24.0961 10.3557C24.0271 10.3557 24.4011 6.67129 24.5237 6.22909C24.7273 5.49511 25.0463 4.0725 25.6641 3.46503C25.8844 3.24845 26.3014 2.44207 26.3927 2.18032C26.4642 1.97544 30.8218 2.28414 31.5087 2.28414" stroke="black" stroke-width="1.5" stroke-linecap="round"/>
<path d="M33.8732 1.1409C29.0169 2.44798 34.8502 7.04414 35.3636 3.17492C35.5392 1.85108 33.732 1.95451 32.9495 1.95451C31.3699 1.95451 31.5203 2.82525 31.606 4.39533C31.6795 5.73915 33.1903 6.48645 34.251 6.42935C35.786 6.34672 35.7624 4.16551 35.7624 2.97152C35.7624 -0.252466 31.6732 0.960099 30.8503 3.17492" stroke="black" stroke-width="1.5" stroke-linecap="round"/>
<path d="M12.7135 13.4225C10.5094 12.9382 4.07773 7.67701 2.15465 11.8179C1.26971 13.7233 0.946429 16.1014 1.92374 18.0555C2.82168 19.8509 5.53433 22.779 5.53433 22.779" stroke="black" stroke-width="1.5" stroke-linecap="round"/>
<path d="M36.896 13.8292C38.417 11.6676 39.9538 11.3884 42.3539 11.3884C43.1878 11.3884 44.036 11.2861 44.8309 11.5918C45.9763 12.0322 45.5036 12.4512 46.3423 12.993C48.2652 14.2351 47.921 21.1517 45.2087 21.1517" stroke="black" stroke-width="1.5" stroke-linecap="round"/>
<path d="M34.6289 13.4224C32.4254 12.9706 30.2128 13.18 28.0375 12.6088C25.7696 12.0133 24.477 12.2793 22.3907 12.9704C21.1854 13.3697 19.4492 13.3002 18.1713 13.445C16.323 13.6545 15.2085 14.7623 13.4692 15.2305C11.9741 15.6329 10.9006 16.3874 9.60668 17.2645C8.55405 17.978 7.78181 19.0158 6.83576 19.6149C5.34859 20.5567 5.33111 22.5438 4.48468 23.6829C3.69399 24.747 4.61565 28.2224 5.17741 29.1296C6.47127 31.2191 7.59252 32.814 9.69064 33.9434C12.0494 35.2132 13.6141 36.6567 16.2821 37.0397C17.1728 37.1675 18.4055 37.368 19.1789 37.8307C20.5382 38.6437 22.6821 38.2375 24.196 38.2375C25.6846 38.2375 27.1035 37.8307 28.5833 37.8307C29.9645 37.8307 31.4084 36.6203 32.8236 36.2939C34.2674 35.9608 34.8487 34.7038 36.1403 33.9886C36.917 33.5586 37.6071 32.8859 38.3235 32.3614C40.0487 31.0984 41.146 29.857 41.997 27.8414C42.4184 26.8434 41.7727 25.3761 42.5638 24.6095C43.0554 24.1332 43.202 22.5232 42.7527 21.9427C42.2729 21.3228 41.8345 19.5846 41.2623 19.2081C40.6033 18.7745 40.6629 18.7012 40.2127 18.0781C39.7073 17.3784 37.755 17.4371 36.98 16.9933C35.1629 15.9527 31.8323 13.9855 29.8008 13.8292C27.3776 13.6429 24.8858 13.8292 22.4537 13.8292C20.6103 13.8292 19.6768 14.0093 18.0874 14.7332C16.9275 15.2616 16.697 16.2701 15.3584 16.2701" stroke="black" stroke-width="1.5" stroke-linecap="round"/>
<path d="M17.1218 21.8133C16.529 21.6548 13.8592 21.6376 15.0474 23.9708C15.628 25.1108 16.6705 24.7629 17.5152 24.7629C18.2248 24.7629 19.4313 22.9912 18.5524 21.8406C18.1636 21.3316 15.8639 20.7509 15.5481 21.5948C13.6229 26.7404 20.7021 24.746 19.3392 21.1032C19.0362 20.2933 17.4042 20.3385 16.8714 20.3385C15.2543 20.3385 15.4182 21.8852 14.2249 22.7965" stroke="black" stroke-width="1.5" stroke-linecap="round"/>
<path d="M30.315 20.7758C29.2351 20.8065 26.7304 20.8109 27.1107 23.1931C27.2685 24.1813 29.8736 24.0388 30.4582 23.8908C31.1327 23.7201 32.3599 21.2244 31.1026 21.2244C30.3908 21.2244 28.4475 20.734 27.9162 21.4736C27.0269 22.7117 28.0746 24.8129 29.0977 24.8129C30.1727 24.8129 31.2461 24.6131 31.9977 23.5669C32.923 22.2787 31.8931 21.0916 31.031 20.6761C29.6892 20.0295 28.6511 20.364 27.415 21.2244" stroke="black" stroke-width="1.5" stroke-linecap="round"/>
<path d="M18.0034 28.8809C18.7414 32.4124 21.2074 32.1184 23.9021 32.5648C27.0826 33.0916 29.41 31.9059 30.4725 28.4741" stroke="black" stroke-width="1.5" stroke-linecap="round"/>
<path d="M16.8699 29.2877C19.7749 30.789 23.3149 33.6719 26.694 32.1128C28.2072 31.4146 30.8504 29.583 30.8504 27.6605" stroke="black" stroke-width="1.5" stroke-linecap="round"/>
<path d="M16.114 29.6945C19.1321 30.3037 22.0789 32.5901 25.1825 32.1127C26.5873 31.8966 27.4361 30.7951 28.7301 30.4855C29.2278 30.3664 29.7858 29.5576 30.2835 29.3103C31.4786 28.7164 31.489 28.8809 30.0945 28.8809" stroke="black" stroke-width="1.5" stroke-linecap="round"/>
</svg>
