<svg width="424" height="319" viewBox="0 0 424 319" fill="none" xmlns="http://www.w3.org/2000/svg">
<path d="M387.5 286C392.85 286 398.5 295.291 398.5 291.665L409.531 288.075L423 288.111V319H7V276C7 276 11.6931 280.6 11.6931 284.775C11.6931 286.99 38.6421 288.039 42.9495 288.039C54.2689 288.039 65.2271 287.906 74.9567 291.665C84.3075 295.278 95.148 291.204 103 296L114.5 303.5L131 306.5H144L157 312.5L174 311L190.5 306.5L204 303.5L214 293.5L225 296L233 291.665L291 288.039L336 293.5L370.5 286H387.5Z" fill="#C4C4C4"/>
<path d="M174 4.5C147.257 4.5 121.433 1.27939 95 4.5L68.5 6C35.0047 6.43028 14 7.59348 11.9297 11.5L2.8865 7.59348L2.88647 1H415.223L416.5 2.5H381.5C360.371 2.5 342.859 4.5 321.5 4.5H250.5C246.413 4.5 240.291 5.57214 236.5 4.5C231.895 3.19765 229.735 4.5 225.5 4.5H174Z" fill="#C4C4C4"/>
<path d="M11.9297 5.99997C13.3677 8.04987 12.7519 10.8827 12.7519 13.1619C12.7519 19.4777 9.46339 5.15017 9.46339 9.90646C9.46339 14.8016 2.88651 2.9857 2.88651 7.88087C2.88651 19.8011 4.5307 48.484 4.5307 60.0397C4.5307 76.3578 2.88653 86.3603 2.88653 102.858C2.88653 129.925 -1.35814 158.806 2.8865 185.699C6.08267 205.948 8.18455 254.079 8.18455 274.607C8.18455 274.607 12.7519 279.196 12.7519 283.361C12.7519 285.57 38.9782 286.616 43.1702 286.616C54.1861 286.616 64.8505 286.484 74.3192 290.233C85.061 294.487 100.016 290.452 106.839 299.638C110.995 305.234 121.529 303.857 127.848 305.859C131.786 307.107 143.213 305.407 145.935 308.102C146.705 308.864 156.496 312.276 158.266 312.587C162.852 313.394 169.448 313.035 173.156 311.357C178.391 308.988 184.184 309.324 189.507 307.451C193.539 306.032 200.907 306.163 203.848 303.834C206.33 301.868 210.609 294.55 213.348 294.429C220.344 294.121 222.755 297.397 228.146 293.127C233.701 288.728 251.823 291.825 258.565 291.825C270.843 291.825 280.845 287.918 293.094 287.918C297.409 287.918 302.781 289.221 307.892 289.221C312.9 289.221 315.701 291.825 320.223 291.825C324.521 291.825 333.591 295.222 336.666 294.14C340.852 292.666 348.543 290.724 353.108 290.523C359.138 290.257 364.988 286.616 371.195 286.616C376.401 286.616 381.608 286.616 386.815 286.616C392.49 286.616 393.595 291.872 399.877 290.45C403.746 289.575 408.56 285.677 413.031 286.689C417.534 287.708 415.589 281.232 415.589 277.501C415.589 271.632 417.233 266.424 417.233 260.573C417.233 250.296 417.233 234.431 417.233 224.36C417.233 208.92 421.8 14.5913 415.224 1.00834M11.9297 5.99997C9.69458 2.81369 11.2698 7.71088 12.0211 7.88087C18.9978 9.45951 29.3747 7.95321 36.5932 7.95321C55.0057 7.95321 72.8092 5.96693 90.9443 3.75735C117.377 0.53674 145.865 2.74456 172.608 2.74456C190.025 2.74456 207.441 2.74456 224.858 2.74456C229.093 2.74456 231.763 0.791129 236.368 2.09348C240.158 3.16562 243.06 4.04672 247.146 4.04672C271.475 4.04672 295.803 4.04672 320.132 4.04672C341.491 4.04672 362.854 2.74456 383.983 2.74456C389.586 2.74456 6.32717 5.99997 11.9297 5.99997ZM11.9297 5.99997C14.3116 5.99997 415.128 0.763279 415.224 1.00834M415.224 1.00834C420.627 14.9153 424.035 272.672 422.079 286.616" stroke="black" stroke-width="2" stroke-linecap="round"/>
</svg>
