<svg width="47" height="34" viewBox="0 0 47 34" fill="none" xmlns="http://www.w3.org/2000/svg">
<path d="M18.4165 33.7806C13.6997 33.7945 9.0717 32.5221 5.04919 30.1055L0.762451 27.5001L5.79994 27.7122C9.76688 27.8781 12.144 27.4135 14.2866 26.3274C12.1151 25.5625 10.0867 24.0506 8.85167 20.6624L8.09026 18.5813C6.67861 17.0575 5.95831 14.9765 5.95831 12.386V10.0988L6.90703 10.6575C6.59503 9.99073 6.36991 9.28803 6.23699 8.56603C5.85814 6.40262 6.22463 4.17705 7.2786 2.24072L8.32477 0.312059L9.55825 2.11673C10.6547 3.72121 13.3744 5.79927 16.4871 7.40823C19.0652 8.74231 21.5002 9.5326 23.1875 9.61626C23.2074 7.93772 23.6645 6.29206 24.5154 4.83568C25.6254 2.9389 27.399 1.50148 29.5072 0.790119C31.8657 -0.0203921 34.4441 0.0380101 36.7619 0.954448C37.6581 1.30648 38.4855 1.80786 39.2075 2.43643C40.479 2.01804 41.7186 1.51183 42.9171 0.921581C43.1285 0.803517 43.3687 0.744322 43.6118 0.750377C43.855 0.756433 44.0918 0.827511 44.2968 0.955943C44.5042 1.08855 44.6707 1.27437 44.7781 1.49323C44.8855 1.71209 44.9297 1.95562 44.9059 2.1974C44.8831 2.47527 44.6653 3.0833 44.2968 3.80039C44.6073 3.74097 44.9282 3.76051 45.2288 3.85716C45.47 3.9307 45.6899 4.05959 45.8703 4.23314C46.0506 4.40669 46.1862 4.6199 46.2658 4.8551C46.3468 5.10992 46.3639 5.38015 46.3157 5.64285C46.2674 5.90554 46.1552 6.15292 45.9887 6.36397C45.128 7.54936 44.1412 8.64159 43.0451 9.62224C42.5303 10.0809 42.5227 10.2362 42.4847 11.0982C42.4755 11.3044 42.4649 11.5464 42.4435 11.8019C42.2679 13.9432 41.816 16.0541 41.0989 18.0839C39.6616 22.1149 37.1516 25.6956 33.8289 28.4547C29.6062 31.9819 24.054 33.7806 18.4165 33.7806ZM11.1344 30.0458C13.8524 30.9182 16.7096 31.2979 19.5662 31.1662C24.3144 30.9451 28.7701 29.2839 32.1127 26.4902C35.0771 24.0317 37.317 20.8398 38.5999 17.2458C39.2476 15.424 39.6534 13.5281 39.8075 11.6047C39.8258 11.3881 39.8349 11.1849 39.8441 10.9907C39.8898 9.96136 39.937 8.89917 41.2649 7.71299C41.3898 7.60095 43.7379 5.57518 43.8537 5.46014C43.3846 5.59012 40.0025 6.41029 40.0025 6.41029C40.0025 6.41029 42.3872 3.77499 42.5913 3.60169C42.3309 3.68834 39.7329 4.99254 39.4969 5.05828C39.1997 5.14274 38.8859 5.15403 38.5832 5.09114C38.2148 5.01074 37.8801 4.82209 37.6238 4.55034L37.6086 4.5369C37.0822 4.03562 36.4616 3.63937 35.7812 3.37014C34.0464 2.67558 32.1117 2.63197 30.3463 3.24763C28.8392 3.75119 27.5729 4.7798 26.7874 6.13839C25.9934 7.50843 25.6728 9.09388 25.8737 10.6575L26.026 11.8288L24.8474 12.0723C24.3998 12.1647 23.9434 12.2098 23.486 12.2067C20.4677 12.2067 16.8251 10.5111 15.249 9.69544C12.7409 8.40169 10.4872 6.84353 8.91105 5.33316C8.36132 7.72345 8.9872 10.4364 11.6689 12.265L14.4358 14.1503L11.0993 14.612C10.5344 14.6911 9.69227 14.612 8.80294 14.3849C9.441 17.2697 11.5562 18.181 14.0247 18.9503L18.2383 20.262L13.9744 21.4303C13.428 21.5873 12.8668 21.6899 12.2993 21.7365C13.6607 23.7175 15.5643 24.1597 17.8211 24.4779L20.9992 24.9261L18.4104 26.7994C16.1795 28.4263 14.0932 29.5513 11.1344 30.0398V30.0458Z" fill="black"/>
</svg>