<?xml version="1.0" standalone="no"?>
<!DOCTYPE svg PUBLIC "-//W3C//DTD SVG 20010904//EN"
 "http://www.w3.org/TR/2001/REC-SVG-20010904/DTD/svg10.dtd">
<svg version="1.0" xmlns="http://www.w3.org/2000/svg"
 width="1137.000000pt" height="1287.000000pt" viewBox="0 0 1137.000000 1287.000000"
 preserveAspectRatio="xMidYMid meet">

<g transform="translate(0.000000,1287.000000) scale(0.100000,-0.100000)"
fill="#000000" stroke="none">
<path d="M6090 11567 c-14 -7 -26 -22 -28 -34 -2 -14 -8 -20 -17 -17 -8 3 -16
-3 -20 -16 -8 -25 18 -70 40 -70 8 0 15 -8 15 -19 0 -28 49 -45 83 -30 22 10
36 9 69 -1 24 -8 45 -14 48 -15 3 0 11 -4 18 -8 6 -5 16 -5 22 -2 13 8 60 -24
60 -40 0 -8 -11 -27 -25 -43 -14 -17 -25 -33 -25 -37 0 -5 -10 -22 -23 -39
-13 -17 -29 -53 -36 -81 -7 -27 -24 -79 -37 -115 -13 -36 -24 -75 -24 -87 0
-12 -4 -24 -8 -27 -5 -3 -15 -56 -22 -117 -9 -73 -19 -119 -29 -129 -9 -8 -17
-31 -18 -50 -2 -19 -5 -67 -8 -107 -4 -43 -2 -74 4 -77 6 -4 7 -14 4 -22 -5
-12 1 -15 23 -14 48 3 54 1 54 -21 0 -11 10 -29 23 -39 25 -21 43 -12 58 27 5
14 17 23 30 23 18 0 19 2 9 15 -11 13 -9 20 9 39 16 17 20 30 15 50 -4 19 -2
27 10 32 10 4 16 18 16 38 0 17 7 39 14 49 9 11 12 32 9 55 -3 20 2 65 11 98
9 34 16 85 16 113 0 32 7 65 20 88 11 21 20 45 20 55 0 9 5 20 11 24 6 3 9 21
7 39 -2 18 2 37 9 44 7 6 13 21 13 31 0 11 6 20 14 20 7 0 33 20 56 44 46 48
84 57 126 31 11 -7 49 -19 83 -26 55 -10 64 -10 80 6 19 17 22 49 7 74 -10 15
33 60 55 59 41 -2 50 3 47 25 -2 16 -14 25 -48 35 -25 8 -58 18 -75 24 -16 5
-46 14 -65 18 -19 5 -60 16 -90 25 -30 8 -107 17 -171 20 -110 3 -181 15 -221
36 -10 5 -26 9 -37 9 -11 0 -32 5 -48 12 -15 6 -32 10 -36 10 -4 -1 -21 5 -37
13 -35 18 -29 18 -60 2z"/>
<path d="M5120 11560 c-14 -4 -44 -8 -67 -9 -23 -1 -60 -10 -82 -22 -22 -11
-61 -26 -87 -32 -46 -12 -47 -13 -61 -66 -22 -88 -18 -254 8 -303 5 -9 9 -28
9 -42 0 -14 6 -45 14 -68 7 -24 19 -77 25 -118 16 -99 39 -178 55 -187 6 -5
27 -38 44 -75 21 -44 45 -77 70 -95 20 -15 38 -31 40 -35 2 -4 20 -10 40 -14
20 -3 46 -12 57 -19 11 -6 47 -15 80 -18 33 -3 75 -13 93 -22 35 -18 88 -17
85 2 -2 8 14 9 53 6 46 -5 59 -2 77 15 12 11 32 25 45 31 17 9 22 20 22 51 0
47 -18 61 -100 81 -30 7 -60 16 -65 20 -6 5 -52 13 -103 20 -51 6 -92 16 -92
20 0 5 -13 9 -29 9 -16 0 -42 10 -58 23 -15 13 -40 30 -54 39 -15 10 -37 37
-49 62 -12 25 -26 48 -31 52 -9 5 -13 44 -5 44 2 0 20 -7 39 -15 33 -13 37
-13 45 1 8 15 16 15 80 -6 40 -12 86 -20 104 -19 19 2 38 1 43 -2 6 -3 38 -6
73 -8 l62 -3 0 36 c0 20 5 45 10 56 6 11 15 30 21 41 12 25 9 30 -51 63 -72
41 -93 48 -125 41 -27 -6 -90 -13 -140 -16 -11 -1 -66 1 -121 4 -139 6 -145
12 -133 133 12 116 17 156 24 162 3 3 29 1 58 -4 29 -5 63 -7 76 -4 13 3 56 2
95 -3 39 -5 112 -10 161 -11 50 -1 99 -6 111 -9 14 -5 26 -2 34 8 7 8 20 15
29 16 9 0 29 16 45 35 23 28 27 40 22 68 -7 36 -32 54 -50 36 -23 -23 -119 6
-131 40 -4 12 -30 15 -147 16 -79 1 -154 -2 -168 -6z"/>
<path d="M4122 11360 c-14 -6 -31 -29 -44 -60 -11 -27 -24 -50 -28 -50 -12 0
-80 -128 -80 -150 0 -10 -6 -23 -14 -27 -8 -4 -21 -25 -29 -46 -9 -20 -23 -40
-32 -43 -8 -3 -15 -12 -15 -19 0 -24 -41 -65 -66 -65 -13 0 -24 6 -24 12 0 25
-102 215 -135 251 -19 20 -46 53 -61 72 -38 51 -81 49 -123 -4 -17 -21 -31
-51 -31 -66 0 -14 -5 -35 -11 -46 -13 -26 1 -69 36 -111 14 -16 25 -40 25 -54
0 -14 6 -24 14 -24 13 0 66 -71 66 -88 0 -5 9 -17 20 -27 11 -10 32 -39 47
-64 28 -48 50 -80 96 -135 15 -19 27 -38 27 -43 0 -19 60 -93 75 -93 8 0 15
-9 15 -19 0 -10 7 -21 15 -25 8 -3 15 -14 15 -25 0 -22 63 -71 92 -71 22 0 28
11 28 51 -1 105 -14 172 -46 235 -32 64 -31 78 4 70 15 -4 54 -13 87 -20 136
-32 220 -56 223 -66 2 -5 12 -10 21 -10 10 0 26 -9 36 -20 10 -11 28 -20 40
-20 12 0 34 -9 48 -20 14 -11 31 -20 39 -20 7 0 27 -9 43 -20 17 -11 35 -20
42 -20 13 0 77 -39 104 -63 23 -20 60 -16 73 8 6 11 17 24 24 28 11 7 11 12
-2 26 -8 9 -22 33 -31 54 -14 34 -95 106 -120 107 -6 0 -17 9 -25 20 -8 11
-22 20 -32 20 -10 0 -18 4 -18 8 0 5 -19 15 -41 22 -23 8 -47 19 -53 25 -17
17 -194 110 -266 140 -36 15 -70 32 -76 38 -23 24 -4 81 42 131 35 39 42 52
33 63 -7 7 -10 14 -8 16 2 1 13 7 24 13 11 6 33 35 48 64 33 64 30 96 -15 140
-31 32 -40 34 -76 20z"/>
<path d="M7385 11229 c-22 -10 -50 -19 -63 -19 -13 0 -37 -7 -55 -16 -34 -18
-137 -116 -137 -130 0 -5 -15 -24 -34 -42 -19 -18 -37 -45 -41 -59 -3 -14 -16
-40 -29 -57 -13 -17 -26 -39 -29 -48 -4 -10 -13 -18 -22 -18 -8 0 -15 -6 -15
-13 0 -7 -16 -31 -36 -53 -60 -66 -124 -152 -124 -166 0 -7 -12 -25 -27 -39
-38 -35 -93 -113 -93 -130 0 -8 -11 -31 -24 -50 -14 -20 -28 -48 -32 -63 -8
-33 2 -60 18 -50 18 11 93 7 118 -6 18 -10 22 -9 27 9 3 12 10 21 15 21 14 0
128 115 128 128 0 6 5 23 12 37 11 25 14 26 80 22 43 -3 75 -10 86 -20 9 -8
44 -28 77 -43 33 -15 62 -31 65 -35 3 -3 20 -10 37 -14 18 -3 36 -12 40 -19 5
-7 32 -25 61 -41 l53 -29 -5 -130 c-2 -72 -9 -143 -15 -159 -11 -28 -12 -48
-7 -172 3 -85 12 -106 42 -95 21 8 54 82 54 122 0 10 7 21 15 24 8 4 15 17 15
30 0 13 5 24 10 24 6 0 10 7 10 15 0 8 5 24 12 34 8 14 9 26 2 41 -13 29 1
164 21 207 17 35 19 63 6 63 -5 0 -8 44 -7 98 1 53 -2 102 -6 107 -3 6 -9 32
-12 58 -3 25 -11 78 -16 117 -6 39 -8 81 -5 93 3 12 -1 39 -10 60 -9 21 -13
41 -11 46 5 7 -19 114 -41 186 -5 17 -8 50 -6 75 7 92 -33 130 -102 99z m-15
-285 c10 -10 20 -105 25 -247 1 -55 8 -104 14 -110 19 -19 12 -37 -16 -49 -32
-13 -47 -12 -87 8 -16 8 -49 14 -73 14 -24 0 -51 4 -61 9 -9 4 -34 16 -55 27
-36 17 -38 20 -32 53 4 20 13 40 21 44 8 4 14 15 14 24 0 9 18 33 40 54 22 21
40 43 40 49 0 5 8 19 18 29 9 11 30 36 46 55 16 20 32 33 36 31 4 -3 13 1 19
9 13 15 36 15 51 0z"/>
<path d="M2702 10877 c-9 -10 -9 -28 -2 -65 18 -99 34 -120 218 -300 246 -239
282 -276 282 -283 0 -25 184 -228 208 -231 56 -5 73 -4 78 3 3 5 0 9 -6 9 -6
0 -8 5 -4 12 12 19 5 72 -10 83 -7 6 -20 24 -29 40 -9 17 -33 48 -52 70 -20
22 -41 51 -46 63 -5 13 -18 26 -29 29 -11 3 -20 12 -20 20 0 9 -14 32 -31 52
-16 20 -40 49 -52 64 -12 15 -32 39 -44 53 -13 14 -23 29 -23 33 0 4 -9 16
-21 27 -12 10 -28 32 -36 47 -8 16 -30 49 -49 74 -19 25 -41 60 -49 78 -7 18
-31 51 -53 73 -34 34 -47 40 -98 46 -32 3 -73 9 -90 12 -20 4 -34 1 -42 -9z"/>
<path d="M2183 10509 c-24 -11 -43 -25 -43 -32 0 -7 -9 -18 -20 -25 -11 -7
-20 -19 -20 -28 0 -8 -11 -26 -25 -40 -29 -29 -75 -132 -75 -168 0 -13 11 -44
25 -67 14 -24 25 -52 25 -61 0 -10 4 -18 9 -18 5 0 12 -36 16 -80 4 -44 11
-83 16 -86 5 -3 22 -34 38 -68 18 -40 41 -73 65 -91 26 -20 40 -40 47 -71 8
-32 23 -53 59 -83 27 -23 53 -41 58 -41 11 0 22 -24 22 -47 0 -30 71 -102 130
-134 33 -17 60 -36 60 -40 0 -5 17 -20 38 -34 32 -21 45 -24 85 -19 30 4 47
12 47 20 0 17 29 13 61 -8 22 -14 28 -14 52 -2 15 8 27 23 27 32 0 10 4 22 8
27 5 6 15 26 23 45 14 36 24 51 72 101 15 16 27 37 27 46 0 10 9 29 20 43 11
14 20 36 20 50 0 14 8 30 19 37 16 10 18 24 17 105 -1 88 -3 96 -35 143 -44
66 -119 135 -146 135 -11 0 -26 5 -32 11 -6 6 -56 17 -112 24 -137 18 -159 43
-131 147 8 27 7 47 -4 80 -7 23 -17 56 -21 72 -8 38 -40 78 -90 112 -38 26
-47 28 -165 31 -108 2 -131 0 -167 -18z m293 -166 c18 -21 34 -48 34 -60 0
-12 5 -33 11 -46 13 -28 -10 -96 -57 -167 -16 -25 -38 -63 -50 -85 -16 -32
-27 -41 -52 -43 -29 -3 -33 1 -57 51 -14 30 -25 58 -24 63 1 5 -1 17 -6 27 -4
9 -5 29 -2 44 3 19 -3 37 -20 60 -21 28 -24 38 -16 56 27 57 36 83 34 91 -4
17 33 47 54 43 11 -3 29 -1 40 4 35 15 75 1 111 -38z m206 -384 c13 -7 24 -7
30 -1 5 5 24 6 43 2 18 -4 44 -5 57 -3 34 7 117 -45 118 -73 0 -12 7 -38 15
-57 17 -40 20 -88 7 -102 -5 -6 -19 -39 -32 -74 -15 -40 -37 -77 -60 -100 -21
-20 -43 -46 -49 -58 -6 -13 -17 -23 -24 -23 -7 0 -21 -13 -30 -30 -14 -22 -25
-30 -47 -30 -21 0 -36 9 -52 30 -12 17 -28 30 -36 30 -8 0 -12 6 -9 15 4 8 -4
22 -17 33 -13 10 -26 28 -30 40 -4 12 -16 27 -27 32 -10 6 -19 17 -19 24 0 7
-9 21 -21 32 -53 48 -75 154 -31 154 19 0 42 42 42 79 1 36 22 60 59 67 17 4
31 10 31 15 0 13 57 11 82 -2z"/>
<path d="M8190 10471 c-19 -4 -59 -21 -89 -37 -29 -16 -66 -35 -82 -43 -16 -8
-29 -19 -29 -25 -1 -6 -14 -27 -30 -46 -17 -19 -30 -39 -30 -44 0 -5 -6 -17
-13 -25 -7 -9 -21 -41 -31 -71 -10 -30 -23 -59 -27 -64 -5 -6 -9 -22 -9 -36 0
-15 -3 -30 -7 -34 -37 -37 -40 -309 -4 -406 12 -30 21 -63 21 -72 0 -10 5 -18
10 -18 6 0 10 -7 10 -16 0 -23 30 -84 58 -118 34 -43 87 -67 167 -78 38 -5 76
-15 83 -21 8 -6 21 -12 30 -13 10 -1 37 -7 62 -14 25 -7 59 -13 77 -14 17 0
35 -4 39 -8 9 -10 46 -10 68 -2 9 4 19 23 22 45 4 24 12 39 21 39 7 0 18 11
23 25 5 14 13 25 17 25 8 0 36 49 47 83 3 9 12 17 21 17 8 0 15 3 16 8 3 28
11 57 24 82 8 16 15 35 15 42 0 7 9 24 20 38 11 14 20 30 20 35 0 6 -5 3 -10
-5 -8 -12 -10 -11 -10 8 0 12 -4 22 -10 22 -5 0 -10 9 -10 20 0 11 -6 20 -14
20 -8 0 -16 7 -20 15 -3 8 -12 15 -20 15 -8 0 -16 5 -18 11 -2 5 -24 13 -48
16 -25 3 -55 13 -67 20 -12 8 -26 15 -30 15 -11 1 -32 8 -78 28 -66 29 -116
40 -161 33 -38 -5 -44 -9 -50 -35 -4 -20 -1 -35 8 -45 18 -17 178 -113 190
-113 17 0 84 -49 122 -89 37 -40 38 -43 26 -74 -7 -17 -25 -45 -39 -60 -25
-27 -28 -28 -95 -21 -38 4 -81 13 -95 20 -14 8 -31 14 -36 14 -17 0 -86 38
-110 60 -12 12 -27 20 -32 18 -15 -5 -93 65 -93 83 0 9 -9 24 -19 33 -37 34
-49 194 -21 269 25 65 40 95 55 107 8 7 15 21 15 31 0 13 12 21 38 29 22 5 47
19 57 30 10 11 26 20 36 20 16 0 78 28 89 41 3 3 42 5 88 5 l82 -1 46 -47 c26
-27 52 -48 58 -48 21 0 88 -41 111 -68 21 -24 26 -25 44 -14 12 6 30 12 40 12
25 0 51 36 51 70 0 31 -69 105 -117 125 -18 8 -33 19 -33 24 0 6 -7 11 -15 11
-8 0 -15 7 -15 15 0 7 -6 18 -13 22 -7 4 -21 19 -30 32 -23 35 -143 75 -253
84 -27 3 -56 7 -64 10 -8 2 -31 1 -50 -2z"/>
<path d="M4835 10070 c-11 -4 -51 -13 -90 -19 -38 -7 -79 -16 -90 -21 -11 -5
-38 -11 -59 -14 -22 -3 -42 -9 -45 -14 -19 -29 -61 -37 -206 -38 -152 -1 -223
-12 -245 -39 -7 -8 -21 -15 -31 -15 -10 0 -25 -10 -33 -22 -9 -12 -18 -19 -22
-15 -4 3 -19 0 -34 -8 -15 -8 -30 -12 -32 -9 -3 2 -11 -2 -18 -11 -7 -8 -29
-15 -49 -15 -20 -1 -47 -7 -61 -15 -14 -8 -35 -14 -48 -15 -31 0 -94 -34 -112
-59 -8 -12 -20 -21 -27 -21 -14 0 -70 -32 -135 -77 -26 -18 -53 -33 -59 -33
-11 0 -48 -40 -49 -53 0 -4 -40 -47 -89 -95 -73 -71 -92 -97 -107 -142 -11
-30 -21 -57 -24 -60 -3 -3 -17 -27 -30 -54 -14 -26 -36 -55 -50 -64 -35 -23
-47 -42 -54 -82 -3 -19 -24 -59 -46 -88 -22 -29 -40 -60 -40 -68 0 -10 -6 -14
-15 -10 -9 3 -19 -3 -26 -17 -16 -28 -35 -47 -48 -47 -6 0 -11 -7 -11 -15 0
-8 -5 -15 -11 -15 -5 0 -17 -16 -25 -35 -8 -19 -20 -35 -27 -35 -12 0 -44 -58
-39 -72 1 -4 -5 -5 -13 -2 -9 4 -15 0 -15 -9 0 -26 37 -27 49 -1 6 13 15 24
21 24 5 0 16 16 24 35 10 24 22 35 35 35 12 0 21 4 21 9 0 14 52 23 63 12 7
-7 7 -22 -1 -48 -8 -28 -8 -40 0 -51 8 -9 8 -16 1 -20 -6 -4 -13 -17 -17 -29
-6 -18 -3 -23 12 -23 34 0 84 74 86 129 1 17 4 31 9 31 4 0 7 7 7 15 0 10 -10
15 -30 15 -16 0 -30 5 -30 11 0 8 -5 8 -15 -1 -8 -7 -15 -8 -15 -3 0 5 11 16
25 23 14 7 25 19 25 25 0 7 14 27 31 45 25 25 33 29 40 19 7 -11 9 -9 9 7 0
11 9 29 20 39 22 20 26 44 8 46 -7 1 -4 4 7 8 63 22 94 42 89 56 -10 26 16 72
52 91 19 10 34 24 34 31 0 18 50 73 67 73 7 0 16 6 19 14 3 8 22 25 43 39 20
14 48 45 61 71 20 37 30 46 51 46 16 0 30 7 33 16 5 13 2 15 -14 11 -18 -4
-19 -3 -9 9 8 10 15 11 25 3 9 -8 24 -5 56 9 24 10 48 17 54 15 6 -2 30 20 54
48 50 60 94 89 133 89 16 0 26 4 22 10 -3 6 1 10 10 10 9 0 27 11 41 25 14 14
34 25 45 25 11 0 29 5 39 10 11 6 51 11 90 11 38 1 70 4 70 7 0 9 92 46 140
57 67 16 125 16 161 0 21 -10 39 -22 39 -27 0 -13 38 -9 69 6 15 8 44 13 63
12 39 -4 53 1 60 24 3 9 19 15 42 16 21 0 42 7 47 15 8 14 36 16 254 20 44 1
96 -2 115 -6 19 -5 42 -9 50 -10 8 -1 31 -8 50 -17 76 -33 94 -39 149 -44 45
-5 61 -3 73 10 9 9 24 13 32 10 12 -4 16 0 16 15 0 12 6 21 15 21 9 0 18 7 22
15 7 21 46 14 97 -16 25 -14 41 -19 43 -12 6 16 42 4 54 -18 5 -11 16 -19 24
-19 8 0 15 -9 15 -20 0 -14 9 -21 33 -25 49 -10 138 0 148 16 8 13 13 5 10
-15 -1 -4 13 -5 31 -2 51 11 143 1 154 -15 3 -5 11 -9 18 -9 7 0 46 -18 86
-40 40 -22 79 -40 87 -40 12 0 52 -19 63 -30 12 -12 38 -10 97 6 35 9 63 21
63 25 0 5 7 9 15 9 8 0 15 -6 15 -13 0 -8 15 -13 41 -14 23 -1 49 -9 59 -18 9
-9 27 -17 38 -20 12 -2 59 -37 106 -79 46 -41 98 -82 115 -90 17 -9 31 -21 31
-26 0 -5 17 -19 38 -30 53 -29 68 -40 120 -87 46 -41 117 -70 128 -52 3 6 15
7 27 3 33 -9 139 -64 155 -80 16 -16 57 -28 69 -21 5 3 14 3 20 -1 13 -8 107
-88 140 -119 13 -13 26 -23 29 -23 17 0 69 -52 96 -95 34 -54 62 -85 76 -85 5
0 14 -11 20 -25 6 -14 30 -45 52 -69 22 -24 40 -48 40 -54 0 -5 7 -12 15 -16
8 -3 15 -12 15 -19 0 -8 7 -20 16 -27 8 -8 22 -29 30 -49 15 -36 42 -71 54
-71 3 0 14 16 23 35 18 39 35 42 102 24 39 -11 110 -73 100 -89 -2 -4 -26 -8
-51 -8 -53 -1 -62 -7 -48 -29 11 -18 89 -63 109 -63 23 0 165 -108 165 -126 0
-3 14 -22 30 -41 17 -18 30 -40 30 -48 0 -7 4 -15 8 -17 5 -1 23 -30 41 -63
17 -33 58 -88 91 -123 33 -35 60 -66 60 -70 0 -4 18 -26 40 -50 28 -29 40 -51
40 -71 0 -16 9 -49 20 -74 12 -26 23 -69 26 -97 2 -28 11 -70 19 -93 7 -23 17
-91 20 -152 4 -60 12 -128 18 -150 5 -22 11 -74 12 -115 1 -41 6 -84 13 -96
14 -27 22 -179 12 -258 -4 -33 -4 -71 1 -83 10 -27 13 -263 5 -408 -7 -141 -8
-153 -5 -222 1 -31 -2 -58 -7 -60 -5 -2 -8 -21 -6 -44 2 -22 -3 -66 -12 -97
-8 -31 -20 -88 -25 -126 -5 -37 -17 -76 -26 -86 -10 -11 -16 -34 -15 -61 2
-163 0 -223 -9 -252 -6 -17 -12 -80 -15 -140 -2 -59 -9 -113 -15 -121 -6 -7
-8 -15 -5 -19 3 -3 -4 -23 -15 -44 -11 -21 -34 -69 -51 -108 -34 -77 -73 -123
-137 -164 -50 -31 -106 -99 -98 -119 6 -16 -34 -92 -49 -92 -5 0 -24 -15 -42
-33 -18 -17 -46 -45 -63 -62 -20 -19 -29 -36 -25 -47 4 -14 0 -18 -20 -18 -14
0 -26 -4 -26 -10 0 -5 -11 -12 -24 -16 -14 -3 -32 -14 -42 -25 -9 -10 -23 -19
-31 -19 -7 0 -13 -9 -13 -20 0 -11 -4 -20 -10 -20 -5 0 -7 -7 -4 -15 4 -11 2
-13 -9 -9 -10 3 -18 -2 -22 -17 -5 -14 -3 -25 4 -27 6 -2 9 -8 5 -13 -3 -5 -2
-9 1 -9 11 0 50 54 47 63 -1 5 2 15 8 21 5 7 7 16 3 19 -3 4 -1 7 5 7 6 0 12
-7 14 -17 2 -12 7 -9 18 11 12 24 12 29 0 38 -12 8 -12 9 2 4 31 -10 71 16
179 115 15 15 30 24 33 22 2 -3 21 18 42 46 27 36 41 47 47 38 6 -8 7 -6 3 6
-3 10 3 26 14 37 25 25 34 26 20 1 -5 -11 -10 -26 -10 -34 0 -22 -91 -167
-105 -167 -7 0 -36 -28 -66 -61 -30 -34 -61 -70 -70 -79 -10 -10 -20 -32 -24
-49 -4 -17 -11 -31 -17 -31 -6 0 -32 -18 -58 -40 -26 -22 -52 -40 -56 -40 -5
-1 -22 -19 -39 -40 -17 -22 -51 -50 -78 -62 -26 -13 -50 -31 -53 -41 -3 -10
-8 -16 -12 -13 -6 7 -55 -45 -89 -95 -26 -40 -141 -106 -167 -96 -25 10 21
106 62 130 18 11 37 27 42 37 5 9 35 30 66 45 31 15 74 45 94 66 21 22 43 39
49 39 15 0 81 66 81 80 0 21 -55 6 -65 -18 -5 -12 -15 -20 -21 -18 -6 2 -24
-6 -40 -20 -16 -13 -33 -23 -38 -24 -6 0 -20 -9 -32 -21 -12 -11 -31 -21 -43
-22 -12 -1 -45 -25 -72 -54 -38 -40 -56 -52 -70 -48 -14 5 -19 1 -19 -14 0
-20 -55 -91 -68 -90 -35 5 -44 -2 -39 -29 4 -21 0 -33 -14 -45 -10 -9 -22 -17
-25 -17 -3 0 -23 -18 -45 -40 -22 -22 -44 -40 -49 -40 -6 0 -10 -7 -10 -15 0
-8 -6 -12 -13 -9 -8 3 -43 -11 -78 -30 -35 -20 -89 -48 -119 -63 -30 -15 -61
-33 -68 -40 -7 -7 -25 -16 -40 -19 -15 -4 -48 -17 -73 -30 -26 -13 -80 -28
-120 -33 -126 -17 -141 -20 -153 -30 -24 -20 -87 -22 -190 -7 -59 9 -134 16
-168 16 -61 0 -148 -24 -148 -41 0 -5 -9 -9 -20 -9 -10 0 -24 -9 -30 -21 -7
-11 -14 -18 -17 -15 -3 3 -12 -1 -19 -9 -9 -9 -40 -14 -91 -14 -43 0 -114 -5
-158 -10 -44 -5 -84 -7 -89 -3 -10 6 -151 11 -443 15 -144 2 -186 6 -200 18
-22 19 -67 39 -113 51 -19 5 -53 14 -75 20 -22 6 -56 12 -75 14 -131 11 -157
14 -184 20 -17 4 -39 7 -48 5 -24 -3 -190 80 -229 115 -11 10 -26 19 -32 19
-16 0 -77 37 -77 47 0 4 -5 8 -10 8 -6 0 -27 11 -48 24 -20 14 -49 28 -65 32
-15 3 -31 12 -35 19 -4 7 -26 22 -49 34 -24 12 -43 26 -43 31 0 5 -32 19 -72
31 -59 17 -82 30 -128 74 -66 64 -105 95 -118 95 -5 0 -12 7 -16 15 -3 8 -12
15 -20 15 -8 0 -28 11 -44 25 -17 14 -45 32 -64 39 -41 18 -118 88 -118 108 0
8 -15 29 -34 46 -19 17 -35 34 -37 39 -2 4 -21 17 -41 28 -75 40 -186 148
-223 217 -5 10 -17 21 -27 24 -10 3 -18 18 -20 37 -2 18 -8 31 -15 30 -7 -2
-15 13 -19 33 -5 28 -11 35 -28 33 -30 -3 -47 4 -133 52 -18 10 -41 19 -51 19
-12 0 -14 2 -4 8 9 7 8 13 -8 27 -11 10 -20 26 -20 35 0 10 -7 20 -15 23 -8 4
-28 31 -45 61 -17 30 -38 60 -45 66 -8 7 -15 19 -15 28 0 9 -18 53 -40 98 -22
46 -40 88 -40 94 0 11 -4 20 -37 85 -26 51 -21 115 9 115 28 0 20 44 -9 48
-32 5 -71 94 -65 149 3 31 -2 51 -18 77 -12 20 -19 40 -16 45 3 5 -2 19 -13
32 -24 32 -41 80 -56 162 -10 55 -10 69 1 78 19 16 17 26 -6 32 -22 6 -40 59
-22 65 7 2 9 8 6 14 -4 6 -8 28 -9 49 -2 21 -10 46 -19 54 -8 9 -13 22 -10 30
4 8 2 15 -3 15 -4 0 -9 18 -9 40 -1 22 2 40 6 40 15 0 16 74 3 114 -8 22 -26
51 -39 65 -42 42 -70 125 -78 231 -4 53 -17 91 -30 87 -15 -5 -34 16 -42 47
-5 19 -2 26 9 26 10 0 13 -7 10 -20 -3 -11 0 -20 6 -20 11 0 10 22 -3 51 -4 9
0 34 9 55 9 22 18 68 20 102 4 53 2 63 -10 58 -20 -7 -21 49 -2 61 20 12 47
72 36 79 -16 10 -9 36 11 41 16 4 20 14 20 53 0 44 3 50 35 69 25 15 35 27 35
46 0 17 5 25 17 25 12 0 14 3 6 11 -6 6 -7 25 -2 52 4 23 8 45 9 50 0 4 11 12
24 17 18 7 25 19 30 54 5 28 17 57 32 74 14 15 36 38 49 52 26 28 39 92 22
109 -8 8 -8 14 1 23 9 9 12 8 12 -7 1 -17 3 -16 14 5 8 14 17 66 20 116 7 87
6 93 -18 129 -30 44 -36 120 -11 139 8 6 18 34 21 61 4 28 13 58 21 67 8 9 12
22 8 28 -4 7 -4 15 1 19 5 3 17 18 27 34 10 15 24 27 32 27 8 0 15 9 15 20 0
11 5 20 11 20 5 0 9 10 7 23 -2 13 2 21 9 20 7 -2 17 14 23 35 15 55 13 72
-10 72 -14 0 -21 -9 -26 -35 -3 -20 -13 -43 -21 -51 -8 -8 -17 -32 -20 -54 -4
-25 -11 -40 -19 -40 -8 0 -14 -10 -14 -24 0 -28 -15 -43 -24 -24 -5 10 -7 10
-12 0 -3 -7 -12 -18 -19 -26 -14 -14 -31 -98 -26 -130 1 -10 -2 -16 -7 -12 -9
5 -39 -64 -41 -94 0 -8 -3 -29 -7 -47 -4 -21 -1 -39 10 -55 20 -28 20 -47 2
-67 -12 -13 -12 -22 -1 -53 10 -31 10 -45 -2 -82 -9 -25 -26 -57 -40 -71 -19
-18 -24 -31 -19 -50 5 -18 2 -25 -9 -25 -8 0 -17 11 -21 24 -4 18 -11 22 -26
18 -19 -5 -20 -2 -14 31 8 43 3 46 -20 12 -13 -21 -14 -28 -4 -40 10 -12 10
-24 2 -53 -6 -20 -13 -48 -16 -62 -14 -68 -21 -87 -43 -114 -30 -35 -63 -100
-63 -121 0 -21 -29 -116 -41 -135 -5 -8 -16 -31 -24 -50 -9 -19 -20 -43 -25
-52 -6 -10 -10 -29 -10 -42 0 -13 -5 -26 -10 -28 -17 -5 -18 -258 -2 -275 8
-7 11 -22 7 -33 -6 -20 23 -128 49 -180 7 -14 19 -83 25 -155 7 -71 15 -137
18 -145 3 -8 5 -32 4 -53 -2 -21 1 -43 6 -50 5 -7 9 -21 8 -32 0 -11 3 -31 8
-45 13 -38 28 -119 34 -180 3 -30 11 -68 18 -85 7 -16 19 -54 26 -84 8 -33 24
-65 41 -82 16 -15 28 -32 28 -37 0 -6 8 -25 17 -44 30 -59 31 -64 38 -119 10
-90 13 -263 4 -280 -6 -11 -4 -21 6 -29 7 -6 11 -18 9 -25 -7 -17 24 -65 41
-65 7 0 15 -11 19 -23 3 -13 26 -45 50 -72 25 -26 46 -57 48 -69 2 -11 13 -25
24 -30 13 -6 22 -19 22 -34 -1 -28 15 -59 65 -131 20 -30 37 -65 37 -78 0 -14
6 -23 15 -23 8 0 15 -5 15 -10 0 -6 16 -24 35 -41 23 -20 35 -40 35 -57 0 -41
117 -182 153 -182 9 0 17 -5 17 -10 0 -6 23 -48 50 -94 28 -46 50 -87 50 -92
0 -21 78 -95 110 -104 19 -5 58 -30 85 -55 28 -24 56 -45 63 -45 6 0 12 -6 12
-13 0 -6 20 -28 45 -47 27 -21 54 -55 69 -88 17 -34 32 -52 43 -52 10 0 24 -9
31 -20 6 -11 28 -26 47 -34 23 -10 35 -22 35 -35 0 -11 15 -32 34 -46 38 -29
157 -74 194 -75 30 0 143 -52 161 -73 7 -9 21 -17 31 -17 9 0 25 -9 35 -20 10
-11 26 -20 35 -20 10 0 20 -7 24 -15 3 -8 12 -15 19 -15 8 0 20 -7 27 -15 7
-9 15 -13 18 -10 3 3 11 0 19 -7 8 -6 35 -12 61 -13 102 -5 167 -18 197 -40
24 -18 49 -23 128 -29 54 -4 116 -14 139 -22 22 -8 49 -14 59 -14 11 0 19 -4
19 -10 0 -5 32 -25 70 -44 39 -20 80 -45 92 -56 12 -11 28 -20 35 -20 7 0 19
-13 28 -30 9 -18 23 -30 35 -30 11 0 20 -4 20 -8 0 -19 67 -27 135 -14 39 6
142 15 230 18 88 3 164 10 170 15 5 5 23 9 40 9 18 0 41 9 54 21 13 12 26 18
30 13 12 -17 223 -16 351 1 69 10 160 18 202 19 42 1 83 7 90 13 14 11 123 47
178 58 19 4 40 12 47 17 7 6 28 11 47 13 19 2 49 10 68 18 33 15 69 25 123 32
47 7 135 23 194 34 29 6 67 11 83 11 25 0 102 29 160 61 10 5 24 9 32 9 8 0
36 11 63 24 66 32 114 53 141 61 12 3 34 16 50 29 15 12 48 30 73 39 26 10 69
38 95 64 27 25 81 71 119 101 101 80 225 213 225 241 0 6 6 11 14 11 17 0 136
135 136 155 0 7 3 15 8 17 13 5 82 105 82 118 0 7 21 34 48 59 51 50 78 84
102 130 8 16 43 66 78 111 34 45 62 85 62 91 0 5 5 9 10 9 6 0 10 9 10 20 0
10 6 23 13 27 20 13 122 146 135 176 6 15 16 27 22 27 5 0 10 8 10 18 0 9 9
42 21 72 14 39 22 88 25 170 3 63 12 162 20 219 11 70 13 127 8 175 -4 39 -7
109 -8 156 -1 47 -5 90 -8 96 -4 6 -3 38 3 70 23 126 30 170 32 202 1 17 5 32
8 32 9 0 23 69 20 98 -1 12 2 22 8 22 6 0 11 7 11 15 0 8 4 23 10 33 5 9 14
53 20 97 6 44 13 95 16 113 2 18 -3 74 -11 125 -9 50 -20 124 -25 162 -10 79
-48 227 -59 235 -11 7 -23 58 -25 105 -1 22 -7 50 -14 63 -7 12 -10 27 -7 32
3 5 1 27 -4 50 -6 25 -5 52 1 73 7 23 6 53 -6 107 -8 41 -18 89 -21 105 -10
51 -27 109 -41 140 -7 17 -20 75 -29 130 -12 80 -22 111 -50 157 -19 31 -35
64 -35 75 0 10 -4 25 -10 33 -6 9 -5 17 3 22 9 6 9 8 0 8 -6 0 -19 25 -28 55
-8 30 -29 69 -46 87 -16 18 -38 42 -48 53 -54 58 -191 220 -210 249 -8 12 -40
48 -72 81 -90 95 -109 117 -109 126 0 5 -7 9 -15 9 -8 0 -15 5 -15 11 0 14
-71 78 -87 79 -6 0 -31 24 -55 54 -24 30 -71 75 -105 100 -34 25 -67 55 -74
67 -29 54 -141 139 -183 139 -7 0 -21 9 -31 20 -10 11 -22 20 -26 20 -13 0
-109 63 -109 71 0 5 -6 9 -14 9 -8 0 -21 8 -28 18 -7 9 -31 31 -53 49 -22 17
-74 63 -115 103 -70 67 -150 130 -165 130 -4 0 -18 8 -31 19 -13 10 -44 22
-69 25 -24 4 -47 11 -50 16 -12 19 -112 79 -174 104 -51 20 -80 26 -137 25
-54 -1 -77 3 -89 14 -8 9 -32 21 -52 27 -62 19 -206 84 -233 105 -20 16 -91
33 -165 39 -62 5 -199 36 -246 54 -15 6 -29 8 -32 6 -3 -3 -15 0 -27 6 -11 6
-46 15 -77 20 -30 5 -74 18 -97 29 -53 26 -169 39 -271 32 -108 -8 -642 -7
-680 1 -16 3 -39 3 -50 -2z m715 -101 c0 -5 -4 -9 -10 -9 -5 0 -10 7 -10 16 0
8 5 12 10 9 6 -3 10 -10 10 -16z m-467 -10 c-4 -16 -1 -17 23 -10 30 8 86 -1
69 -11 -18 -10 -79 -22 -107 -19 -14 1 -29 -2 -32 -7 -3 -5 -18 -7 -33 -5 -64
9 -183 11 -183 2 0 -5 -11 -9 -25 -9 -13 0 -28 -7 -33 -16 -14 -25 -191 -21
-200 5 -3 8 1 12 9 9 7 -2 28 11 47 29 22 22 41 32 52 28 9 -3 31 0 47 8 21 8
87 13 201 13 159 1 169 0 165 -17z m403 -10 c46 -22 65 -24 62 -8 -2 6 3 14
10 16 6 3 12 0 12 -5 0 -5 60 -8 142 -7 111 1 149 -2 173 -14 16 -9 50 -15 75
-15 35 1 40 0 20 -6 -27 -9 -26 -9 39 -16 25 -3 52 -13 60 -23 9 -10 29 -21
44 -25 16 -4 27 -12 24 -19 -4 -13 -62 -12 -137 3 -82 16 -254 40 -286 40 -17
0 -53 7 -80 15 -40 12 -65 13 -133 4 -68 -8 -92 -7 -130 5 -25 8 -69 17 -98
19 -29 2 -62 12 -75 21 l-23 17 26 -5 c17 -4 31 0 39 9 14 17 30 20 30 5 0 -5
-7 -10 -16 -10 -9 0 -12 -5 -8 -12 5 -8 12 -5 24 9 9 12 25 23 36 26 34 9 128
-4 170 -24z m998 -205 c5 -12 2 -15 -10 -10 -8 3 -18 6 -20 6 -3 0 -2 5 1 10
9 15 22 12 29 -6z m86 -17 c0 -3 -6 -7 -14 -10 -9 -4 -13 2 -13 18 0 20 2 22
13 10 8 -7 14 -16 14 -18z m-2737 -26 c11 -1 8 -41 -3 -41 -5 0 -11 1 -13 3
-2 1 -18 -10 -35 -25 -18 -15 -42 -29 -54 -33 -26 -7 -45 -15 -101 -39 -21 -9
-50 -16 -64 -16 l-27 0 23 21 c12 12 29 22 38 23 9 2 17 11 19 20 3 19 32 45
51 46 7 0 16 7 21 15 4 9 19 17 31 20 13 2 25 6 28 8 3 3 53 2 86 -2z m3098
-107 c8 -8 25 -14 36 -14 12 0 40 -9 64 -20 24 -11 53 -20 65 -20 11 0 37 -16
58 -36 28 -28 41 -34 59 -28 12 4 39 6 60 5 33 -2 49 -13 127 -91 49 -49 105
-101 125 -115 23 -18 35 -36 35 -51 0 -23 -3 -24 -42 -18 -48 6 -98 23 -98 33
0 3 -15 12 -32 20 -18 8 -47 27 -64 43 -30 28 -135 68 -181 68 -12 0 -25 5
-28 11 -4 5 -17 15 -28 20 -35 15 -92 61 -127 102 -18 20 -37 37 -44 37 -10 0
-24 23 -43 69 -7 17 33 6 58 -15z m-3481 -103 c0 -21 -26 -36 -36 -20 -6 11
13 39 27 39 5 0 9 -9 9 -19z m-31 -40 c11 -7 8 -16 -16 -47 -17 -22 -37 -54
-44 -72 -8 -18 -23 -35 -34 -39 -11 -3 -26 -14 -33 -24 -19 -28 -32 -23 -32
11 0 47 36 103 96 151 40 32 43 33 63 20z m4556 -541 c4 -6 15 -8 25 -5 12 4
29 -4 50 -25 17 -16 28 -30 25 -30 -2 0 3 -9 12 -20 10 -11 23 -20 30 -20 7 0
13 -5 13 -10 0 -6 -11 -8 -27 -4 -25 6 -26 5 -13 -8 8 -8 32 -20 53 -27 24 -8
68 -42 119 -92 44 -44 79 -82 77 -84 -8 -7 -146 14 -173 26 -14 7 -26 18 -26
25 0 7 -9 18 -21 24 -23 13 -89 80 -89 92 0 4 -8 4 -17 1 -12 -5 -15 -2 -10 9
6 16 -73 108 -93 108 -17 0 -11 18 12 34 26 19 44 20 53 6z m-5238 -1102 c-3
-8 -6 -5 -6 6 -1 11 2 17 5 13 3 -3 4 -12 1 -19z m-271 -535 c-10 -10 -19 5
-10 18 6 11 8 11 12 0 2 -7 1 -15 -2 -18z m-1 -1123 c3 -5 -1 -10 -10 -10 -9
0 -13 5 -10 10 3 6 8 10 10 10 2 0 7 -4 10 -10z m12 -72 c-3 -8 -6 -5 -6 6 -1
11 2 17 5 13 3 -3 4 -12 1 -19z m33 -38 c0 -5 -4 -10 -10 -10 -5 0 -10 5 -10
10 0 6 5 10 10 10 6 0 10 -4 10 -10z m213 -917 c12 -26 3 -53 -17 -53 -15 0
-29 27 -20 41 3 5 -2 9 -10 9 -21 0 -20 29 1 52 17 19 18 19 26 -4 5 -13 14
-33 20 -45z m502 -763 c3 -5 1 -10 -4 -10 -6 0 -11 5 -11 10 0 6 2 10 4 10 3
0 8 -4 11 -10z m161 -205 c3 -8 14 -17 25 -20 25 -8 25 -35 0 -35 -21 0 -36
16 -44 48 -6 24 10 31 19 7z m74 -75 c0 -11 -6 -20 -13 -20 -19 0 -27 10 -20
26 8 21 33 17 33 -6z m420 -365 c7 -8 16 -13 20 -10 5 3 15 -3 22 -13 7 -10
48 -35 90 -56 43 -21 80 -42 84 -47 3 -5 14 -9 25 -9 10 0 19 -3 19 -7 0 -5
12 -9 26 -9 36 -3 40 -11 18 -32 -16 -16 -22 -17 -39 -6 -11 7 -67 23 -125 35
-110 24 -160 53 -160 91 0 10 -4 18 -9 18 -11 0 -19 30 -14 48 6 16 28 15 43
-3z m382 -204 c27 -13 45 -27 42 -32 -11 -18 -54 -8 -79 18 -24 27 -34 49 -17
41 4 -2 28 -14 54 -27z m3493 -21 c3 -6 -4 -10 -17 -10 -18 0 -20 2 -8 10 19
12 18 12 25 0z m-37 -28 c2 -7 -7 -12 -23 -12 -24 0 -26 2 -15 15 14 17 31 16
38 -3z m-3362 -6 c8 -9 10 -17 4 -21 -10 -6 -50 15 -50 27 0 13 31 9 46 -6z
m2247 -282 c-7 -19 -55 -44 -85 -44 -58 0 -88 26 -55 47 12 8 127 21 139 16 4
-2 5 -10 1 -19z m-1179 -120 c9 -3 16 -13 16 -21 0 -11 -12 -13 -52 -11 -56 3
-77 24 -31 31 49 7 51 7 67 1z"/>
<path d="M5465 9940 c3 -5 8 -10 11 -10 2 0 4 5 4 10 0 6 -5 10 -11 10 -5 0
-7 -4 -4 -10z"/>
<path d="M5718 9543 c7 -3 16 -2 19 1 4 3 -2 6 -13 5 -11 0 -14 -3 -6 -6z"/>
<path d="M4464 9479 c-10 -17 -18 -191 -10 -232 5 -27 13 -37 33 -42 32 -8 44
4 47 45 1 18 10 36 19 42 10 5 14 14 11 20 -4 6 -6 39 -6 74 1 59 -1 65 -27
84 -33 22 -56 26 -67 9z"/>
<path d="M8921 9469 c-17 -7 -21 -13 -13 -22 5 -6 13 -25 16 -42 7 -32 38 -75
54 -75 5 0 15 -7 23 -16 8 -10 21 -13 37 -9 20 5 23 3 18 -10 -4 -10 6 -27 26
-47 36 -35 61 -68 109 -140 17 -27 34 -48 37 -48 4 0 22 -31 41 -68 18 -38 51
-88 72 -113 22 -24 56 -71 76 -104 20 -33 41 -61 45 -63 4 -2 8 -11 8 -20 0
-10 16 -35 35 -57 19 -22 35 -46 35 -52 0 -7 5 -13 10 -13 6 0 14 -10 19 -22
5 -13 26 -50 48 -83 22 -33 53 -85 68 -115 16 -30 34 -62 40 -70 7 -8 20 -37
30 -65 10 -27 37 -85 61 -129 24 -43 44 -87 44 -97 0 -10 7 -19 15 -19 8 0 12
-6 9 -14 -3 -8 -1 -17 5 -21 6 -3 11 -14 11 -23 0 -10 9 -33 19 -53 11 -20 22
-54 26 -75 4 -22 11 -50 15 -64 5 -14 12 -52 14 -84 3 -32 9 -62 14 -65 5 -3
13 -22 17 -41 4 -19 16 -62 26 -94 10 -33 19 -76 19 -96 0 -20 4 -40 9 -46 20
-20 42 -112 46 -186 2 -43 8 -85 14 -92 6 -7 9 -45 7 -88 -2 -41 1 -121 5
-178 5 -68 4 -110 -3 -123 -5 -11 -12 -83 -13 -161 -2 -77 -9 -168 -15 -201
-6 -33 -14 -103 -18 -155 -4 -52 -11 -100 -15 -107 -4 -6 -9 -35 -12 -65 -9
-90 -69 -352 -85 -368 -3 -3 -6 -18 -8 -35 -3 -35 -63 -238 -73 -245 -3 -3 -9
-23 -13 -45 -16 -90 -72 -263 -98 -304 -15 -25 -31 -59 -34 -78 -3 -18 -10
-30 -15 -27 -5 3 -9 -3 -9 -14 0 -10 -22 -63 -49 -118 -27 -54 -54 -118 -61
-141 -6 -24 -15 -43 -20 -43 -6 0 -10 -8 -10 -18 0 -10 -6 -26 -13 -37 -8 -11
-19 -47 -26 -80 -15 -67 -27 -96 -47 -108 -8 -4 -14 -19 -14 -33 0 -14 -9 -34
-20 -46 -11 -12 -20 -31 -20 -42 0 -22 -94 -221 -109 -230 -5 -4 -13 -21 -16
-39 -4 -17 -11 -36 -15 -42 -7 -9 -46 -79 -68 -121 -5 -10 -20 -41 -32 -69
-13 -27 -31 -62 -41 -76 -10 -14 -21 -38 -25 -54 -4 -17 -20 -43 -36 -60 -15
-16 -28 -35 -28 -41 0 -6 -7 -17 -15 -24 -8 -7 -29 -41 -46 -76 -18 -35 -35
-64 -40 -64 -4 0 -11 -10 -15 -22 -3 -12 -82 -96 -175 -187 -148 -146 -199
-209 -199 -246 0 -13 33 -2 77 25 26 16 52 30 58 30 5 0 16 9 23 21 7 12 15
19 18 16 7 -6 139 119 198 188 15 17 44 51 66 76 22 25 40 51 40 56 0 6 7 17
16 24 9 7 20 23 25 36 5 13 15 23 24 23 8 0 15 7 15 15 0 8 4 15 10 15 12 0
71 86 63 94 -3 3 6 23 21 44 14 21 26 43 26 48 0 6 13 28 30 50 17 23 30 52
30 69 0 19 7 35 20 43 11 7 20 21 20 31 0 10 7 24 15 31 8 7 15 19 15 27 0 8
9 26 20 40 11 14 20 31 20 38 0 7 7 15 15 19 8 3 15 13 15 21 0 22 77 180 95
195 8 7 15 19 15 27 0 9 18 50 39 92 22 42 47 102 56 134 9 31 21 57 26 57 5
0 9 5 9 12 0 11 19 55 60 143 30 62 60 137 60 147 0 5 10 18 23 28 18 15 20
21 10 31 -17 17 -16 29 2 29 8 0 19 17 26 43 6 23 15 47 20 53 5 6 7 26 5 45
-3 22 2 41 15 58 10 13 19 32 19 41 0 10 14 60 30 111 29 88 60 236 60 285 0
13 5 24 10 24 6 0 10 21 10 48 0 26 5 63 10 82 6 19 15 53 20 75 47 203 48
207 54 314 5 76 15 132 26 146 4 6 11 34 14 63 3 30 9 58 12 63 3 5 7 60 9
122 2 61 6 191 10 287 10 238 -17 563 -59 726 -7 29 -12 65 -10 80 3 29 -7 73
-32 132 -8 18 -14 43 -14 55 0 12 -7 35 -15 51 -8 15 -15 36 -15 45 0 9 -5 22
-10 27 -6 6 -13 20 -15 32 -3 12 -7 31 -9 42 -3 11 -19 40 -36 65 -21 30 -29
52 -25 65 5 14 2 20 -10 20 -9 0 -13 5 -10 10 4 6 0 22 -9 35 -9 13 -16 31
-16 40 0 8 -4 15 -9 15 -5 0 -11 18 -15 40 -3 22 -18 66 -32 97 -15 31 -27 62
-28 68 -1 6 -17 31 -36 56 -44 55 -57 77 -71 112 -6 15 -14 27 -18 27 -14 0
-71 91 -71 112 0 12 -3 18 -6 15 -7 -6 -44 35 -44 48 0 4 -10 21 -22 38 -28
38 -48 76 -48 89 0 5 -9 19 -21 31 -11 12 -33 42 -49 67 -16 25 -40 56 -54 70
-14 14 -32 44 -41 68 -10 23 -21 42 -26 42 -5 0 -9 6 -9 13 0 7 -14 29 -30 47
-17 19 -38 51 -48 71 -9 21 -27 42 -39 48 -11 5 -46 41 -77 79 -31 39 -63 73
-71 76 -8 3 -15 12 -15 19 0 14 -71 68 -87 66 -5 0 -19 -5 -32 -10z m871
-4734 c-2 -14 -8 -25 -12 -25 -4 0 -5 11 -2 25 2 14 8 25 12 25 4 0 5 -11 2
-25z"/>
<path d="M4775 9400 c-18 -7 -18 -9 8 -19 36 -14 37 -14 37 3 0 18 -20 25 -45
16z"/>
<path d="M4896 9391 c-3 -5 1 -11 9 -15 9 -3 15 0 15 9 0 16 -16 20 -24 6z"/>
<path d="M8880 9320 c0 -5 7 -10 15 -10 8 0 15 5 15 10 0 6 -7 10 -15 10 -8 0
-15 -4 -15 -10z"/>
<path d="M3957 9256 c-4 -10 -12 -14 -19 -10 -8 5 -9 2 -5 -10 5 -13 3 -16
-11 -12 -15 5 -17 -1 -17 -47 0 -28 -4 -61 -9 -72 -7 -16 -7 -18 5 -7 18 16
29 15 29 -4 0 -8 4 -12 10 -9 6 4 4 16 -6 31 -19 28 -13 32 12 7 16 -17 17
-15 10 35 -4 32 -3 60 4 73 6 11 10 25 7 32 -2 6 -6 3 -10 -7z"/>
<path d="M5675 9242 c-4 -4 -86 -8 -183 -8 -168 -2 -320 -15 -346 -31 -6 -4
-22 -8 -36 -9 -14 -1 -43 -7 -65 -14 -22 -7 -65 -14 -95 -16 -30 -3 -77 -11
-105 -19 -53 -15 -212 -49 -279 -60 -22 -4 -55 -18 -74 -33 -23 -18 -44 -25
-66 -24 -30 3 -64 -10 -96 -35 -58 -45 -111 -83 -118 -83 -4 0 -20 -11 -37
-25 -16 -14 -53 -36 -82 -50 -28 -13 -53 -28 -55 -32 -1 -5 -23 -21 -47 -38
-55 -37 -135 -114 -144 -137 -3 -10 -13 -18 -21 -18 -8 0 -29 -15 -48 -32 -19
-18 -51 -46 -71 -61 -20 -15 -37 -36 -37 -46 0 -10 -7 -24 -15 -31 -8 -7 -15
-17 -15 -22 0 -18 -44 -68 -61 -68 -22 0 -43 -26 -35 -45 3 -10 -1 -15 -14
-15 -14 0 -18 -7 -18 -30 1 -17 -5 -38 -13 -48 -24 -30 -39 -61 -39 -82 0 -11
-18 -40 -40 -64 -25 -27 -40 -53 -40 -69 0 -14 -11 -47 -25 -74 -14 -26 -23
-53 -21 -59 3 -7 2 -14 -2 -16 -15 -7 -52 -68 -52 -86 0 -11 -12 -50 -26 -88
-38 -102 -54 -154 -54 -179 0 -13 -6 -28 -14 -34 -8 -7 -17 -28 -21 -48 -3
-20 -13 -46 -20 -57 -8 -12 -16 -31 -18 -43 -1 -12 -9 -28 -16 -37 -7 -8 -10
-20 -7 -25 4 -5 -6 -21 -21 -35 -27 -26 -27 -26 -28 -163 0 -76 -3 -142 -6
-148 -17 -26 -17 -469 0 -488 5 -7 8 -28 7 -47 -2 -19 4 -45 12 -58 11 -17 15
-48 14 -115 -2 -92 13 -187 30 -198 10 -7 19 -36 50 -169 11 -47 22 -95 25
-108 3 -12 9 -25 14 -28 5 -3 9 -17 9 -32 0 -16 8 -32 20 -40 11 -7 20 -18 20
-25 0 -13 64 -164 74 -174 3 -4 6 -14 6 -24 0 -10 7 -24 15 -32 8 -8 22 -34
31 -58 9 -24 27 -55 38 -69 33 -38 61 -81 85 -129 12 -23 33 -55 46 -69 13
-15 23 -29 22 -32 -1 -3 17 -23 41 -44 23 -21 42 -44 42 -52 0 -8 6 -11 15 -8
9 4 15 0 15 -9 0 -8 16 -27 35 -43 19 -15 33 -29 31 -31 -2 -2 25 -31 60 -65
35 -34 64 -66 64 -72 0 -6 37 -49 83 -96 45 -47 102 -109 127 -138 25 -28 48
-52 53 -52 4 0 26 -19 50 -43 23 -23 65 -62 94 -87 47 -40 68 -53 143 -92 14
-7 28 -17 32 -23 4 -5 8 -6 8 -2 0 9 83 -34 88 -45 2 -5 12 -8 23 -8 10 0 19
-3 19 -8 0 -12 60 -40 113 -53 26 -6 50 -15 53 -20 3 -5 12 -9 21 -9 8 0 28
-9 44 -21 38 -27 126 -59 161 -59 15 0 30 -5 33 -10 10 -16 65 -36 119 -43 27
-4 55 -12 62 -18 7 -5 36 -11 66 -13 29 -2 66 -9 82 -15 16 -6 47 -14 70 -17
22 -2 48 -6 56 -9 97 -27 732 -25 802 3 34 14 209 43 219 36 4 -2 10 0 14 6 3
5 25 10 48 10 23 0 64 7 91 15 28 8 58 13 67 10 10 -3 20 -1 24 5 3 5 15 10
26 10 22 0 102 30 160 61 20 10 39 16 42 13 3 -3 16 1 29 10 12 8 52 24 88 37
71 23 232 97 240 110 3 4 17 10 32 14 15 4 34 15 43 26 10 10 33 23 52 30 19
6 32 14 29 17 -3 3 17 17 45 31 44 21 219 178 219 196 0 3 21 26 48 52 54 53
142 161 142 174 0 5 22 32 50 61 33 36 48 59 44 71 -4 12 0 17 16 17 11 0 23
8 26 18 5 16 36 81 53 112 30 54 51 100 51 113 0 8 7 20 16 28 13 11 44 71
103 199 9 19 23 46 32 60 9 14 17 48 19 75 1 28 4 61 6 75 1 14 3 29 3 33 1 4
17 15 36 23 31 13 35 17 29 42 -4 15 -17 45 -28 67 -21 39 -22 43 -9 145 13
106 13 236 -1 259 -10 15 -14 55 -20 194 -3 59 -8 112 -12 118 -3 6 -8 41 -10
77 -2 37 -6 78 -8 92 -3 14 -8 43 -11 65 -4 22 -9 47 -12 55 -4 8 -5 22 -4 31
1 9 -5 22 -14 29 -8 7 -15 25 -15 41 0 16 -4 37 -10 47 -5 9 -14 64 -19 122
-5 58 -17 141 -26 185 -9 44 -17 95 -19 113 -1 18 -8 38 -14 44 -7 7 -12 20
-12 30 0 10 -5 18 -11 18 -7 0 -9 10 -5 25 6 22 -7 81 -44 208 -6 22 -9 45 -6
53 8 21 -36 114 -73 156 -17 20 -31 41 -31 47 0 6 -4 11 -10 11 -5 0 -10 10
-10 21 0 12 -25 51 -56 87 -31 37 -58 72 -61 79 -3 7 -11 13 -19 13 -8 0 -14
5 -14 11 0 7 -33 45 -72 85 -40 39 -94 96 -120 126 -25 29 -90 98 -143 153
-53 55 -103 112 -111 128 -8 15 -20 27 -27 27 -28 1 -128 79 -271 212 -91 84
-146 128 -162 128 -8 0 -24 11 -36 25 -12 14 -28 25 -35 25 -8 0 -16 7 -19 15
-4 8 -11 15 -18 15 -16 0 -180 53 -186 61 -3 3 -30 14 -60 24 -30 9 -63 21
-72 26 -10 5 -27 9 -37 9 -11 0 -22 4 -25 8 -3 5 -31 15 -63 22 -32 7 -62 17
-68 21 -5 4 -30 10 -55 14 -64 10 -120 27 -120 37 0 4 -24 8 -52 8 -29 0 -82
8 -118 16 -68 17 -272 28 -285 16z m190 -164 c93 -12 141 -20 160 -28 11 -4
28 -11 38 -14 18 -6 24 -26 7 -26 -5 0 -7 -7 -4 -15 4 -8 2 -15 -4 -15 -20 0
-34 -78 -36 -195 -1 -27 -4 -52 -7 -55 -4 -3 -9 -57 -13 -120 -3 -63 -9 -162
-12 -220 -4 -58 -6 -120 -5 -139 1 -18 -4 -40 -11 -48 -9 -11 -7 -18 8 -34 20
-19 20 -19 36 16 8 19 11 32 7 29 -13 -8 -11 10 3 24 8 8 8 15 -2 27 -10 12
-11 18 -2 24 6 4 14 36 17 71 10 124 14 161 20 180 4 11 -2 33 -12 50 -13 23
-15 33 -6 38 7 4 15 49 19 110 4 56 11 105 15 108 12 7 11 54 -1 54 -5 0 -10
16 -10 36 0 30 3 34 14 25 11 -9 15 -5 19 18 l6 29 91 -2 c64 -3 95 -8 108
-19 13 -12 27 -14 62 -7 35 7 47 6 56 -6 6 -8 16 -14 23 -14 6 0 14 -7 17 -15
6 -15 47 -37 91 -50 11 -3 48 -23 82 -45 34 -22 67 -37 76 -34 18 7 96 -28
145 -65 19 -15 47 -33 61 -40 15 -7 44 -28 65 -46 21 -19 42 -31 46 -29 11 7
57 -28 58 -43 0 -6 15 -23 32 -37 23 -18 32 -32 30 -50 -1 -14 3 -28 8 -31 6
-3 10 -15 10 -26 0 -10 5 -19 11 -19 8 0 8 -4 1 -12 -16 -20 -26 -88 -13 -88
6 0 11 7 11 15 0 8 6 12 13 9 7 -2 24 7 37 21 24 26 73 34 85 15 4 -6 16 -8
28 -5 17 5 19 4 7 -4 -11 -8 -11 -11 -2 -12 34 -4 62 -19 62 -35 0 -12 39 -52
184 -187 68 -64 72 -67 84 -67 7 0 12 -7 12 -15 0 -7 6 -18 14 -22 44 -25 236
-285 236 -320 0 -6 6 -16 13 -20 16 -10 51 -99 53 -133 1 -14 5 -47 9 -74 7
-44 6 -50 -16 -67 -13 -10 -37 -19 -52 -19 -16 0 -52 -16 -81 -35 -29 -19 -67
-38 -84 -41 -18 -4 -32 -10 -32 -15 0 -5 2 -9 4 -9 2 0 11 -3 19 -6 8 -3 22 2
31 11 15 15 16 15 16 -4 0 -12 6 -21 14 -21 17 0 38 24 29 33 -3 4 -1 7 5 7 7
0 12 -4 12 -9 0 -5 27 -2 60 7 55 15 62 15 94 0 28 -14 35 -23 39 -55 3 -21
13 -67 22 -103 8 -36 18 -85 22 -110 3 -25 10 -50 14 -56 5 -6 7 -18 3 -27 -3
-8 2 -43 10 -77 9 -34 16 -75 16 -91 0 -16 5 -29 10 -29 6 0 10 -23 10 -50 0
-28 6 -63 14 -78 13 -26 22 -92 32 -222 2 -36 9 -108 14 -160 5 -52 12 -124
15 -160 3 -36 9 -101 14 -144 5 -44 7 -112 4 -153 -6 -75 -13 -84 -51 -64 -61
33 -105 51 -122 51 -11 0 -20 4 -20 8 0 10 -54 34 -115 53 -22 6 -49 15 -60
20 -55 21 -102 42 -119 51 -10 5 -44 12 -75 15 -31 3 -72 14 -91 25 -19 10
-44 18 -55 18 -11 0 -33 7 -50 16 -16 9 -52 18 -80 21 -27 2 -68 13 -90 23
-43 21 -106 32 -121 22 -26 -19 16 -66 69 -78 17 -3 38 -10 47 -14 8 -5 42
-16 75 -26 33 -10 65 -21 70 -25 6 -4 30 -10 55 -14 25 -4 53 -14 62 -22 10
-9 28 -17 40 -18 13 -2 35 -8 50 -14 15 -6 34 -8 43 -5 18 7 85 -14 85 -27 0
-5 9 -9 20 -9 23 0 76 -24 101 -46 9 -8 54 -22 100 -30 46 -9 95 -23 109 -32
14 -9 38 -24 55 -33 16 -9 32 -27 35 -40 12 -48 -3 -249 -19 -249 -8 0 -41
-71 -41 -88 0 -6 -16 -36 -35 -66 -19 -30 -35 -62 -35 -71 0 -8 -4 -15 -10
-15 -5 0 -10 -11 -10 -25 0 -14 -8 -33 -17 -43 -21 -22 -25 -28 -93 -147 -29
-49 -55 -92 -59 -95 -15 -11 -71 -89 -71 -98 0 -5 -9 -12 -20 -15 -16 -4 -19
-11 -15 -30 4 -14 2 -28 -4 -31 -6 -4 -11 -1 -11 6 -1 8 -7 5 -15 -7 -77 -103
-138 -158 -183 -162 -51 -5 -88 -53 -40 -53 18 0 14 -7 -28 -49 -27 -26 -59
-51 -72 -55 -13 -5 -48 -28 -78 -52 -29 -24 -58 -44 -64 -44 -6 0 -18 -4 -28
-10 -30 -16 -129 -60 -136 -60 -4 0 -19 -9 -33 -20 -14 -11 -34 -20 -43 -20
-16 0 -94 -29 -131 -50 -9 -4 -37 -11 -62 -15 -26 -4 -52 -13 -58 -21 -25 -31
-56 -5 -64 54 -4 35 -35 112 -44 112 -4 0 -16 25 -26 55 -11 30 -23 55 -27 55
-4 0 -8 9 -8 20 0 11 -4 20 -10 20 -5 0 -10 7 -10 16 0 9 -11 27 -24 39 -17
16 -21 26 -14 33 7 7 4 21 -11 45 -11 19 -21 41 -21 49 0 8 -13 32 -30 54 -16
21 -32 55 -36 74 -4 19 -15 47 -25 62 -11 14 -19 33 -19 41 0 8 -6 20 -14 26
-8 7 -17 27 -20 46 -4 19 -11 35 -16 35 -6 0 -10 5 -10 10 0 26 -43 98 -55 94
-7 -3 -16 -1 -20 5 -24 40 -34 -27 -10 -69 8 -14 14 -33 15 -43 0 -11 9 -31
19 -46 11 -14 21 -40 24 -57 5 -30 20 -63 43 -94 7 -8 15 -34 19 -57 3 -23 13
-44 21 -47 8 -3 14 -14 14 -24 0 -10 9 -28 19 -39 11 -11 24 -39 30 -61 6 -22
18 -45 26 -52 8 -7 15 -18 15 -24 0 -6 9 -28 20 -49 11 -20 18 -37 15 -37 -4
0 36 -65 55 -87 5 -7 10 -19 10 -27 0 -9 13 -37 29 -63 51 -84 32 -115 -77
-132 -133 -21 -208 -33 -252 -41 -25 -5 -67 -9 -93 -9 -27 -1 -58 -6 -69 -12
-28 -15 -94 -20 -343 -25 -174 -3 -224 -1 -290 14 l-80 17 1 60 c2 62 19 179
31 205 3 8 7 18 7 22 1 3 4 10 9 14 4 4 7 23 7 41 0 19 11 68 25 109 14 41 25
83 25 93 0 10 7 24 15 31 8 7 17 28 21 49 3 20 15 55 26 79 16 34 19 52 13 85
-14 74 -9 203 7 213 12 8 9 48 -5 68 -12 16 -14 14 -27 -26 -7 -23 -20 -51
-28 -60 -8 -9 -16 -34 -17 -55 -2 -21 -12 -66 -24 -100 -12 -34 -21 -82 -21
-105 0 -24 -9 -67 -19 -96 -11 -29 -18 -63 -15 -77 6 -33 -13 -78 -30 -72 -10
4 -12 0 -9 -14 3 -11 -2 -40 -12 -64 -9 -25 -21 -71 -26 -103 -6 -31 -13 -73
-16 -92 -3 -19 -12 -44 -19 -55 -8 -11 -14 -31 -14 -45 0 -26 -42 -80 -63 -80
-28 0 -193 44 -207 55 -8 7 -33 16 -55 19 -22 4 -64 16 -93 27 -30 10 -57 17
-61 14 -5 -2 -16 4 -26 15 -10 11 -26 20 -36 20 -10 0 -21 5 -24 10 -3 6 -21
10 -38 10 -33 0 -177 67 -177 82 0 4 -5 8 -12 8 -18 0 -101 42 -122 62 -11 10
-34 22 -52 28 -22 8 -31 16 -28 25 3 8 -6 25 -21 39 -23 21 -26 29 -18 53 6
17 18 29 31 31 12 2 34 19 48 38 15 19 29 33 31 30 4 -4 85 76 261 256 34 36
62 70 62 76 0 28 40 80 74 97 46 23 70 125 30 125 -8 0 -14 5 -14 10 0 18 -55
-17 -82 -52 -14 -18 -36 -45 -49 -59 -38 -41 -69 -87 -69 -101 0 -7 -9 -19
-20 -25 -11 -7 -27 -27 -36 -45 -9 -18 -32 -49 -50 -68 -19 -19 -34 -38 -34
-42 0 -13 -79 -88 -92 -88 -15 0 -78 -60 -78 -75 0 -5 -9 -16 -21 -23 -16 -11
-18 -16 -9 -28 8 -9 9 -14 2 -14 -6 0 -14 5 -18 11 -5 8 -10 6 -16 -5 -10 -17
-38 -22 -38 -7 0 6 -8 10 -17 10 -48 1 -65 10 -115 63 -86 91 -103 112 -103
128 0 8 -10 16 -23 18 -14 2 -31 18 -45 42 -12 22 -31 44 -43 50 -11 6 -28 27
-39 46 -10 19 -24 34 -31 34 -7 0 -31 26 -53 59 -39 57 -93 111 -112 111 -5 0
-9 6 -9 14 0 8 -10 23 -23 33 -32 26 -57 64 -57 88 0 12 -11 32 -25 45 -14 13
-25 29 -25 36 0 7 -8 18 -17 23 -14 8 -15 10 -3 11 9 0 1 13 -21 34 -19 19
-41 54 -49 78 -7 24 -23 57 -36 73 -12 17 -26 47 -32 67 -8 31 -7 39 7 52 10
9 26 16 37 16 11 0 25 5 31 11 6 6 35 12 64 14 30 2 76 13 102 24 27 12 62 21
78 21 16 0 37 4 47 9 39 20 89 39 120 45 17 4 32 12 32 17 0 5 11 9 24 9 13 0
37 7 52 15 16 8 43 15 59 15 17 1 48 8 70 16 22 8 65 19 97 24 31 4 71 15 90
23 18 8 45 19 61 25 24 10 47 45 47 72 0 8 -30 11 -105 12 -57 0 -130 -15
-147 -29 -9 -8 -21 -12 -27 -9 -10 6 -102 -14 -111 -24 -3 -3 -27 -14 -55 -24
-27 -10 -59 -24 -70 -31 -11 -6 -42 -18 -68 -26 -27 -7 -57 -22 -67 -31 -11
-10 -23 -17 -27 -16 -4 1 -17 -3 -28 -9 -11 -6 -46 -14 -77 -17 -57 -7 -112
-28 -123 -47 -4 -5 -11 -6 -17 -3 -6 4 -23 -7 -37 -25 l-27 -32 -23 20 c-12
11 -29 17 -37 14 -10 -4 -12 0 -8 11 3 9 2 16 -3 16 -6 0 -16 18 -23 40 -7 22
-17 40 -22 40 -5 0 -8 6 -7 13 1 6 -1 19 -4 27 -3 8 -13 53 -22 100 -9 47 -23
99 -31 117 -8 17 -14 40 -14 50 0 10 -6 25 -12 32 -10 11 -10 14 0 18 17 6 15
33 -2 33 -20 0 -25 19 -36 148 -6 65 -15 118 -20 120 -5 2 -5 14 1 29 7 18 6
28 -1 33 -7 4 -12 43 -12 96 -1 49 -4 91 -8 94 -3 3 -4 56 -2 118 l4 114 42
-5 c74 -10 91 -14 204 -56 62 -23 123 -41 137 -41 13 0 41 -7 62 -16 21 -9 47
-20 58 -24 11 -4 32 -12 46 -18 15 -6 37 -8 49 -5 16 4 23 0 27 -16 4 -15 13
-21 32 -21 14 0 57 -11 95 -25 38 -14 77 -25 87 -25 11 0 19 -4 19 -10 0 -5 6
-10 13 -10 7 0 22 -8 33 -19 12 -10 45 -24 75 -30 29 -7 64 -19 77 -27 12 -8
27 -12 32 -9 5 3 20 -1 32 -8 26 -17 204 -21 214 -6 11 18 -7 45 -38 57 -28
11 -168 51 -245 69 -12 3 -28 11 -34 19 -6 8 -19 14 -28 14 -9 0 -26 7 -38 15
-12 8 -52 24 -90 36 -37 11 -77 24 -88 29 -76 34 -159 64 -215 76 -36 9 -72
18 -80 21 -8 3 -26 7 -38 9 -13 1 -34 10 -48 18 -13 9 -37 16 -53 16 -17 0
-34 6 -38 13 -4 7 -46 19 -93 26 -47 7 -88 18 -92 24 -5 8 -11 7 -22 -2 -21
-17 -56 3 -56 32 0 13 -5 28 -11 34 -13 13 -4 33 17 33 19 0 18 13 -4 35 -20
21 -18 75 2 75 16 0 50 103 44 134 -3 15 0 31 8 37 8 6 14 22 14 35 0 13 8 45
19 71 10 26 16 54 14 61 -3 6 0 12 6 12 6 0 11 11 11 24 0 14 5 28 10 31 6 3
10 16 10 28 0 25 28 103 47 132 7 11 13 29 13 42 0 12 5 25 10 28 6 3 10 17
10 31 0 13 9 29 20 36 11 7 20 20 20 29 0 9 8 23 18 33 11 9 25 34 32 56 7 22
21 47 32 56 10 10 18 22 18 28 0 15 57 39 75 32 8 -3 15 -12 15 -20 0 -8 14
-25 31 -37 17 -12 54 -43 82 -68 28 -25 62 -56 76 -69 14 -12 48 -42 76 -67
27 -25 55 -45 63 -45 7 0 12 -8 10 -17 -2 -12 4 -19 19 -21 13 -2 24 -13 27
-28 4 -13 12 -24 19 -24 6 0 26 -20 42 -45 17 -24 34 -45 40 -45 5 0 72 -64
150 -143 77 -79 163 -163 192 -187 28 -24 50 -47 48 -51 -3 -3 7 -11 20 -17
14 -7 25 -16 25 -22 0 -11 60 -69 72 -70 9 0 58 -49 58 -58 0 -4 11 -15 24
-24 23 -17 24 -17 29 7 3 16 -3 33 -17 48 -11 13 -46 52 -76 87 -54 62 -230
240 -238 240 -2 0 -15 14 -29 31 -15 17 -37 35 -50 40 -12 5 -23 15 -23 23 0
7 -9 16 -20 19 -11 3 -23 13 -26 22 -10 24 -49 65 -63 65 -6 0 -11 4 -11 8 0
4 -17 26 -37 48 -21 21 -52 56 -69 75 -17 20 -38 40 -46 45 -9 5 -62 53 -119
107 -56 53 -108 97 -114 97 -6 0 -18 8 -27 19 -8 10 -20 20 -24 22 -20 9 -104
115 -104 132 0 32 41 99 96 156 30 31 54 61 54 66 0 6 21 22 45 37 28 17 45
34 45 46 0 13 12 24 33 33 17 7 37 18 44 24 6 5 26 21 44 35 19 14 47 40 64
57 17 19 43 34 60 37 44 6 64 16 59 30 -3 8 6 15 23 19 15 3 38 15 51 27 12
11 22 16 22 10 0 -5 5 -10 11 -10 6 0 9 9 6 20 -4 15 0 20 15 20 26 0 125 56
136 77 7 11 11 12 16 4 4 -6 20 -11 37 -11 29 0 38 -11 80 -100 6 -14 20 -41
30 -61 11 -20 19 -43 19 -51 0 -8 18 -43 40 -77 22 -34 40 -65 40 -69 0 -4 20
-30 45 -57 25 -28 55 -67 65 -87 11 -20 30 -40 42 -43 13 -4 31 -14 41 -23 9
-8 20 -12 24 -8 4 4 2 10 -4 14 -7 4 -19 24 -27 43 -8 20 -22 41 -30 49 -9 7
-16 19 -16 26 0 8 -4 14 -10 14 -5 0 -10 6 -10 13 0 7 -6 19 -12 25 -7 7 -26
37 -43 66 -16 29 -46 77 -66 107 -38 58 -99 190 -99 214 0 8 9 19 20 25 24 13
26 30 4 30 -8 0 -12 4 -9 10 3 6 -1 7 -9 4 -9 -3 -16 -2 -16 3 0 4 19 17 43
27 35 15 49 17 82 8 36 -9 43 -8 72 14 32 24 43 26 177 24 15 0 34 4 42 11 7
6 17 8 22 5 17 -10 107 -14 118 -5 6 5 73 12 150 16 105 6 151 5 189 -5 64
-18 101 -21 117 -11 7 5 9 9 3 9 -5 0 8 11 30 23 41 24 111 29 220 15z m1115
-368 c0 -5 -2 -10 -4 -10 -3 0 -8 5 -11 10 -3 6 -1 10 4 10 6 0 11 -4 11 -10z
m45 -40 c10 -11 14 -20 8 -20 -5 0 -18 9 -28 20 -10 11 -14 20 -8 20 5 0 18
-9 28 -20z m-2700 -4210 c3 -5 1 -10 -4 -10 -6 0 -11 5 -11 10 0 6 2 10 4 10
3 0 8 -4 11 -10z"/>
<path d="M5365 8261 c-70 -10 -146 -46 -175 -83 -14 -17 -40 -48 -57 -68 -18
-21 -33 -41 -33 -45 0 -4 -11 -16 -25 -27 -14 -11 -25 -30 -25 -43 0 -12 -6
-25 -14 -28 -20 -8 -39 -101 -32 -160 10 -92 18 -132 27 -137 4 -3 17 -26 28
-50 50 -110 89 -158 132 -167 19 -3 39 -12 44 -18 6 -6 29 -18 53 -25 23 -7
42 -17 42 -22 0 -5 4 -7 9 -3 5 3 12 1 16 -5 3 -5 18 -10 33 -10 22 0 24 -2
12 -11 -11 -7 -6 -8 20 -3 19 4 55 8 80 9 64 4 120 16 120 26 0 5 13 9 30 9
16 0 45 9 63 19 19 11 69 25 111 31 51 9 76 17 76 26 0 10 13 14 40 14 34 0
41 4 46 25 4 16 13 25 25 25 25 0 44 46 28 66 -9 11 -8 20 5 39 9 13 16 31 16
40 0 8 5 23 11 33 9 14 4 28 -25 72 -20 30 -36 60 -36 66 0 6 -6 17 -14 23 -8
7 -17 23 -21 38 -7 29 -29 55 -39 46 -3 -4 -6 0 -6 8 0 32 -41 97 -77 124 -21
16 -39 33 -41 37 -2 4 -10 8 -17 8 -8 0 -51 19 -97 43 -126 65 -236 91 -333
78z m377 -316 c10 -11 22 -24 28 -30 5 -5 23 -23 39 -40 39 -38 66 -88 58
-108 -5 -14 -13 -10 -43 18 -20 19 -42 35 -49 35 -15 0 -48 38 -63 73 -7 17
-19 27 -32 27 -14 0 -20 7 -20 23 0 51 39 52 82 2z m88 30 c10 -12 10 -15 -1
-15 -28 0 -59 13 -53 21 8 14 40 10 54 -6z m-496 -129 c3 -14 1 -37 -6 -53
-13 -32 -13 -30 -4 -59 5 -15 0 -23 -16 -31 -24 -11 -48 -7 -48 7 0 5 10 12
22 16 l22 7 -25 18 c-20 14 -26 28 -28 63 -2 39 1 45 21 49 48 9 56 7 62 -17z
m428 -121 c-6 -74 -18 -89 -61 -78 -23 6 -23 30 0 25 8 -1 6 4 -5 13 -11 8
-17 18 -13 21 4 4 2 13 -3 19 -12 14 3 30 35 38 42 10 50 4 47 -38z m-52 -105
c0 -5 -4 -10 -10 -10 -5 0 -10 5 -10 10 0 6 5 10 10 10 6 0 10 -4 10 -10z"/>
<path d="M7060 8176 c0 -51 2 -57 15 -46 19 16 19 29 0 71 l-14 34 -1 -59z"/>
<path d="M7530 8155 c0 -18 19 -40 26 -32 4 4 0 15 -9 24 -9 10 -17 13 -17 8z"/>
<path d="M6937 8046 c-4 -10 -1 -16 9 -16 9 0 14 -6 11 -12 -2 -7 -14 -13 -27
-13 -14 0 -26 -9 -31 -22 -6 -18 -3 -22 24 -27 32 -7 42 1 53 41 7 28 -30 74
-39 49z"/>
<path d="M6858 7931 c-10 -10 -21 -32 -24 -50 -4 -18 -13 -35 -20 -38 -8 -3
-14 -11 -14 -18 0 -7 -9 -15 -20 -18 -11 -3 -20 -12 -20 -21 0 -10 -6 -13 -15
-10 -8 4 -15 1 -15 -5 0 -6 4 -11 8 -11 5 0 18 -9 31 -21 l22 -21 6 21 c3 12
13 21 22 21 24 0 41 14 46 36 2 10 17 46 34 78 17 33 30 60 28 61 -16 13 -55
10 -69 -4z"/>
<path d="M6720 7741 c0 -4 -18 -29 -41 -55 -22 -25 -37 -47 -32 -47 4 -1 15
-2 23 -3 8 0 14 -9 14 -18 -1 -10 5 -18 13 -18 10 0 13 5 8 18 -12 28 -11 45
3 49 7 3 10 -1 6 -11 -4 -11 -1 -16 10 -16 18 0 17 -2 19 57 1 26 -3 45 -10
48 -7 2 -13 1 -13 -4z"/>
<path d="M6624 7612 c-6 -4 -13 -15 -17 -24 -5 -15 -4 -15 24 0 16 9 29 20 29
25 0 9 -22 9 -36 -1z"/>
<path d="M7682 7308 c2 -8 -8 -13 -29 -13 -37 -1 -38 -1 -47 -38 -6 -24 -4
-28 11 -25 11 2 18 12 17 25 l0 22 27 -20 c15 -10 33 -19 41 -19 50 2 55 72 5
78 -19 2 -27 -1 -25 -10z"/>
<path d="M7485 7236 c-44 -16 -55 -25 -49 -41 5 -11 -5 -13 -50 -8 -46 5 -57
3 -62 -11 -3 -9 -14 -16 -24 -16 -10 0 -23 -7 -30 -15 -7 -8 -25 -15 -40 -15
-15 0 -33 -7 -40 -15 -7 -8 -21 -15 -31 -15 -24 0 -24 -9 -1 -26 23 -18 32
-17 32 1 0 14 55 21 126 16 11 -1 27 5 34 13 7 9 18 16 26 16 7 0 18 9 24 20
8 15 23 20 73 23 46 2 56 5 40 11 -34 12 -16 28 23 20 28 -5 34 -3 34 11 0 12
-6 16 -20 12 -23 -6 -26 3 -8 21 15 15 -14 15 -57 -2z"/>
<path d="M5825 7143 c-51 -6 -115 -25 -115 -34 0 -5 -27 -9 -59 -9 -33 0 -63
-4 -66 -10 -3 -5 -26 -10 -50 -10 -24 0 -46 -4 -49 -9 -3 -5 -15 -7 -26 -4
-11 3 -35 -2 -54 -11 -19 -9 -57 -16 -84 -16 -28 0 -54 -5 -57 -10 -4 -6 -11
-8 -16 -4 -13 7 -69 -18 -69 -32 0 -20 -53 -57 -82 -56 -36 1 -36 -13 -1 -30
27 -13 36 -41 22 -63 -4 -5 -10 -26 -14 -45 -4 -19 -18 -48 -31 -63 -13 -16
-24 -33 -24 -38 0 -20 -53 -79 -71 -79 -13 0 -20 -10 -24 -34 -4 -19 -15 -43
-26 -55 -10 -11 -19 -27 -19 -34 0 -8 -7 -20 -15 -27 -14 -12 -15 -5 -10 61
12 140 11 153 -7 157 -22 4 -49 -38 -50 -77 -1 -17 -10 -38 -20 -48 -13 -12
-17 -25 -13 -44 4 -15 1 -30 -5 -34 -5 -3 -8 -10 -6 -13 7 -12 -13 -234 -23
-246 -5 -6 -6 -32 -2 -58 4 -26 3 -54 -2 -63 -6 -11 -5 -25 1 -39 6 -11 13
-48 17 -81 3 -33 10 -85 15 -115 6 -30 11 -82 13 -115 2 -33 11 -76 21 -95 10
-19 23 -45 29 -56 6 -12 31 -34 55 -48 41 -25 49 -27 86 -16 23 6 47 12 54 14
7 1 18 8 24 14 7 7 17 12 22 12 29 1 96 83 96 116 0 9 11 27 25 40 14 13 25
33 25 46 0 13 6 55 14 95 13 67 12 73 -5 92 -24 26 -26 114 -3 159 8 18 12 37
9 43 -4 6 2 13 14 16 23 6 27 18 10 28 -6 4 -8 13 -5 21 3 8 0 14 -7 14 -8 0
-8 3 -1 8 5 4 15 23 20 42 12 45 44 54 44 13 0 -62 12 -103 30 -103 10 0 23 7
30 15 15 19 32 7 56 -39 13 -25 16 -59 15 -180 -1 -83 -5 -155 -10 -160 -8
-10 -27 -311 -24 -383 1 -21 -3 -33 -12 -33 -13 0 -24 38 -29 100 -2 23 -9 36
-20 38 -9 2 -16 10 -16 19 0 9 6 13 15 9 18 -6 21 29 4 39 -6 5 -4 11 7 19 13
10 15 21 10 52 -4 21 -8 48 -9 59 -1 13 -10 21 -24 21 l-22 2 2 -207 2 -208
30 -42 c16 -24 39 -47 51 -51 12 -5 25 -13 28 -18 3 -5 18 -8 33 -6 15 1 34
-2 41 -9 16 -13 355 -20 347 -7 -3 5 -1 11 4 14 5 4 12 2 16 -4 8 -13 55 -13
55 1 0 6 18 10 43 8 23 -1 49 1 57 4 8 3 47 7 87 9 50 3 77 9 91 21 10 9 32
17 48 17 36 0 39 2 97 71 45 54 47 59 47 117 0 33 5 64 10 67 8 5 8 11 0 20
-5 7 -15 64 -21 126 -7 72 -18 129 -30 155 -13 27 -19 62 -19 107 0 51 -4 69
-15 73 -9 4 -15 19 -15 40 0 19 -4 34 -10 34 -5 0 -10 8 -10 18 0 9 -7 29 -14
44 -9 18 -11 30 -5 34 6 3 9 16 8 27 -1 12 7 41 17 64 17 39 22 43 56 43 31 0
43 -7 81 -51 30 -34 47 -64 51 -90 3 -21 11 -39 17 -39 6 0 8 -9 4 -20 -4 -12
-1 -28 6 -36 9 -11 14 -66 16 -177 2 -89 8 -166 13 -171 4 -4 6 -23 3 -41 -3
-22 0 -41 11 -56 9 -13 16 -32 16 -42 0 -30 42 -78 87 -98 72 -33 196 -1 253
64 8 10 26 23 40 30 13 7 30 23 36 35 6 13 19 29 30 36 16 12 18 28 16 167 -1
85 -2 205 -2 267 1 74 -3 119 -11 128 -6 8 -9 17 -6 21 3 3 -1 19 -9 35 -8 16
-12 32 -10 37 3 5 -3 20 -14 34 -12 14 -30 45 -41 69 -11 24 -36 65 -55 93
-19 27 -34 57 -34 66 0 9 -7 22 -15 29 -8 7 -15 28 -15 46 0 19 -4 34 -9 34
-5 0 -16 17 -24 38 -13 33 -26 44 -92 76 -42 21 -79 45 -82 54 -8 20 -104 112
-117 112 -5 0 -20 10 -34 23 -18 17 -35 22 -78 22 -36 0 -54 4 -54 13 0 6 5
12 12 12 9 0 9 3 0 12 -14 14 -180 20 -188 7 -8 -13 -44 -11 -44 3 0 9 -3 9
-12 0 -7 -7 -19 -12 -27 -12 -13 1 -13 2 2 11 9 5 17 14 17 19 0 15 -38 12
-43 -2 -4 -10 -8 -10 -14 -2 -4 6 -35 12 -67 13 -32 0 -72 8 -89 16 -17 8 -31
14 -31 14 -1 -1 -14 -4 -31 -6z m393 -92 c-1 -32 -16 -35 -42 -8 -21 21 -13
37 19 37 20 0 24 -5 23 -29z m-675 -58 c-9 -3 -9 -10 3 -28 14 -21 13 -24 -12
-44 -34 -27 -102 -29 -111 -3 -4 9 -16 24 -27 33 -17 14 -18 19 -7 33 10 12
31 16 90 15 42 0 70 -3 64 -6z m472 -14 c6 -18 14 -20 59 -18 29 1 57 -1 63
-4 7 -4 15 -2 19 4 3 6 9 7 13 2 9 -13 59 -33 83 -33 11 0 47 -12 79 -27 46
-23 59 -34 64 -58 4 -16 12 -36 18 -43 5 -7 8 -14 6 -16 -6 -6 -55 38 -62 55
-3 9 -6 5 -6 -8 -1 -17 -7 -23 -25 -23 -13 0 -27 7 -30 16 -4 10 -14 14 -26
11 -11 -3 -23 -1 -26 5 -3 5 -12 7 -20 4 -14 -5 -230 21 -245 30 -5 3 -9 12
-9 20 0 8 -6 14 -14 14 -8 0 -17 7 -20 16 -8 21 -8 49 0 41 4 -3 18 3 32 13
31 25 39 25 47 -1z m-678 -24 c-4 -8 -11 -15 -17 -15 -7 0 -7 6 0 21 13 23 26
19 17 -6z m321 -249 c1 -13 -5 -29 -13 -36 -8 -7 -15 -21 -15 -31 0 -22 -81
-65 -105 -55 -26 10 -16 70 13 74 12 2 22 8 22 13 0 5 5 9 11 9 7 0 22 11 35
25 29 32 49 32 52 1z m518 9 c6 -15 -11 -45 -26 -45 -10 0 -21 41 -14 52 9 13
34 9 40 -7z m542 -65 c18 -36 37 -67 42 -68 6 -2 8 -8 5 -13 -3 -5 0 -19 7
-31 7 -13 11 -26 11 -29 -1 -4 7 -15 17 -24 11 -10 20 -27 20 -38 0 -11 6 -28
14 -36 18 -21 36 -77 36 -112 0 -15 6 -32 13 -36 18 -11 41 -69 32 -82 -3 -6
-3 -11 2 -11 4 0 7 -21 7 -47 -1 -27 3 -53 7 -59 6 -7 3 -16 -6 -24 -12 -10
-20 -9 -40 4 -21 14 -25 24 -25 66 0 27 -4 51 -9 54 -4 3 -11 22 -14 42 -8 49
-29 93 -47 99 -8 3 -24 24 -34 48 -11 23 -30 50 -43 60 -13 10 -23 29 -23 41
0 13 -9 31 -19 40 -11 10 -17 24 -14 32 3 8 0 14 -6 14 -6 0 -11 9 -11 20 0
12 -11 31 -25 44 -31 29 -31 31 2 78 38 56 60 49 101 -32z m-698 -70 c0 -5 -7
-10 -16 -10 -9 0 -18 -9 -21 -20 -3 -11 -11 -20 -19 -20 -7 0 -17 -7 -22 -16
-17 -30 -32 -7 -16 24 7 15 14 33 14 40 0 7 15 12 40 12 22 0 40 -4 40 -10z
m424 -22 c20 -29 21 -77 1 -84 -22 -9 -89 21 -93 41 -5 21 35 65 59 65 10 0
25 -10 33 -22z m-1116 -70 c21 -21 13 -38 -17 -38 -37 0 -50 19 -26 37 23 16
28 16 43 1z m-382 -244 c-4 -9 -2 -22 4 -29 16 -19 21 -139 7 -169 -16 -34
-28 -33 -55 4 -17 23 -22 43 -22 92 0 54 4 66 27 90 30 31 48 37 39 12z m1734
-65 c0 -11 8 -32 19 -45 14 -17 20 -49 26 -119 4 -52 11 -95 16 -95 5 0 5 -7
0 -17 -5 -10 -12 -26 -15 -36 -8 -26 -38 -17 -46 14 -4 14 -6 61 -4 104 2 47
-1 84 -8 92 -8 10 -14 81 -9 118 2 16 21 1 21 -16z m-1107 -136 c-6 -94 -9
-97 -20 -23 -6 40 -6 70 0 78 19 25 25 10 20 -55z m410 -43 c-2 -73 -1 -70
-18 -70 -8 0 -15 -9 -15 -20 0 -14 5 -18 17 -13 13 5 15 2 10 -11 -4 -10 -7
-19 -7 -21 0 -2 -16 -12 -35 -21 -19 -9 -35 -22 -35 -29 0 -6 -9 -20 -20 -30
-11 -10 -20 -23 -20 -29 0 -6 -25 -31 -56 -54 -52 -40 -58 -42 -72 -28 -12 12
-13 16 -3 16 10 0 12 10 8 40 -3 22 -1 43 4 46 5 3 9 12 9 21 0 8 14 28 30 43
17 15 30 37 30 48 0 11 7 25 15 32 8 7 15 22 15 34 0 36 85 106 125 103 18 -2
20 -9 18 -57z m900 -38 c12 -26 -1 -42 -35 -42 -20 0 -25 34 -7 45 6 4 8 13 5
20 -2 7 1 18 7 24 9 9 13 8 15 -6 2 -10 8 -28 15 -41z m-633 -90 c0 -4 -6 -14
-12 -21 -10 -11 -10 -14 0 -18 15 -6 16 -39 2 -48 -6 -4 -8 -10 -5 -15 7 -11
-5 -40 -16 -40 -5 0 -6 14 -2 30 4 20 2 30 -7 30 -9 0 -10 11 -5 37 4 21 9 41
11 45 7 11 34 10 34 0z m-1155 -26 c0 -1 13 -16 29 -33 28 -31 29 -34 17 -71
-25 -74 -108 -89 -123 -22 -7 32 -1 115 9 132 3 6 68 0 68 -6z m895 -35 c0 -5
3 -16 6 -24 3 -8 -1 -21 -8 -28 -7 -8 -13 -23 -13 -34 0 -11 -8 -21 -17 -23
-15 -3 -18 4 -18 35 0 21 7 49 16 61 15 22 34 29 34 13z m756 -71 c7 0 17 -12
20 -27 4 -16 15 -37 26 -49 17 -20 18 -22 2 -35 -9 -8 -36 -14 -58 -14 -77 0
-112 73 -57 116 14 11 31 17 39 14 7 -3 20 -5 28 -5z m-1098 -127 c-2 -25 -8
-39 -19 -41 -20 -4 -27 25 -21 86 l4 42 20 -25 c13 -17 18 -37 16 -62z m562
-88 c7 -8 18 -15 25 -15 13 0 55 -46 55 -60 0 -4 -18 -19 -40 -34 -51 -34
-149 -47 -169 -23 -11 14 -7 21 23 49 20 18 36 36 36 40 0 9 42 55 51 57 4 1
12 -6 19 -14z m-431 -111 c8 -7 -33 -44 -49 -44 -9 0 -20 -3 -23 -7 -12 -11
-66 -13 -72 -3 -3 6 -1 10 4 10 6 0 11 7 11 16 0 8 5 12 10 9 6 -3 10 -1 10 4
0 6 8 11 19 11 10 0 24 7 31 15 9 11 17 12 34 3 11 -6 23 -12 25 -14z"/>
<path d="M6257 6904 c-4 -4 -7 -17 -7 -28 1 -19 1 -20 11 -3 11 19 8 43 -4 31z"/>
<path d="M4740 7061 c0 -30 44 -90 57 -78 3 4 3 7 -2 7 -4 0 -2 6 4 14 10 12
8 17 -8 25 -11 6 -21 21 -23 33 -5 35 -28 34 -28 -1z"/>
<path d="M7113 7054 c-4 -11 -13 -14 -29 -10 -14 4 -24 2 -24 -4 0 -5 16 -10
35 -10 28 0 35 4 35 20 0 24 -8 26 -17 4z"/>
<path d="M5350 6075 c0 -8 5 -15 10 -15 6 0 10 7 10 15 0 8 -4 15 -10 15 -5 0
-10 -7 -10 -15z"/>
<path d="M5330 5815 c0 -9 9 -15 21 -15 18 0 19 2 9 15 -7 8 -16 15 -21 15 -5
0 -9 -7 -9 -15z"/>
<path d="M6796 5264 c-3 -9 0 -24 7 -33 27 -39 77 -91 87 -91 6 0 10 -6 9 -12
-3 -12 190 -218 204 -218 11 0 57 -47 57 -59 0 -6 4 -11 9 -11 4 0 85 -75 178
-168 105 -104 178 -168 191 -169 32 -3 27 20 -13 64 -19 21 -38 46 -41 56 -3
10 -11 16 -17 14 -10 -3 -47 27 -47 39 0 14 -54 74 -67 74 -9 0 -12 6 -8 19 4
13 0 20 -15 24 -11 3 -20 12 -20 21 0 9 -8 16 -20 16 -12 0 -24 9 -29 23 -13
32 -44 65 -58 60 -6 -2 -19 10 -28 27 -9 17 -34 43 -56 60 -22 16 -52 44 -67
63 -15 18 -34 40 -42 49 -8 8 -25 26 -37 39 -12 13 -28 29 -35 34 -7 6 -36 29
-64 53 -56 46 -69 50 -78 26z m664 -654 c0 -5 -2 -10 -4 -10 -3 0 -8 5 -11 10
-3 6 -1 10 4 10 6 0 11 -4 11 -10z"/>
<path d="M4310 9195 c-10 -12 -10 -15 4 -15 9 0 16 7 16 15 0 8 -2 15 -4 15
-2 0 -9 -7 -16 -15z"/>
<path d="M4192 9152 c-22 -14 -41 -19 -84 -21 -11 -1 -18 -9 -18 -21 0 -11 -7
-23 -15 -26 -21 -8 27 -70 61 -78 47 -12 63 0 57 45 -4 27 -1 45 9 57 19 22
29 50 20 56 -4 2 -17 -3 -30 -12z"/>
<path d="M6820 9107 c0 -13 31 -46 56 -60 7 -4 28 0 47 8 19 8 37 11 41 8 3
-4 6 -2 6 3 0 6 -24 17 -52 27 -91 28 -98 29 -98 14z"/>
<path d="M1657 8966 c-17 -9 -24 -25 -32 -71 -10 -55 -41 -125 -56 -125 -3 0
-4 -11 -1 -25 3 -16 -2 -33 -13 -45 -11 -12 -14 -26 -10 -39 4 -15 1 -23 -10
-27 -9 -4 -14 -13 -11 -20 3 -7 1 -16 -4 -19 -6 -4 -10 -15 -10 -25 0 -10 -7
-25 -15 -34 -8 -8 -15 -20 -15 -27 0 -35 -45 -185 -59 -195 -10 -8 -14 -25
-13 -52 2 -22 -1 -43 -7 -47 -6 -3 -11 -28 -11 -55 0 -32 -7 -61 -21 -85 -12
-20 -23 -50 -25 -67 -2 -17 -11 -45 -20 -62 -18 -35 -55 -164 -61 -216 -2 -19
-8 -44 -12 -55 -14 -32 -30 -98 -29 -120 1 -68 -6 -135 -14 -135 -5 0 -8 -19
-7 -42 3 -47 -9 -127 -21 -143 -4 -5 -12 -31 -18 -58 -8 -39 -7 -49 5 -56 12
-6 13 -15 3 -52 -7 -24 -12 -67 -11 -95 1 -29 -5 -64 -15 -83 -12 -25 -14 -38
-5 -59 6 -15 12 -76 15 -137 6 -156 13 -205 30 -224 20 -22 20 -35 0 -52 -18
-15 -13 -83 12 -136 19 -41 46 -45 39 -5 -13 71 -35 286 -35 336 0 30 -4 58
-10 61 -11 7 -14 48 -4 57 3 4 8 50 10 105 3 54 6 139 9 188 2 50 4 107 5 127
0 20 6 43 13 50 14 14 43 106 39 125 -1 6 2 14 8 18 5 3 10 5 11 3 0 -2 3 -33
6 -70 4 -55 2 -69 -10 -74 -12 -4 -14 -11 -6 -31 5 -13 9 -37 9 -52 0 -15 5
-32 11 -38 8 -8 6 -19 -5 -42 -15 -28 -15 -31 -1 -31 12 0 14 -10 11 -52 -2
-29 -1 -75 4 -101 4 -27 4 -63 1 -80 -4 -17 0 -59 8 -92 8 -33 15 -100 16
-150 2 -115 12 -209 31 -309 9 -43 14 -90 11 -105 -3 -14 2 -41 10 -58 16 -34
33 -44 33 -19 0 8 5 16 12 18 9 3 9 22 0 84 -7 43 -12 106 -12 139 0 33 -5 87
-10 120 -14 78 -18 118 -24 240 -3 55 -11 165 -18 245 -19 214 -12 636 11 663
5 7 11 44 14 82 6 87 38 239 60 282 10 18 17 51 17 75 0 24 8 56 19 74 11 18
17 41 14 56 -5 27 33 197 48 213 5 5 9 21 9 36 0 15 5 31 10 34 6 3 10 26 10
51 0 24 5 44 10 44 6 0 10 13 10 29 0 16 7 34 15 41 9 7 14 19 11 26 -7 18 64
154 79 154 7 0 16 7 19 16 5 13 9 14 21 4 13 -11 15 -7 16 21 1 19 1 38 0 43
-1 5 -2 23 -3 40 -1 79 -7 94 -38 98 -17 3 -40 0 -53 -6z m-470 -1998 c-3 -8
-6 -5 -6 6 -1 11 2 17 5 13 3 -3 4 -12 1 -19z"/>
<path d="M3426 8965 c-18 -18 -21 -35 -6 -35 6 0 10 4 10 9 0 5 7 11 15 13 9
2 12 8 6 16 -6 11 -11 10 -25 -3z"/>
<path d="M7490 8866 c0 -8 5 -18 10 -21 6 -3 10 3 10 14 0 12 -4 21 -10 21 -5
0 -10 -6 -10 -14z"/>
<path d="M7650 8716 c0 -8 106 -116 113 -116 7 0 0 11 -30 45 -7 7 -13 18 -13
24 0 6 -7 11 -15 11 -8 0 -19 9 -25 20 -9 17 -30 28 -30 16z"/>
<path d="M2740 8599 c0 -5 5 -7 10 -4 6 3 10 8 10 11 0 2 -4 4 -10 4 -5 0 -10
-5 -10 -11z"/>
<path d="M2680 8575 c0 -8 -6 -15 -13 -15 -8 0 -20 -19 -27 -42 -7 -24 -17
-52 -22 -64 -5 -11 -9 -27 -7 -35 1 -8 -8 -35 -20 -61 -14 -31 -19 -56 -15
-73 5 -19 2 -25 -11 -25 -12 0 -16 -7 -13 -27 2 -16 8 -28 15 -28 23 0 24 -13
1 -20 -32 -11 -38 -22 -38 -82 0 -39 -4 -53 -14 -53 -19 0 -25 -112 -9 -159 8
-24 9 -40 2 -50 -9 -14 -10 -13 -5 2 3 11 2 15 -4 12 -10 -6 -14 -95 -4 -95
21 0 42 22 37 40 -3 11 -2 76 2 144 6 105 10 125 24 129 12 3 21 23 30 63 19
90 20 94 10 100 -16 9 -10 39 11 57 11 9 20 26 20 36 0 11 5 23 10 26 6 4 9
25 7 46 -3 31 -1 39 9 35 8 -3 14 -1 14 5 0 5 9 30 20 55 12 24 18 49 15 54
-3 6 -1 10 4 10 6 0 11 7 11 15 0 8 -9 15 -20 15 -11 0 -20 -7 -20 -15z"/>
<path d="M7817 8573 c-12 -11 -8 -35 5 -27 7 5 9 2 5 -8 -5 -15 9 -38 25 -38
13 0 9 24 -10 53 -10 15 -22 24 -25 20z"/>
<path d="M8376 7554 c-4 -10 0 -24 9 -33 13 -14 15 -13 15 4 0 11 -4 26 -9 33
-6 11 -10 10 -15 -4z"/>
<path d="M8475 7313 c5 -10 11 -36 14 -58 8 -48 40 -105 61 -106 11 0 11 -2 2
-6 -10 -4 -10 -8 -1 -19 17 -21 29 -17 29 10 0 37 -18 76 -35 76 -8 0 -14 3
-13 8 5 14 -37 102 -51 107 -9 4 -11 0 -6 -12z"/>
<path d="M8580 7062 c0 -19 31 -70 46 -76 13 -5 15 -1 9 21 -9 36 -55 81 -55
55z"/>
<path d="M2608 6890 c-13 -8 -16 -22 -13 -67 4 -62 21 -82 30 -36 3 15 10 43
16 60 15 47 2 63 -33 43z"/>
<path d="M8795 6560 c-8 -13 4 -32 16 -25 12 8 12 35 0 35 -6 0 -13 -4 -16
-10z"/>
<path d="M1204 6144 c4 -46 3 -80 -3 -88 -11 -13 -9 -29 6 -66 6 -14 15 -43
21 -65 5 -22 15 -60 22 -85 6 -25 16 -67 21 -95 6 -27 19 -57 29 -65 14 -11
20 -31 22 -78 1 -35 6 -66 10 -68 5 -3 8 -14 8 -24 0 -10 9 -34 20 -53 12 -19
20 -39 18 -43 -3 -14 26 -96 53 -146 5 -10 9 -24 9 -32 0 -7 8 -35 19 -62 10
-27 31 -82 46 -122 16 -40 34 -77 41 -83 7 -5 15 -28 19 -50 4 -21 11 -39 15
-39 5 0 12 -17 15 -37 3 -21 19 -64 36 -96 16 -32 29 -64 29 -72 0 -7 7 -15
15 -19 8 -3 15 -12 15 -20 0 -8 8 -31 19 -53 64 -131 83 -175 78 -180 -4 -3 3
-17 13 -31 11 -13 20 -30 20 -37 0 -6 9 -20 20 -30 11 -10 20 -23 20 -30 0
-23 44 -101 88 -155 24 -30 53 -74 63 -97 10 -24 25 -43 33 -43 9 0 17 -15 21
-41 4 -22 13 -43 21 -46 7 -3 16 -20 20 -39 3 -19 11 -34 16 -34 14 0 47 -40
64 -77 8 -18 18 -33 24 -33 5 0 15 -11 22 -24 23 -41 109 -151 126 -160 10 -5
34 -28 54 -50 71 -77 121 -126 128 -126 4 0 7 21 6 48 -5 103 -4 102 -31 102
-19 0 -29 10 -45 40 -11 21 -20 46 -20 55 0 8 -7 15 -15 15 -8 0 -15 7 -15 15
0 8 -13 21 -30 30 -16 9 -30 19 -30 23 0 11 -100 112 -111 112 -5 0 -9 7 -9
15 0 24 -54 94 -72 95 -10 0 -18 8 -18 18 0 9 -9 28 -20 42 -11 14 -20 32 -20
41 0 9 -7 19 -15 23 -8 3 -15 13 -15 23 0 10 -11 38 -25 62 -14 23 -25 48 -25
55 0 7 -14 34 -30 60 -17 27 -37 69 -43 95 -7 25 -27 68 -45 95 -18 28 -32 54
-32 58 0 10 -36 94 -55 128 -23 40 -32 62 -46 108 -7 23 -16 42 -20 42 -4 0
-10 19 -14 42 -4 23 -16 49 -27 57 -10 9 -20 27 -21 41 -2 14 -12 45 -23 70
-34 73 -46 107 -43 121 1 8 -3 27 -9 42 -7 16 -12 35 -12 42 0 8 -12 40 -26
70 -14 31 -24 68 -23 83 5 61 -2 103 -19 120 -10 10 -19 35 -20 57 -4 73 -14
116 -28 122 -10 4 -11 10 -4 24 11 19 3 96 -11 114 -4 6 -9 39 -10 75 -1 36
-6 76 -11 90 -4 14 -10 38 -13 53 -5 24 -9 27 -28 21 -32 -10 -34 -14 -13 -29
11 -9 16 -20 12 -31 -5 -13 -9 -14 -21 -4 -8 7 -15 8 -15 2 0 -5 7 -15 16 -22
11 -10 15 -31 15 -74 -1 -34 -1 -79 -1 -102 0 -25 5 -46 15 -54 8 -7 15 -21
15 -32 0 -11 7 -26 15 -34 8 -9 15 -31 15 -50 0 -27 -4 -34 -20 -34 -11 0 -20
-5 -20 -11 0 -5 4 -8 9 -5 4 3 17 -2 28 -12 16 -13 18 -21 9 -34 -8 -13 -8
-23 2 -38 6 -11 12 -34 12 -51 0 -68 -46 -3 -89 124 -18 54 -20 71 -11 83 10
11 9 14 -3 14 -20 0 -27 23 -25 80 1 35 -6 57 -30 98 -18 29 -32 59 -32 67 0
8 -4 16 -9 19 -5 3 -11 20 -14 38 -3 18 -11 53 -17 78 -7 25 -12 64 -12 87 0
35 -2 41 -16 36 -14 -6 -15 -4 -4 9 10 13 10 17 0 21 -9 4 -10 8 -2 14 17 12
5 73 -14 73 -12 0 -14 -12 -8 -76z m346 -793 c0 -6 -4 -13 -10 -16 -5 -3 -10
1 -10 9 0 9 5 16 10 16 6 0 10 -4 10 -9z m65 -361 c3 -5 1 -10 -4 -10 -6 0
-11 5 -11 10 0 6 2 10 4 10 3 0 8 -4 11 -10z"/>
<path d="M8872 6110 c0 -14 2 -19 5 -12 2 6 2 18 0 25 -3 6 -5 1 -5 -13z"/>
<path d="M8532 5579 c-13 -32 -5 -69 14 -69 8 0 14 -4 14 -10 0 -5 7 -10 16
-10 10 0 14 7 12 18 -2 9 -10 16 -17 14 -8 -2 -11 3 -8 10 2 8 -1 27 -8 43
l-13 30 -10 -26z"/>
<path d="M2908 5074 c21 -10 13 -26 -10 -19 -23 6 -23 6 -3 -9 23 -18 35 -29
53 -51 16 -19 42 -20 42 0 0 8 -4 15 -10 15 -17 0 -50 38 -37 43 16 6 8 13
-23 21 -14 3 -19 3 -12 0z"/>
<path d="M2980 4935 c0 -15 38 -40 47 -31 7 7 -26 46 -39 46 -4 0 -8 -7 -8
-15z"/>
<path d="M3040 4869 c0 -24 23 -21 28 4 2 10 -3 17 -12 17 -10 0 -16 -9 -16
-21z"/>
<path d="M3070 4836 c0 -8 6 -21 13 -28 7 -7 20 -25 30 -40 10 -16 26 -28 37
-28 18 0 18 2 -5 36 -13 19 -27 44 -30 55 -7 22 -45 26 -45 5z"/>
<path d="M8023 4270 c-24 -10 -31 -30 -10 -30 14 1 47 24 47 34 0 8 -10 7 -37
-4z"/>
<path d="M7453 4094 c-38 -18 -113 -110 -113 -137 0 -15 -8 -31 -17 -36 -17
-10 -17 -12 0 -25 17 -13 24 -12 58 6 21 11 39 25 39 32 0 12 76 56 97 56 6 0
19 10 28 23 8 12 19 21 22 20 13 -5 8 32 -8 55 -17 24 -65 27 -106 6z"/>
<path d="M7165 3946 c-104 -33 -167 -158 -97 -194 42 -22 88 -23 115 -2 14 11
30 20 36 20 6 0 11 4 11 9 0 5 2 15 5 23 3 9 -4 14 -21 15 -33 1 -42 15 -36
53 4 30 38 64 53 55 4 -3 9 1 12 9 3 8 -1 17 -9 20 -19 7 -20 7 -69 -8z"/>
<path d="M6300 3608 c0 -17 45 -37 56 -25 11 11 -8 28 -24 22 -8 -3 -19 0 -24
7 -6 10 -8 8 -8 -4z"/>
<path d="M5503 3575 c4 -9 7 -18 7 -20 0 -8 71 -17 87 -11 12 5 14 9 5 18 -7
7 -18 13 -26 14 -7 1 -28 5 -46 9 -28 6 -32 5 -27 -10z"/>
<path d="M6765 3537 c21 -15 70 -32 117 -42 14 -3 40 -16 56 -30 19 -16 42
-25 64 -25 44 0 52 9 32 31 -16 17 -16 19 0 25 23 9 1 34 -30 34 -25 0 -32
-14 -13 -25 7 -5 3 -14 -11 -27 -12 -11 -24 -17 -28 -13 -4 3 1 11 11 16 28
16 20 29 -18 29 -19 0 -35 4 -35 9 0 11 -29 18 -105 26 -54 6 -58 5 -40 -8z"/>
<path d="M5611 3524 c0 -11 3 -14 6 -6 3 7 2 16 -1 19 -3 4 -6 -2 -5 -13z"/>
<path d="M3530 3323 c-8 -2 -22 -7 -30 -11 -8 -3 -26 -7 -39 -8 -13 -2 -49
-28 -80 -58 -31 -30 -68 -64 -83 -76 -15 -11 -44 -49 -65 -83 -34 -57 -58 -89
-90 -122 -6 -7 -26 -40 -44 -74 -18 -35 -42 -70 -54 -79 -38 -31 -102 -117
-127 -172 -42 -90 -43 -98 -13 -126 26 -24 69 -32 79 -15 3 5 22 12 42 15 28
6 38 14 49 40 10 24 24 36 54 46 23 7 41 17 41 21 0 7 80 -18 164 -53 48 -19
74 -24 146 -29 73 -4 100 0 100 17 0 11 5 14 16 10 8 -3 36 -1 62 5 43 9 65
18 147 54 17 7 38 16 48 19 10 3 24 21 32 40 8 20 24 40 35 46 17 9 47 82 41
104 -1 5 6 17 15 27 10 11 17 35 17 59 0 22 4 43 8 46 16 10 9 43 -12 58 -16
11 -19 18 -11 32 15 28 -5 71 -39 83 -16 5 -29 14 -29 19 0 5 -29 28 -65 51
-36 22 -65 45 -65 50 0 5 -6 8 -12 8 -7 -1 -44 13 -81 31 -64 30 -118 39 -157
25z m156 -144 c8 -6 14 -8 14 -4 0 5 8 1 18 -8 10 -10 22 -14 25 -11 12 12 47
-79 36 -92 -13 -15 -1 -64 16 -64 23 0 85 -72 85 -100 0 -23 -55 -59 -90 -60
-39 0 -103 -15 -136 -31 -11 -6 -60 -9 -107 -7 -70 3 -92 8 -116 26 -17 12
-37 22 -45 22 -8 0 -21 14 -30 30 -14 29 -13 32 17 79 18 28 42 55 55 62 12 7
22 18 22 26 0 7 8 21 18 31 9 9 30 38 45 64 15 26 35 49 44 52 28 8 114 -2
129 -15z"/>
<path d="M7970 3184 c-25 -7 -62 -13 -82 -13 -21 -1 -57 -12 -80 -26 -24 -14
-55 -30 -70 -36 -16 -6 -28 -17 -28 -24 0 -7 -7 -15 -15 -19 -13 -5 -75 -121
-75 -141 0 -5 -7 -16 -15 -25 -8 -9 -19 -43 -24 -76 -5 -32 -17 -93 -26 -135
-16 -74 -16 -77 4 -120 12 -25 45 -70 74 -102 30 -31 60 -69 68 -84 8 -14 26
-38 41 -52 16 -14 28 -30 28 -35 0 -5 24 -38 53 -73 106 -130 113 -137 146
-139 17 -1 29 1 26 5 -4 7 17 29 45 46 10 6 12 4 7 -8 -10 -27 20 -20 39 8 21
32 14 86 -15 117 -12 12 -21 27 -21 34 0 7 -6 17 -13 21 -7 4 -30 35 -52 68
-22 33 -52 72 -68 87 -19 18 -26 33 -23 50 3 12 5 29 5 35 1 7 12 20 26 29 23
15 30 15 89 -1 36 -10 75 -15 87 -12 13 4 28 3 33 -2 21 -15 112 -45 151 -48
22 -3 42 -8 45 -11 6 -8 47 -12 132 -12 31 0 60 -4 63 -10 7 -11 77 -12 115
-1 21 6 25 12 22 41 -4 37 -33 67 -74 76 -15 4 -35 15 -44 25 -9 11 -23 19
-31 19 -7 0 -24 7 -37 15 -23 15 -137 41 -218 49 -76 7 -98 16 -105 45 -4 14
-6 33 -5 41 8 53 13 60 38 60 22 0 24 4 23 33 -1 17 6 49 15 70 15 35 16 64 3
137 -1 9 -13 30 -25 47 -12 17 -22 35 -22 41 0 23 -137 28 -210 6z m57 -175
c13 -13 5 -55 -13 -70 -8 -6 -14 -18 -14 -25 0 -8 -13 -40 -29 -72 -33 -64
-86 -178 -100 -216 -13 -33 -33 -28 -86 22 -44 41 -50 57 -46 117 4 66 7 75
24 87 10 8 19 22 21 33 2 11 14 22 31 26 15 5 35 15 44 24 21 22 78 56 116 71
40 16 40 15 52 3z"/>
<path d="M4234 2788 c-12 -13 -29 -39 -39 -58 -21 -41 -115 -187 -162 -249
-18 -24 -33 -55 -33 -69 0 -14 -6 -33 -14 -41 -7 -9 -23 -43 -35 -76 -13 -33
-26 -64 -31 -70 -13 -16 -28 -125 -23 -168 6 -44 25 -60 128 -106 42 -20 81
-31 98 -28 21 3 27 -1 27 -14 0 -13 11 -20 38 -24 46 -8 131 -33 154 -45 9 -5
37 -10 63 -11 37 -2 51 1 62 17 8 10 19 18 24 17 5 -2 9 6 9 18 0 15 5 19 15
15 9 -3 15 0 15 9 0 8 -9 15 -20 15 -10 0 -25 10 -31 22 -7 13 -18 28 -25 35
-25 26 -147 73 -202 80 -71 8 -110 24 -141 57 l-24 25 27 31 c14 17 26 38 26
46 0 8 13 29 30 47 16 18 30 40 31 50 3 33 4 38 14 45 16 11 45 60 45 75 0 8
8 21 18 30 9 9 26 33 37 54 11 21 24 41 29 45 6 3 17 20 25 36 9 16 26 48 39
71 13 25 20 50 17 61 -8 27 -76 64 -137 75 -27 5 -37 2 -54 -17z"/>
<path d="M7073 2724 c-17 -7 -38 -23 -46 -34 -19 -27 -84 -60 -119 -60 -53 0
-138 -117 -145 -200 -3 -33 -11 -60 -20 -67 -18 -14 -28 -128 -14 -158 5 -11
16 -38 25 -60 10 -22 21 -48 26 -57 6 -10 10 -31 10 -47 0 -17 5 -33 10 -36 6
-3 10 -15 10 -26 0 -11 7 -22 15 -25 8 -4 15 -14 15 -23 0 -9 4 -21 9 -26 12
-14 46 -127 43 -143 -2 -7 4 -15 13 -18 21 -9 45 -57 45 -92 0 -36 7 -43 34
-33 11 5 30 5 41 1 12 -5 26 -2 36 6 8 8 49 22 90 33 113 29 235 75 271 103
18 13 41 27 51 31 9 4 20 20 23 36 4 16 12 32 20 35 8 3 14 12 14 19 0 8 7 20
15 27 9 7 15 20 13 27 -3 17 -99 52 -141 53 -33 0 -89 -22 -124 -50 -14 -11
-36 -20 -48 -20 -12 0 -43 -7 -69 -16 -40 -14 -52 -14 -72 -4 -13 8 -27 11
-30 7 -11 -11 -61 14 -74 38 -18 34 -8 50 47 71 26 10 59 31 71 46 13 16 30
28 38 28 8 0 14 4 14 9 0 5 14 14 30 21 17 7 30 16 30 21 0 5 6 9 14 9 35 0
63 85 39 119 -14 21 -61 29 -78 13 -6 -5 -37 -14 -70 -21 -33 -7 -69 -19 -81
-26 -34 -22 -101 -38 -127 -31 -30 7 -47 49 -47 117 0 57 7 79 26 79 8 0 14 9
14 20 0 13 7 20 20 20 11 0 20 4 20 9 0 5 15 15 33 22 50 21 176 108 193 134
8 13 33 31 55 39 29 12 39 21 37 34 -2 9 -10 17 -18 17 -8 0 -14 8 -12 17 1 9
-7 18 -20 22 -39 10 -121 5 -155 -10z"/>
<path d="M6461 2679 c-18 -11 -38 -19 -44 -18 -60 7 -82 -2 -109 -45 -16 -24
-28 -50 -28 -59 0 -9 -8 -18 -18 -22 -11 -3 -31 -29 -46 -58 -15 -28 -42 -69
-61 -91 l-34 -38 -38 31 c-21 17 -43 31 -49 31 -6 0 -17 6 -24 14 -6 8 -17 13
-24 10 -8 -3 -35 13 -60 36 -56 48 -89 66 -138 75 -40 8 -78 -7 -78 -30 0 -8
-13 -21 -30 -30 -51 -27 -36 -70 44 -130 15 -11 36 -28 46 -37 10 -9 32 -24
47 -33 34 -19 88 -58 124 -88 32 -27 59 -46 79 -53 30 -11 100 -122 100 -158
0 -19 7 -47 15 -62 8 -16 15 -42 15 -59 0 -16 7 -43 15 -59 8 -15 15 -42 16
-60 0 -17 9 -78 20 -136 11 -58 21 -114 22 -126 1 -11 7 -27 13 -35 6 -8 18
-32 25 -54 8 -22 17 -42 20 -45 3 -3 11 -14 17 -26 9 -16 18 -19 49 -16 21 3
45 11 53 19 8 8 23 19 33 26 27 18 40 151 17 172 -9 8 -21 15 -27 15 -6 0 -9
20 -7 50 4 43 1 51 -20 65 -30 20 -43 53 -50 132 -3 35 -13 79 -21 99 -8 20
-15 47 -15 61 0 13 -4 32 -9 42 -22 41 -6 195 24 231 7 8 20 34 31 58 10 23
21 42 26 42 4 0 8 7 8 15 0 17 109 234 128 254 8 8 11 23 8 34 -3 12 -1 26 3
31 6 7 0 18 -13 28 -22 16 -25 16 -55 -3z"/>
<path d="M5126 2596 c-20 -29 -36 -56 -36 -60 0 -4 -13 -27 -30 -51 -16 -24
-30 -48 -30 -54 0 -9 -43 -92 -60 -116 -4 -5 -12 -31 -18 -56 -17 -70 -81
-199 -115 -233 -8 -9 -20 -39 -27 -68 -7 -29 -20 -66 -30 -83 -10 -16 -15 -36
-13 -43 3 -8 -4 -22 -16 -33 -27 -26 -26 -33 5 -58 21 -17 30 -19 47 -9 31 16
49 36 42 47 -6 10 9 32 59 84 29 30 30 31 120 28 108 -2 154 -9 180 -27 12 -8
41 -11 85 -8 92 6 111 -10 120 -100 4 -37 12 -71 18 -74 17 -12 30 -45 38 -96
8 -58 23 -93 42 -100 17 -7 82 52 87 79 8 42 50 118 59 109 4 -4 11 5 16 20 6
14 15 26 21 26 21 0 1 96 -26 131 -6 8 -14 25 -18 39 -3 14 -22 36 -41 50 -19
14 -32 31 -30 38 3 7 -11 36 -31 65 -40 57 -64 110 -64 138 0 9 -7 24 -15 32
-8 8 -20 34 -27 57 -7 23 -24 54 -37 68 -13 14 -24 36 -26 50 -1 14 -10 29
-19 34 -9 5 -16 14 -16 20 0 26 -63 107 -91 117 -20 7 -29 17 -29 31 0 13 -8
24 -20 27 -23 6 -26 19 -7 26 6 3 2 6 -10 6 -16 1 -32 -14 -57 -53z m87 -376
c17 -25 33 -47 36 -50 20 -17 51 -72 51 -90 0 -11 7 -20 15 -20 8 0 15 -4 15
-9 0 -20 -118 -4 -232 30 -39 12 -44 31 -20 76 7 12 12 29 12 39 0 24 83 102
88 83 3 -8 19 -34 35 -59z"/>
</g>
</svg>
