<svg width="150" height="75" viewBox="0 0 150 75" fill="none" xmlns="http://www.w3.org/2000/svg">
<path d="M86.1447 10.493C85.2251 9.98282 84.3668 9.66394 83.5698 9.53639C81.9145 9.21752 80.8723 9.08997 80.4431 9.08997C79.8914 9.08997 79.3396 9.28129 78.9104 9.60017C78.9104 9.72772 78.8491 9.85527 78.7265 10.0466C78.6039 10.2379 78.6039 10.3017 78.6039 10.3017C78.9104 11.0032 79.5235 11.4497 80.5657 11.641L80.7497 11.8323C80.9336 14.8935 80.8723 18.3374 80.5657 21.9726L80.4431 22.164C80.1366 22.3553 79.9527 22.5466 79.7687 22.7379C79.6461 22.8655 79.5848 22.993 79.5848 23.1844C79.5848 23.5032 79.7687 23.8221 80.1979 24.141L80.3205 24.3961C80.1366 25.9267 80.014 27.9038 79.9527 30.3272L79.8301 36.2584C80.0753 36.7686 80.5657 37.0237 81.1788 37.0237C81.4853 37.0237 81.7306 36.9599 81.9758 36.8323L85.2864 34.7915C86.6351 33.9624 87.616 33.0696 88.2904 32.2405C89.1487 31.1563 89.5779 29.9446 89.5779 28.6053C89.5779 26.9471 88.6583 25.4165 86.819 24.2048C86.5125 24.0772 86.0834 23.8859 85.7155 23.6946C85.2251 23.5032 84.9798 23.1844 84.8572 22.7379L84.9798 22.4828C86.1447 21.6538 87.3095 20.7609 88.5356 19.9318C89.7005 18.9114 90.4362 17.7634 90.7427 16.5517C90.8653 15.9777 90.804 15.2762 90.4975 14.3833C90.007 13.044 88.5356 11.7685 86.1447 10.493ZM86.0834 25.9267L86.1447 25.9905C86.6351 26.5645 86.8804 27.266 86.8804 28.0313C86.8804 28.2864 86.8804 28.5415 86.819 28.8604C86.6351 29.7533 86.3286 30.5186 85.8381 31.0288C85.5929 31.3476 85.1638 31.6665 84.5507 32.0492C83.9989 32.4318 83.5698 32.7507 83.3245 33.0696L82.9567 33.0058C82.7728 32.368 82.6502 31.6665 82.6502 30.8374C82.6502 30.3272 82.7115 29.4982 82.8341 28.4777C82.9567 27.4573 83.018 26.692 83.018 26.1818C83.018 25.9267 83.018 25.6716 82.9567 25.4165L83.0793 25.1614C83.2632 25.0976 83.4472 25.0339 83.6924 25.0339C83.9989 25.0339 84.4894 25.0976 86.0834 25.9267ZM87.1256 17.2532C86.5738 18.0823 85.8994 18.6563 85.2251 19.039C85.2251 19.039 85.1024 19.1027 84.7346 19.4216C84.3668 19.7405 84.0602 19.868 83.8763 19.868L83.6311 19.6129C83.6311 18.8476 83.6311 17.7634 83.5698 16.4242C83.5085 14.9573 83.4472 13.8731 83.4472 13.2354C83.4472 12.7889 83.4472 12.3425 83.5085 11.8961L83.6311 11.7048C84.0602 11.5134 84.3668 11.5772 84.8572 11.9599C85.2251 12.215 85.5316 12.3425 85.6542 12.4063C87.003 12.9165 87.7386 13.6818 87.8613 14.6384C87.9226 15.5951 87.6773 16.4242 87.1256 17.2532Z" fill="black"/>
<path d="M95.9537 14.0646C95.8924 14.0008 95.8924 13.937 95.8311 13.8733C95.8311 13.8095 95.7698 13.6819 95.8311 13.2993C95.8311 13.2993 95.8311 13.2993 95.8311 13.2355H95.6472C95.218 12.9804 94.8502 12.8528 94.421 12.8528C93.9919 12.8528 93.6853 13.0442 93.5014 13.363C93.5627 13.937 93.5627 14.511 93.5627 15.1488C93.5627 16.7432 93.3788 19.2304 93.011 22.4192C92.6431 25.608 92.4592 28.0952 92.4592 29.6896C92.4592 30.6462 92.5205 31.4753 92.5818 32.3044C92.6431 32.7508 92.827 33.3886 93.9919 33.4524H94.0532C94.6049 33.4524 94.9115 33.1973 95.0954 32.687C95.0954 32.1131 95.0341 31.4753 95.0341 30.9013C95.0341 29.2432 95.218 26.6921 95.5245 23.4396C95.8311 20.187 96.015 17.6998 96.015 16.1054C96.015 15.4039 96.015 14.7023 95.9537 14.0646Z" fill="black"/>
<path d="M109.993 30.7098C109.993 30.5185 109.932 30.4547 109.87 30.3909C108.767 29.4343 107.418 28.4139 105.824 27.3297C104.353 26.4368 102.943 25.544 101.533 24.6511L101.471 24.3322C102.084 23.3118 103.556 21.5899 105.763 19.2302C107.602 17.2532 108.828 15.5312 109.503 14.0644C109.441 13.7455 109.257 13.3628 108.338 13.3628C108.093 13.3628 107.786 13.4266 107.602 13.4904C106.621 14.7021 105.579 15.9776 104.537 17.1256C103.311 18.5924 102.207 19.8042 101.287 20.697L100.92 20.5057C100.981 18.5924 100.797 15.9776 100.49 12.7889C100.49 12.6613 100.429 12.47 100.123 12.3424C99.8161 12.2149 99.5095 12.0873 99.2643 12.0236C98.9578 12.0873 98.7126 12.0873 98.4673 12.1511C98.1608 12.2149 98.1608 12.3424 98.1608 12.47C98.4673 14.3195 98.6513 16.6154 98.6513 19.1026C98.6513 19.9317 98.6513 21.1435 98.5899 22.8654C98.5286 24.5236 98.5286 25.7991 98.5286 26.6282C98.5286 28.9241 98.6513 30.9649 98.9578 32.6868C99.0191 33.197 99.3256 33.5797 99.8161 33.771L99.9387 33.8986C100 33.9624 100.123 34.0261 100.245 34.0261C100.429 34.0261 100.613 33.9624 100.736 33.8986C101.165 33.7073 101.349 33.3884 101.349 32.8782C101.349 32.7506 101.349 32.4317 101.287 32.1129C101.226 31.7302 101.226 31.4113 101.226 31.22C101.165 29.5618 101.104 28.2863 101.042 27.3935L101.41 27.1384C104.659 29.1154 107.05 30.646 108.583 31.6664C108.706 31.7302 108.767 31.794 108.828 31.794C108.89 31.794 108.951 31.794 109.196 31.6664C109.503 31.4751 109.686 31.4113 109.932 31.4751C109.993 30.9011 109.993 30.7098 109.993 30.7098Z" fill="black"/>
<path d="M122.929 13.9368C122.99 13.8731 123.051 13.8093 123.051 13.6817C123.051 13.6179 123.051 13.4904 122.929 13.1715C122.867 12.9802 122.806 12.7889 122.806 12.7251C122.07 12.2787 121.396 12.0236 120.844 12.0236C120.722 12.0236 120.599 12.0236 120.476 12.0236C119.373 12.2787 118.208 12.5975 117.105 12.9164C115.817 13.2991 114.775 13.6817 113.917 14.1282L111.71 15.0848C111.035 15.4674 110.667 15.9139 110.667 16.5516C110.667 17.1256 111.219 17.572 112.384 17.8271L112.568 18.0822C112.384 20.8884 112.323 21.3986 112.261 21.5261C112.2 21.7812 111.955 22.0363 111.587 22.2277C111.342 22.3552 111.158 22.4828 111.158 22.6103C111.097 22.9292 111.342 23.3118 111.893 23.6945L112.016 23.9496C111.832 25.6078 111.832 27.4573 112.016 29.4981C112.077 30.1358 112.384 30.7736 112.874 31.2838C113.365 31.794 113.917 32.1767 114.53 32.3042C116.553 32.8782 119.005 33.0695 121.703 33.0057C122.009 33.0057 122.193 32.8782 122.377 32.6231C122.561 32.368 122.622 32.0491 122.561 31.7302C122.377 30.7098 122.07 30.2634 121.58 30.3909C121.519 30.3909 121.396 30.3909 121.151 30.5823C120.906 30.7736 120.66 30.9011 120.415 30.9011C120.047 30.9011 119.741 30.9011 119.373 30.9011C117.166 30.9011 115.572 30.5185 114.591 29.817L114.53 29.7532C114.346 29.3068 114.223 28.7328 114.223 27.9675C114.223 26.9471 114.468 25.4802 114.898 23.6945L115.02 23.5032C115.695 23.2481 116.614 23.0567 117.718 23.0567C119.005 23.0567 119.863 22.993 120.354 22.8654H120.415H120.476C120.66 22.8654 120.783 22.8016 120.906 22.6741C121.335 22.1639 121.396 22.1639 121.457 22.1001C121.58 22.0363 121.58 21.9726 121.58 21.9088C121.58 21.9088 121.519 21.7175 121.151 21.1435C120.722 20.8884 120.231 20.7608 119.679 20.7608C119.373 20.7608 118.821 20.8246 118.085 20.9521C117.35 21.0797 116.798 21.1435 116.43 21.1435C115.94 21.1435 115.449 21.0797 115.081 20.8884L114.959 20.6333C115.081 18.4011 115.204 17.0618 115.449 16.3603L115.572 16.2327C116.43 15.8501 117.718 15.4674 119.373 14.9572C120.844 14.7021 122.07 14.3195 122.929 13.9368Z" fill="black"/>
<path d="M88.7196 62.8456C88.8422 62.8456 89.0261 62.7818 89.1487 62.463C89.21 62.2716 89.21 61.9528 89.21 61.5063C89.1487 60.0395 89.1487 58.5727 89.1487 57.042C89.1487 53.088 89.3939 48.0497 89.8231 42.0548L90.007 41.8635C93.6854 41.2257 96.3216 40.7155 97.793 40.3329C98.2834 40.2053 98.59 39.7589 98.7739 38.9936C98.7739 38.9298 98.7739 38.6109 98.0382 38.6109L97.8543 38.3558C97.8543 38.292 97.8543 38.2283 97.8543 38.1645C97.8543 38.1645 97.793 38.1007 97.5478 38.1007C97.3638 38.1007 97.2412 38.1007 97.1186 38.1007C96.6895 38.1007 96.1377 38.1645 95.5246 38.3558C94.3598 38.6747 93.6854 38.866 93.3789 38.866C92.4593 39.1211 91.4171 39.2487 90.3748 39.2487C89.3326 39.2487 88.413 39.1211 87.616 38.866C86.5738 39.44 85.1024 39.8226 83.1406 40.014C80.9336 40.2053 79.4622 40.4604 78.7265 40.7155C78.6652 40.8431 78.6039 40.9068 78.6039 41.0344C78.6039 41.0982 78.7265 41.2895 78.9718 41.9272C79.6461 42.5012 80.5044 42.7563 81.5466 42.7563C82.0371 42.7563 82.8954 42.6288 84.1215 42.5012C84.9798 42.3737 85.7155 42.3099 86.3286 42.3099C86.5125 42.3099 86.6351 42.3099 86.819 42.3099L87.003 42.565C87.003 44.2869 86.9417 46.838 86.6964 50.0905C86.5125 53.4706 86.3899 56.0216 86.3899 57.616C86.3899 58.5727 86.3899 59.5293 86.4512 60.4222C86.5125 61.0599 86.6964 61.6339 87.1256 62.1441C87.5547 62.5905 88.0452 62.8456 88.7196 62.8456V63.1007V62.8456Z" fill="black"/>
<path d="M106.682 59.8483C105.456 56.1493 104.23 51.4299 103.065 45.8176C102.943 44.7972 102.82 43.8406 102.697 42.8202C102.514 41.736 102.146 40.9069 101.533 40.3967C101.349 40.2054 101.103 40.1416 100.797 40.1416C100.368 40.1416 100.184 40.3329 100.123 40.5242C99.5095 41.9911 98.8351 44.2232 98.0994 47.0294C97.1798 50.2819 96.5667 52.5141 96.1376 53.7258C96.0763 53.9809 95.8311 54.1722 95.3406 54.236C94.9115 54.3636 94.7888 54.4273 94.7275 54.4911C94.6662 54.5549 94.6049 54.6824 94.6049 54.7462C94.6049 54.7462 94.6049 54.8738 94.9728 55.1926C95.3406 55.5115 95.5245 55.8304 95.5245 56.1493C95.4632 56.9146 95.0954 58.1901 94.3597 59.9758C93.8079 61.4427 93.5627 62.6544 93.624 63.5473C93.6853 63.8661 93.9918 64.185 94.6662 64.4401C95.0954 64.5677 95.4019 64.5039 95.5858 64.185C95.9537 63.2922 96.3215 61.9529 96.6893 60.2309C97.1185 58.3177 97.425 56.9784 97.6703 56.2768L97.7316 56.1493C98.2833 55.6391 99.019 55.384 99.9386 55.2564L102.33 55.0651L102.575 55.1926C103.004 56.4044 103.433 57.9988 103.74 59.7845C104.046 61.3789 104.659 62.208 105.701 62.4631C105.701 62.4631 105.824 62.4631 106.315 62.0166C106.682 61.6978 106.805 61.3789 106.805 60.9325C106.866 60.5498 106.805 60.2309 106.682 59.8483ZM101.839 53.1518C100.306 53.1518 99.3255 53.2156 98.9577 53.2794L98.7125 52.9605C99.2029 50.9835 99.816 48.9426 100.49 46.9656H100.92C101.103 47.9222 101.349 48.8789 101.594 49.8355C101.839 50.9835 101.962 51.9401 102.023 52.8329L101.839 53.1518Z" fill="black"/>
<path d="M119.557 50.2819C119.25 50.2819 119.005 50.3456 118.944 50.3456C118.453 50.3456 118.086 50.6007 117.902 51.1747C117.472 52.4502 117.227 52.7691 117.043 52.9604C113.978 55.639 111.648 57.2972 110.116 57.9349C110.054 57.9349 109.993 57.9987 109.932 57.9987C109.809 57.9987 109.625 57.9349 109.441 57.616C109.38 57.4247 109.319 57.3609 109.319 57.3609L109.196 57.1696C109.196 56.8507 109.135 56.5319 109.135 56.213C109.135 54.4273 109.625 52.4502 110.667 50.2181C112.261 46.7104 114.101 43.7767 116.062 41.5446C116.124 41.4808 116.185 41.417 117.411 40.7155C117.779 40.5242 117.963 40.1415 117.902 39.6951C117.84 39.3125 117.656 38.8022 116.553 38.8022C115.572 38.8022 114.468 39.6951 113.181 41.4808C110.545 45.1798 108.583 49.0063 107.357 52.8329C106.989 54.0446 106.805 55.065 106.805 55.9579C106.805 56.9145 107.05 57.7436 107.541 58.3814C108.583 59.8482 109.809 60.4222 111.035 60.0395C112.997 59.2742 114.775 58.1263 116.369 56.5956L116.737 56.787C116.614 58.19 116.492 59.2104 116.369 59.912C116.369 60.2308 116.308 60.6773 116.246 61.3788C116.185 62.0166 116.124 62.5268 116.124 62.8456C116.124 63.9298 116.553 64.6314 117.472 65.014C117.595 65.0778 117.779 65.0778 117.963 65.0778C118.699 65.0778 118.821 64.6951 118.883 64.3763C118.944 62.3354 119.066 60.2946 119.189 58.2538C119.373 55.8941 119.802 53.8533 120.415 52.2589C120.477 52.0676 120.538 51.8762 120.538 51.6849C120.538 51.3023 120.354 50.7921 119.925 50.1543C119.863 50.2181 119.741 50.2181 119.557 50.2819Z" fill="black"/>
<path d="M135.047 64.678C131.553 70.0929 123.567 70.8468 117.578 71.1896C111.303 71.5323 105.1 70.9154 98.8252 70.5041C88.4151 69.7502 77.9336 70.0929 67.5947 70.5041C56.6141 70.9154 45.8475 70.5727 34.9382 69.8187C29.947 69.476 25.0271 69.1333 20.036 68.9277C16.3282 68.7906 12.6918 68.1052 9.41188 66.4601C1.3547 62.3476 1.78252 52.8887 1.85382 45.4176C1.92512 37.261 2.85205 29.173 2.92335 20.9479C2.92335 15.7387 2.13903 6.00563 6.9876 2.44142C7.34411 2.16725 6.9876 1.20766 6.55978 1.55037C2.42424 4.56624 2.49554 11.6947 2.28163 16.1499C1.92512 24.1009 1.4973 31.9832 1.2121 39.8656C0.926886 47.1997 -0.142651 55.7675 3.85029 62.4161C6.77369 67.3512 12.6205 69.2704 18.1821 69.8187C23.3159 70.3671 28.521 70.3671 33.6547 70.7098C39.5728 71.121 45.4196 71.5323 51.3377 71.7379C62.6748 72.1492 74.0119 71.121 85.349 71.121C93.834 71.121 102.319 72.0121 110.804 72.2862C117.364 72.4919 124.423 72.2862 130.484 69.6816C132.623 68.7906 134.405 67.3512 135.617 65.432C135.831 65.0893 135.332 64.2668 135.047 64.678Z" fill="black"/>
<path d="M3.27995 5.52582C3.56516 5.52582 3.92167 5.52582 4.20688 5.52582C4.706 5.52582 4.91991 5.04602 4.91991 4.63477C4.91991 4.22351 4.56339 3.53809 4.06428 3.53809C3.77906 3.53809 3.42255 3.53809 3.13734 3.53809C2.63822 3.53809 2.42432 4.01789 2.42432 4.42914C2.42432 4.8404 2.70953 5.52582 3.27995 5.52582Z" fill="black"/>
<path d="M3.35117 7.51355C10.0536 2.16724 18.0395 2.85266 26.2393 2.50994C36.2216 2.09868 46.204 1.75597 56.2576 1.9616C66.3113 2.16723 76.3649 2.57848 86.4186 2.57848C96.9001 2.57848 107.31 4.08642 117.72 4.2235C124.565 4.29204 134.191 1.4818 138.469 8.40459C141.036 12.5171 139.824 17.178 140.822 21.5648C141.607 24.9919 143.603 27.8021 145.386 30.818C147.739 34.7249 150.163 39.3173 148.238 43.8411C146.812 47.1997 142.89 48.8447 140.109 50.901C138.113 52.3404 137.329 54.4652 136.687 56.7271C136.045 59.1261 136.116 64.3353 132.623 64.6095C132.052 64.678 132.48 66.6657 133.193 66.5972C135.546 66.4601 136.402 63.8555 136.901 61.9363C137.756 58.5777 137.899 55.1506 140.894 52.8202C143.532 50.6953 147.097 49.393 148.737 46.3086C150.234 43.6355 150.234 40.8937 149.593 38.015C148.88 34.7935 147.026 31.7091 145.314 28.8988C143.532 25.8144 141.749 23.2098 141.535 19.5085C141.393 17.3151 141.535 15.0532 141.036 12.9284C139.61 7.30791 136.972 2.78411 130.555 1.9616C126.633 1.4818 122.498 2.23577 118.576 2.30431C112.301 2.37285 105.956 1.75597 99.6809 1.27617C88.7003 0.453663 77.6484 0.590748 66.5965 0.316579C55.1881 0.0424095 43.851 -0.23176 32.4426 0.31658C27.1662 0.590751 21.8898 0.796378 16.6134 1.00201C12.4779 1.13909 8.69886 1.75597 5.20504 3.88079C4.2781 4.42913 3.42247 5.11456 2.56684 5.79999C2.06773 6.07416 2.78075 7.99335 3.35117 7.51355Z" fill="black"/>
<path d="M138.256 33.2171C138.184 36.2329 137.4 39.6601 138.826 42.5388C139.396 43.7041 140.823 44.3895 142.106 43.9782C143.461 43.4984 143.817 41.5792 144.031 40.414C144.602 37.6038 144.602 33.9025 142.177 31.9147C138.826 29.2416 137.757 35.8902 137.543 37.5352C137.471 38.3577 138.612 39.6601 138.755 38.2892C138.969 36.7127 139.396 32.2575 142.106 33.7654C143.817 34.725 143.033 38.4263 142.748 39.9342C142.534 41.0309 142.035 42.1961 140.68 42.059C139.183 41.922 139.325 40.0713 139.325 39.0432C139.254 37.3296 139.539 35.616 139.539 33.9025C139.539 33.1485 138.327 31.8462 138.256 33.2171Z" fill="black"/>
<path d="M23.102 71.6693C14.3318 71.875 6.4172 68.3108 3.4938 59.88C1.92514 55.2191 1.99645 49.8043 1.49733 44.9378C0.926908 38.7689 0.499093 32.6001 0.641698 26.4313C0.784303 22.3187 1.28342 18.2062 1.42603 14.0936C1.63993 9.15857 2.28165 4.56622 7.77195 2.9212C11.551 1.82452 15.9004 2.57848 19.7508 2.57848C25.6689 2.57848 31.587 2.71557 37.5051 2.85265C48.7709 3.05828 60.0367 2.64702 71.3025 2.71557C82.3544 2.78411 93.4063 3.81224 104.458 3.7437C114.227 3.67516 125.136 2.16722 134.405 5.93706C139.824 8.13042 142.605 13.6138 142.89 18.9601C143.104 22.8671 143.532 25.5402 145.956 28.8303C148.594 32.3945 149.664 36.6441 148.452 40.8938C147.311 44.8692 143.603 46.4457 140.609 48.7761C138.969 50.0784 138.327 51.792 137.97 53.7112C137.257 57.344 136.972 60.3598 134.976 63.6499C128.915 73.6571 115.225 71.6008 105.242 70.9154C97.5418 70.367 89.7698 70.7098 82.0692 70.9839C74.725 71.1895 67.4522 71.0525 60.1793 71.4637C52.336 71.875 44.4927 73.3144 36.6495 73.52C29.7331 73.7256 23.0307 71.8064 16.1856 72.8346C15.6865 72.8346 15.9717 73.8627 16.3996 73.7942C21.8899 72.9717 27.3801 73.9313 32.8704 74.3425C38.1468 74.7538 43.4232 73.8627 48.6996 73.3829C60.2506 72.2177 71.8729 72.2862 83.4952 71.875C88.9855 71.6693 94.4045 71.5323 99.8948 71.6008C104.886 71.6693 109.877 72.3548 114.868 72.5604C121.286 72.766 127.988 71.8064 132.837 67.4882C135.047 65.5005 136.473 62.8274 137.471 60.1542C138.113 58.4406 138.398 56.7956 138.541 55.0135C138.826 50.9695 141.322 49.3245 144.388 47.3367C150.234 43.5669 151.375 35.2047 147.525 29.6528C145.814 27.1852 144.102 25.129 143.746 22.0446C143.532 20.2624 143.817 18.4803 143.461 16.6982C142.819 13.2711 141.322 10.3238 138.826 7.78771C132.979 1.68742 121.642 2.37285 113.799 2.44139C94.1906 2.71556 74.6537 1.4818 55.1168 1.82451C44.7067 1.9616 34.2965 1.61889 23.815 1.4818C17.683 1.41326 8.77018 -0.300301 3.6364 3.81225C-0.42784 7.10229 0.926908 14.9161 0.499093 19.3714C-0.499142 29.2415 0.213883 38.9746 1.21212 48.7761C1.85384 55.0135 1.99645 61.7992 6.63111 66.6657C10.9806 71.1896 16.97 72.766 23.1733 72.6289C23.7437 72.6289 23.5298 71.6008 23.102 71.6693Z" fill="black"/>
<path d="M66.3665 31.8333C66.3665 17.4283 54.523 5.74414 39.9215 5.74414C25.32 5.74414 13.4765 17.4283 13.4765 31.8333C13.4765 45.278 23.7787 56.3219 37.0823 57.7624C38.8669 60.8035 39.4348 64.3248 40.7327 67.6059C40.8138 67.846 41.3005 67.6859 41.3005 67.5259C42.3551 64.3248 42.4362 60.8035 43.653 57.6824C56.551 55.8418 66.3665 44.9579 66.3665 31.8333ZM41.0572 66.5655C40.0026 63.6045 39.4348 60.5634 37.8935 57.8425C38.6236 57.9225 39.2725 57.9225 40.0026 57.9225C41.0572 57.9225 42.1117 57.8425 43.1663 57.7624C42.0306 60.5634 41.7872 63.6045 41.0572 66.5655ZM39.9215 56.562C26.05 56.562 14.8555 45.4381 14.8555 31.8333C14.8555 18.2285 26.1312 7.10462 39.9215 7.10462C53.7929 7.10462 64.9875 18.2285 64.9875 31.8333C64.9875 45.4381 53.7929 56.562 39.9215 56.562Z" fill="black"/>
<path d="M39.9215 7.74487C26.4557 7.74487 15.5045 18.5487 15.5045 31.8333C15.5045 45.118 26.4557 55.9218 39.9215 55.9218C53.3874 55.9218 64.3385 45.118 64.3385 31.8333C64.3385 18.5487 53.3874 7.74487 39.9215 7.74487ZM39.9215 55.1215C26.8613 55.1215 16.3157 44.7179 16.3157 31.8333C16.3157 18.9488 26.8613 8.54516 39.9215 8.54516C52.9818 8.54516 63.5273 18.9488 63.5273 31.8333C63.5273 44.7179 52.9818 55.1215 39.9215 55.1215Z" fill="black"/>
<path d="M39.9216 7.10474C26.0501 7.10474 14.8556 18.2287 14.8556 31.8334C14.8556 45.4382 26.1312 56.5621 39.9216 56.5621C53.793 56.5621 64.9875 45.4382 64.9875 31.8334C64.9875 18.2287 53.793 7.10474 39.9216 7.10474ZM39.9216 55.9219C26.4557 55.9219 15.5045 45.1181 15.5045 31.8334C15.5045 18.5488 26.4557 7.74496 39.9216 7.74496C53.3874 7.74496 64.3386 18.5488 64.3386 31.8334C64.3386 45.1181 53.3874 55.9219 39.9216 55.9219Z" fill="white"/>
<path d="M39.9215 28.632C38.1369 28.632 36.6767 30.0725 36.6767 31.8331C36.6767 33.5938 38.1369 35.0343 39.9215 35.0343C41.7061 35.0343 43.1663 33.5938 43.1663 31.8331C43.1663 30.0725 41.7061 28.632 39.9215 28.632ZM39.9215 33.9139C38.7858 33.9139 37.8124 32.9535 37.8124 31.8331C37.8124 30.7128 38.7858 29.7524 39.9215 29.7524C41.0572 29.7524 42.0306 30.7128 42.0306 31.8331C42.0306 32.9535 41.1383 33.9139 39.9215 33.9139Z" fill="black"/>
<path d="M39.9214 29.7527C38.7858 29.7527 37.8123 30.713 37.8123 31.8334C37.8123 32.9538 38.7858 33.9141 39.9214 33.9141C41.0571 33.9141 42.0305 32.9538 42.0305 31.8334C42.0305 30.713 41.1382 29.7527 39.9214 29.7527ZM39.9214 32.6337C39.5158 32.6337 39.1102 32.3136 39.1102 31.8334C39.1102 31.4333 39.4347 31.0331 39.9214 31.0331C40.327 31.0331 40.7326 31.3532 40.7326 31.8334C40.7326 32.2336 40.4081 32.6337 39.9214 32.6337Z" fill="white"/>
<path d="M39.9215 31.0331C39.5159 31.0331 39.1103 31.3532 39.1103 31.8334C39.1103 32.2335 39.4347 32.6336 39.9215 32.6336C40.3271 32.6336 40.7327 32.3135 40.7327 31.8334C40.7327 31.3532 40.4082 31.0331 39.9215 31.0331Z" fill="black"/>
<path d="M37.6501 57.1221H43.4907L41.0571 66.5654L37.6501 57.1221Z" fill="black"/>
<path d="M33.8376 9.18556C33.7565 15.4278 37.5691 22.3102 40.4894 27.6721C44.7888 35.5148 49.6559 43.1975 53.2252 51.3604C53.3063 51.6005 53.9553 51.4404 53.793 51.2003C50.7916 44.2379 46.8167 37.8356 43.1664 31.2733C41.1384 27.592 38.9481 23.9908 37.488 20.1494C36.1901 16.8683 34.4054 12.7068 34.4866 9.18556C34.4054 8.86545 33.8376 8.94548 33.8376 9.18556Z" fill="black"/>
<path d="M26.6991 11.7464C27.5103 15.0276 29.5383 17.8285 30.9174 20.9496C32.3775 24.3909 33.5132 27.9121 35.1356 31.1933C37.1636 35.2747 39.7594 39.036 41.7874 43.1175C43.572 46.7187 44.7077 50.48 46.0867 54.2414C46.1678 54.4815 46.7357 54.3214 46.6546 54.0813C44.221 47.1989 41.3818 40.9567 37.6503 34.5544C35.2978 30.553 33.5943 26.3916 31.9719 22.07C30.674 18.4688 28.2404 15.2676 27.267 11.5063C27.1858 11.3463 26.618 11.5063 26.6991 11.7464Z" fill="black"/>
<path d="M58.3357 17.9887C55.2532 19.8294 51.765 20.8697 48.6014 22.5503C45.3566 24.2309 42.3552 26.5517 39.1915 28.3924C35.46 30.4731 31.6474 32.3138 27.6725 33.9143C24.0221 35.4349 20.534 37.5956 16.6403 38.636C16.3158 38.716 16.3158 38.9561 16.7214 38.8761C20.2095 37.9157 23.2921 35.9951 26.618 34.6346C30.1872 33.114 33.6754 31.6735 37.0824 29.9129C40.4083 28.1523 43.572 26.2316 46.7356 24.0709C50.4671 21.59 54.8476 20.3896 58.7413 18.1488C59.0658 17.9087 58.498 17.9087 58.3357 17.9887Z" fill="black"/>
<path d="M62.4728 23.7506C55.1721 26.8717 47.9524 30.1529 40.7328 33.5141C33.7565 36.7152 26.8613 40.5565 19.8039 43.4376C19.3983 43.5976 19.8039 43.8377 20.0472 43.7577C26.6991 41.0367 33.0264 37.5155 39.5971 34.5544C47.3034 31.0332 55.0098 27.5119 62.7973 24.1508C63.1218 23.9107 62.7973 23.6706 62.4728 23.7506Z" fill="black"/>
<path d="M42.8418 8.62535C41.7061 16.148 37.6502 22.6303 36.3522 29.9929C34.9732 37.5955 31.9718 44.8781 29.7004 52.2407C29.7004 52.3207 30.2683 52.2407 30.2683 52.1607C32.6207 44.7981 35.6222 37.5155 36.9201 29.9128C38.1369 22.5503 42.3551 15.9879 43.4908 8.46529C43.4097 8.38527 42.8418 8.46529 42.8418 8.62535Z" fill="black"/>
<path d="M47.8713 9.98598C47.7091 11.5865 46.979 12.787 46.6545 14.3075C46.1678 16.7884 45.6811 19.2693 45.1133 21.6701C44.1398 26.0716 42.923 30.4732 41.8685 34.8747C40.895 39.2763 39.7594 43.5978 38.3803 47.9193C37.6502 50.1601 37.1635 52.8811 35.7034 54.7217C35.7034 54.7217 36.1901 54.7217 36.2712 54.6417C37.7314 52.721 38.137 50.0001 38.9482 47.8393C40.4894 43.5978 41.4629 39.1963 42.4363 34.7947C43.4909 30.3932 44.5454 25.9916 45.6811 21.5901C46.6545 17.7487 48.0336 13.6673 48.4392 9.82593C48.5203 9.82593 47.9524 9.82593 47.8713 9.98598Z" fill="black"/>
<path d="M63.2841 34.6345C59.2281 35.1147 55.091 32.8739 51.2784 31.6735C47.5469 30.5531 43.6531 29.4327 39.8405 28.4723C35.9468 27.432 31.8908 27.1919 27.997 26.3916C24.2655 25.6714 21.0207 23.6706 17.2892 23.0304C17.0459 22.9504 16.7214 23.3505 17.0459 23.4306C21.2641 24.1508 24.9956 26.2315 29.1327 27.1119C33.5943 27.9922 37.9748 28.3923 42.3552 29.6728C46.5734 30.9532 50.7917 31.9936 54.9288 33.3541C57.7679 34.3144 60.2015 35.4348 63.2841 35.0346C63.5274 34.9546 63.6897 34.5545 63.2841 34.6345Z" fill="black"/>
<path d="M16.3157 28.0724C24.022 30.6333 31.485 33.1142 39.5159 34.3946C43.9774 35.1149 48.3579 35.2749 52.5761 37.0355C55.7398 38.396 58.6601 39.9165 62.0671 40.0766C62.3105 40.0766 62.7161 39.7565 62.3105 39.7565C58.1734 39.5964 54.6041 37.2756 50.8726 35.8351C47.8712 34.7147 44.383 34.5547 41.3005 34.1545C32.7829 33.1142 24.8332 30.3132 16.8024 27.6722C16.559 27.7523 16.0723 27.9924 16.3157 28.0724Z" fill="black"/>
<path d="M22.3997 15.2679C28.1592 20.7898 34.6487 25.3514 41.0572 30.0731C47.3034 34.7147 54.523 38.7161 60.1203 44.078C60.2014 44.158 60.7693 43.998 60.6881 43.9179C55.0909 38.476 47.8712 34.5546 41.625 29.913C35.2166 25.1113 28.8081 20.5497 22.9675 15.1078C22.8053 14.9477 22.3186 15.1878 22.3997 15.2679Z" fill="black"/>
<path d="M19.5606 19.2691C21.5886 21.75 24.9956 23.6707 27.5103 25.6714C30.7551 28.3123 34.6488 30.4731 38.0559 32.7939C41.7062 35.2748 45.2755 37.7556 48.6825 40.5566C51.6839 43.0375 53.9553 46.4787 57.2812 48.3994C57.4434 48.4794 57.9302 48.2393 57.849 48.1593C54.5231 46.3186 52.0895 42.8774 49.2504 40.3165C46.0056 37.4355 42.2741 35.0347 38.6237 32.5538C35.0544 30.153 31.5663 27.8321 28.0781 25.4313C26.6991 24.471 25.5634 23.1905 24.2655 22.1501C22.8865 21.0297 21.3452 20.3895 20.2095 19.029C19.9662 18.949 19.4795 19.1091 19.5606 19.2691Z" fill="black"/>
<path d="M50.6293 11.9066C50.386 14.1474 47.0601 16.4682 45.681 18.0688C42.8419 21.2699 40.895 25.3513 38.1369 28.7925C35.1355 32.5539 32.2152 36.4752 29.0515 40.1565C26.6991 42.8775 23.4543 44.8782 21.6697 47.9993C21.5885 48.0793 22.1564 48.0793 22.2375 47.9193C24.4277 44.1579 28.6459 41.357 31.4851 37.9958C34.5677 34.3145 37.4069 30.3931 40.4894 26.6318C42.923 23.5907 44.5454 19.9894 47.1412 17.1084C48.358 15.7479 50.9538 13.9073 51.1972 11.9066C51.2783 11.6665 50.7105 11.7465 50.6293 11.9066Z" fill="black"/>
<path d="M56.1455 15.6679C53.793 18.4689 51.765 21.59 49.5748 24.471C47.3034 27.5121 44.6265 30.233 42.3551 33.1941C40.0838 36.0751 37.3257 38.556 34.811 41.2769C31.8907 44.4781 29.8627 48.3194 27.0235 51.6006C26.8613 51.7606 27.4291 51.6806 27.5914 51.6006C30.1061 48.6395 32.0529 45.3584 34.4865 42.3173C36.7579 39.4363 39.5971 37.0354 42.0307 34.3145C47.3846 28.3924 51.6028 21.67 56.7133 15.6679C56.8756 15.5079 56.3077 15.5879 56.1455 15.6679Z" fill="black"/>
<path d="M63.1217 26.3116C62.0671 25.6714 59.3902 26.4717 58.2545 26.6317C54.6041 27.1919 51.0349 27.9122 47.3845 28.4724C41.3005 29.5928 35.1354 30.7932 28.9703 31.2734C24.671 31.5935 20.3717 30.8732 16.3157 32.5538C15.9101 32.7139 16.3157 32.8739 16.559 32.7139C21.264 30.7932 26.9423 31.8336 31.9718 31.2734C36.8389 30.7932 41.625 29.6728 46.411 28.9526C49.0069 28.5524 51.5216 28.0722 54.1174 27.5921C55.7398 27.272 61.0937 25.5914 62.635 26.4717C62.7161 26.6317 63.2028 26.3917 63.1217 26.3116Z" fill="black"/>
<path d="M63.365 32.2337C59.6335 33.3541 55.4153 32.7139 51.5215 33.1141C47.1411 33.5142 42.8417 33.9143 38.5424 34.1544C31.0794 34.6346 23.2919 35.5949 16.1534 37.5956C16.0723 37.5956 15.91 37.6757 15.91 37.7557C15.91 37.8357 15.91 37.8357 15.91 37.9157C15.91 38.1558 16.4779 38.0758 16.4779 37.8357C16.559 37.2755 26.7801 35.835 26.8612 35.835C31.1605 35.1948 35.4599 34.7146 39.8403 34.4745C44.2208 34.2344 48.5201 33.7543 52.9006 33.3541C56.4698 33.034 60.0391 33.5942 63.4461 32.5539C63.7706 32.4738 63.6895 32.1537 63.365 32.2337Z" fill="black"/>
</svg>
