<svg width="26" height="26" viewBox="0 0 26 26" fill="none" xmlns="http://www.w3.org/2000/svg">
<path d="M0.822632 4.08701C5.75856 3.80787 10.4994 1.51545 15.4693 1.23439C15.8821 1.21105 17.3216 0.907671 17.6831 1.35735C18.2823 2.10285 15.0051 3.44642 14.8565 3.5214C11.1057 5.41426 7.03805 6.68159 3.02655 7.39456C1.91842 7.59151 2.79774 7.59546 3.4021 7.49293C5.22985 7.18284 7.04382 6.72752 8.85754 6.31254C9.52087 6.16076 13.7369 5.26687 10.844 5.02148C8.63721 4.83429 5.94973 4.59103 3.79743 5.41495C3.4518 5.54725 4.47416 5.78199 4.83514 5.80841C7.20338 5.98173 9.59926 5.85759 11.9707 5.85759C14.1845 5.85759 16.3983 5.85759 18.6121 5.85759" stroke="black" stroke-linecap="round"/>
<path d="M4.02474 6.07888C9.4664 3.39523 15.5853 2.62915 21.3991 3.64432C22.0638 3.76039 22.2729 3.86565 21.4189 3.86565C18.0464 3.86565 14.68 3.71369 11.3085 3.65662C9.19729 3.62088 7.08493 3.64432 4.97351 3.64432C4.36545 3.64432 3.23821 3.4689 2.68065 3.91483C1.79304 4.62474 4.78803 4.09249 5.84322 4.08697C8.39145 4.07365 10.9348 3.86565 13.4828 3.86565C13.6716 3.86565 15.3884 3.86565 14.2537 3.86565C12.6911 3.86565 11.1507 3.97256 9.60865 4.30829C9.44705 4.34348 7.61222 4.92113 7.90877 4.95997C8.60407 5.05102 9.33446 4.97226 10.0336 4.97226C10.9891 4.97226 9.94195 5.20504 10.6167 5.41491C11.3077 5.62983 12.0197 6.07888 12.7416 6.07888" stroke="black" stroke-linecap="round"/>
<path d="M4.02473 12.4973C6.34259 12.4484 8.64795 12.0761 10.9626 11.9317C13.6667 11.763 16.3798 11.8333 19.0865 11.8333C21.0306 11.8333 19.7051 12.2357 18.5528 12.4481C15.8878 12.9393 13.2484 13.5357 10.597 14.1326C9.45322 14.3901 8.15556 14.35 7.04894 14.8089C6.13019 15.1899 8.99234 14.6681 9.93479 14.3908C10.9805 14.0832 12.0108 13.321 13.0776 13.1736C13.8789 13.0628 12.3794 13.1601 12.2672 13.1613C10.9117 13.1759 9.49561 13.2032 8.15584 13.481C8.02641 13.5078 6.32315 13.9625 6.57456 14.1449C7.54408 14.8485 9.72253 13.7683 10.6661 13.4318C11.697 13.0641 12.7436 12.7094 13.6903 12.0669C13.9958 11.8596 12.2801 11.8333 12.1684 11.8333C10.7653 11.8333 9.31693 11.6644 7.95818 12.1776C7.90804 12.1965 6.45245 12.7982 6.55479 12.8908C7.08616 13.3716 8.96203 12.8945 9.53947 12.8047C10.7265 12.6201 11.8765 12.2107 13.0677 12.0547C14.7626 11.8327 11.9168 11.8316 11.6347 11.8333C9.5545 11.8458 7.49683 11.8791 5.46766 12.485C4.91033 12.6514 3.21637 12.8807 3.78754 12.9399C6.91153 13.2638 10.0971 12.3052 13.1665 11.7227C13.3528 11.6873 15.3479 11.3638 14.6786 11.3907C12.9244 11.4611 11.1926 12.118 9.45052 12.3743C9.11353 12.4239 3.4442 12.7514 3.39222 13.3334C3.37084 13.5728 3.98082 13.4827 3.56023 13.7269C3.44292 13.795 2.50275 14.1326 2.50275 14.2187C2.50275 14.414 4.4329 13.9413 4.509 13.9236C5.99358 13.5792 7.41046 13.1962 8.92672 13.1613C10.2027 13.1319 11.4621 12.9399 12.7416 12.9399" stroke="black" stroke-linecap="round"/>
<path d="M19.5016 11.1693C13.664 11.1693 -3.84874 11.1693 1.98884 11.1693C7.38197 11.1693 23.5541 10.6334 18.1674 10.9603C17.8713 10.9783 15.589 11.7482 15.6274 11.7841C16.478 12.5778 19.873 12.0546 18.8098 12.0546C18.517 12.0546 16.5367 12.0546 17.3075 12.0546C18.3947 12.0546 19.4818 12.0546 20.5689 12.0546" stroke="black" stroke-linecap="round"/>
<path d="M3.66896 19.137C10.3278 19.137 17.0853 18.4136 23.7315 18.9648C26.192 19.1689 23.8397 19.5807 22.7432 19.6903C17.5119 20.2133 12.2775 20.4699 7.04896 21.0797C5.66711 21.2409 4.27219 21.3193 2.89808 21.5715C2.43725 21.6561 1.09621 21.8427 1.54411 22.0019C2.31688 22.2766 3.5808 22.0167 4.35089 22.0019C6.47937 21.9608 8.52966 21.658 10.6266 21.2273C11.6091 21.0255 12.5928 20.8551 13.552 20.5141C13.7698 20.4367 14.8415 20.087 13.977 20.0346C10.8707 19.8461 7.64906 19.8934 4.61773 20.7969C3.68374 21.0753 2.77306 21.4403 1.85048 21.7683C1.58096 21.8641 0.810846 22.0873 1.07961 22.1863C1.83584 22.4651 2.97231 22.2462 3.72826 22.2355C6.5601 22.1956 9.33499 21.8089 12.1288 21.2519C14.3045 20.8181 16.5761 20.0223 18.79 20.0223C20.5812 20.0223 15.2046 20.1299 13.4235 20.3666C12.1546 20.5352 7.6467 21.1334 7.94832 23.7602C7.98268 24.0595 9.9042 25.1127 9.71738 25.1127" stroke="black" stroke-linecap="round"/>
<path d="M22.3479 18.6944C17.6534 18.6944 12.959 18.6944 8.26454 18.6944C6.56795 18.6944 4.87137 18.6944 3.17478 18.6944C1.81847 18.6944 3.96135 18.6944 4.11367 18.6944C7.1416 18.6944 10.2217 18.469 13.2258 19.0141C13.6021 19.0823 14.7388 19.0701 14.3624 19.137C13.5757 19.2768 12.771 19.3474 11.9806 19.4567C11.7899 19.4831 9.37237 19.8225 9.95454 20.0223C11.1682 20.4389 12.588 20.2436 13.8287 20.2436C15.3463 20.2436 16.8792 20.3201 18.3947 20.1944C18.5504 20.1815 19.9221 20.1767 19.9858 19.8993C20.0634 19.5615 16.746 19.3669 16.6355 19.3583C14.6517 19.2041 12.6732 19.137 10.6859 19.137C9.80628 19.137 8.87367 19.0485 8.01747 19.3583C6.78046 19.806 8.171 19.801 8.71916 19.801C12.0274 19.801 15.3489 19.9357 18.6417 19.469C19.1632 19.3951 20.7179 19.1595 20.1934 19.137C19.2734 19.0975 18.3465 19.137 17.4261 19.137C14.7368 19.137 12.0601 19.2922 9.41097 19.8993C7.91706 20.2417 3.33584 20.0223 4.85489 20.0223C5.70483 20.0223 6.55478 20.0223 7.40472 20.0223" stroke="black" stroke-linecap="round"/>
</svg>
