<svg width="32" height="32" viewBox="0 0 32 32" fill="none" xmlns="http://www.w3.org/2000/svg">
<path d="M14.4195 3.12882C12.8663 3.12882 11.5496 3.10584 10.1215 3.75264C8.4527 4.50843 7.44793 5.78092 6.5895 7.34308C5.18184 9.90473 4.69701 13.7958 6.00084 16.4717C7.27138 19.0792 10.6133 21.2671 13.3273 22.2732C16.7248 23.5327 19.2111 19.7102 19.7104 16.9153C20.3469 13.3525 19.8341 10.0221 18.6324 6.62915C17.8121 4.31341 16.09 1.60498 13.3911 1.13952C12.4519 0.977536 11.4305 0.853845 10.5896 1.38212C9.53171 2.04675 8.77442 3.06316 8.29877 4.19624C7.25212 6.68953 6.27773 9.65289 7.41222 12.3059C8.39125 14.5954 9.99501 16.4374 11.2279 18.5719C11.98 19.8739 13.102 21.0586 14.7741 21.0949C16.247 21.1269 17.872 21.3585 19.1146 20.4711C19.7113 20.0449 20.219 19.0767 20.5544 18.454C21.0871 17.465 21.3989 16.4887 21.5402 15.3834C21.661 14.439 21.6113 13.4337 21.2424 12.5485C20.7933 11.4714 19.9105 10.5877 19.4267 9.51952C18.6432 7.78946 18.0801 5.99506 16.9727 4.43191C15.937 2.96983 13.5065 2.1307 11.7386 2.1307" stroke="black" stroke-width="1.5" stroke-linecap="round"/>
<path d="M10.7173 21.5939C8.05652 22.5738 5.41364 24.0694 3.20645 25.8221C2.5693 26.328 1.15256 27.5628 1.022 28.456C0.902628 29.2726 1.27599 29.6242 1.97238 30.0779C3.61412 31.1476 5.9746 31.1905 7.84487 30.6948C11.6397 29.6891 15.2359 28.5807 19.2069 28.5807C22.2324 28.5807 25.1301 27.9082 28.0723 27.3331C29.2084 27.111 30.5672 26.2636 30.9447 25.1567C31.2581 24.238 30.1697 24.0216 29.4199 23.7773C27.8601 23.2692 26.2587 22.9139 24.6964 22.4049C23.5701 22.038 22.4322 21.4044 21.2495 21.2266C20.3599 21.0928 19.2867 20.5958 18.4409 20.5958C17.2415 20.5958 16.4444 20.974 15.3131 21.2196C12.3302 21.8675 9.62961 23.045 7.11435 24.713C5.7701 25.6045 4.3338 26.5247 3.4405 27.8599C3.15364 28.2886 2.92985 28.6882 2.92985 29.2046C2.92985 29.5588 3.12905 30.277 3.56817 30.3274C4.73553 30.4617 6.14726 30.8313 7.39805 30.5492C9.36611 30.1054 11.2866 29.5155 13.2564 29.0521C15.4762 28.5298 17.7285 28.3683 19.9799 28.054C22.1898 27.7454 23.4102 26.4492 24.8879 24.9626C25.4086 24.4387 26.6751 23.1299 26.6751 22.3425" stroke="black" stroke-width="1.5" stroke-linecap="round"/>
</svg>
